<?xml version="1.0" encoding="UTF-8"?><svg xmlns="http://www.w3.org/2000/svg" xmlns:xlink="http://www.w3.org/1999/xlink" viewBox="0 0 250 160"><defs><linearGradient id="White_Black_2" x1="53.06" y1="34.33" x2="53.06" y2="61.19" gradientUnits="userSpaceOnUse"><stop offset="0" stop-color="#fff"/><stop offset="1" stop-color="#231f20"/></linearGradient><mask id="mask" x="32.65" y="41.47" width="40.82" height="26.39" maskUnits="userSpaceOnUse"><path d="M63.12,55.83c0,.06-.02.13-.03.19.06-.58.08-1.18.04-1.79-.03-.37-.08-.74-.14-1.1,0,0,0,0,0,0,0-.02-.01-.04-.02-.07-.08-.4-.18-.79-.3-1.16-.02-.05-.02-.11-.04-.16,0,0,0,0-.01,0-1.44-4.24-5.59-7.16-10.26-6.82-.18.01-.35.04-.53.06,0,0,0,0,0-.01-.06,0-.11.03-.17.03-.29.04-.57.1-.85.16,0,0,0,0,.01,0-.04,0-.08.02-.12.03-.04,0-.07.02-.11.03-.04,0-.07.01-.11.02,0,0,0,0,0,0-.16.04-.32.1-.48.15-.04.01-.07.02-.11.04-.74.25-1.45.58-2.1.98.03-.02.06-.05.1-.07-7.85-4.07-14.03-5.92-15.07-4.25-1.03,1.66,3.28,6.31,10.29,11.49,0,0,0,0,0,0,0,.03-.01.06-.02.09h0c-.02.17-.03.33-.04.5-.01.17-.03.33-.04.5,0,.34,0,.68.02,1.03.4,5.55,5.23,9.73,10.78,9.33,0,0,.01,0,.02,0,0,0,.01,0,.02,0,.05,0,.1-.02.15-.02.32-.03.64-.07.95-.13.03,0,.06,0,.09-.01.16-.03.32-.08.48-.12.17-.04.33-.08.49-.13.22-.07.44-.14.66-.22.09-.04.19-.08.28-.11.56-.23,1.1-.49,1.6-.81-.02,0-.03,0-.05,0,.1-.06.19-.13.28-.2,0,0,0,0,0,0,7.59,3.87,13.52,5.6,14.53,3.97,1.03-1.65-3.24-6.26-10.19-11.41ZM62.21,59.22s0-.02.01-.03c.05-.11.1-.23.15-.35.04-.09.08-.18.11-.27-.03.07-.05.14-.08.21,1.3,1.22,1.95,2.15,1.69,2.56-.25.4-1.33.25-2.95-.35,0,0,0,0,0,0,.41-.55.77-1.14,1.07-1.77,0,0,0,0,0,0ZM62.67,58.03s.01-.04.02-.06c0,0,0,0,0,0,0,.02-.01.04-.02.06ZM62.6,58.28s-.02.06-.03.09c0,0,0-.02,0-.03,0-.02.02-.04.03-.06ZM44.01,50.57c-1.71-1.5-2.62-2.65-2.32-3.13.3-.48,1.78-.17,3.94.74.04-.05.09-.09.14-.14,0,0,0,0,0,0-.71.75-1.3,1.6-1.76,2.53,0,0,0,0,0,0ZM62.77,57.69s0,0,0,0c.04-.14.09-.28.12-.43,0,0,0,.01,0,.02-.03.14-.08.27-.12.41ZM45.87,47.94s-.03.03-.05.04c.1-.11.2-.21.31-.32.16-.16.33-.31.51-.45.06-.05.13-.1.19-.15-.34.27-.66.57-.96.88ZM62.98,56.87c-.02.13-.05.25-.08.38.05-.21.08-.43.12-.64-.01.09-.02.18-.04.26ZM47.18,46.8c-.06.05-.13.09-.19.13,0,0,0,0,0,0,0,0-.02.02-.03.02-.03.02-.05.04-.08.06.03-.02.05-.04.08-.06.07-.05.15-.1.22-.15Z" style="fill:url(#White_Black_2); stroke-width:0px;"/></mask></defs><g style="isolation:isolate;"><g id="Layer_2"><g id="Layer_1-2"><g id="Planets"><circle cx="165.48" cy="87.12" r="6.77" style="fill:#fd6e03; stroke-width:0px;"/><path d="M171.44,86.41c.25.05.5.15.8.21-.06-.8-.25-1.56-.57-2.25-.19.15-.37.29-.53.37-.58.27-.43.22-.93-.31s-1.48-.43-1.4.13c.08.55-.63.18-.75-.34-.13-.51-.78-.51-1.23-1.14-.45-.63-1.4-.4-1.88-.7-.48-.3-1.53.23-.5.5,1.03.28.8.58.58,1.08-.23.5-.23,1.23.58,1.88.8.65-.3.25-.4,1s-1.53.18-2.11-.63c-.58-.8-.63.1-1.78,0s-1.15.2-1.15-.68c0-.62-.59-.89-.93-.99-.33.8-.51,1.67-.51,2.58,0,2.83,1.74,5.26,4.21,6.27.1-.3.22-.56.31-.73.23-.45,1.18-.06,1.53-.91.35-.85.95-.73,1.1.03.15.75,1.03,1.33,1.48,1.26s.28-1.46.28-1.91.83-.35.9-.95c.08-.6.68-.5,1.15-.13.48.38-.05.6-.08,1.86,0,.21.01.4.04.55.7-.55,1.29-1.24,1.74-2.02-.12-.21-.26-.43-.35-.72-.27-.85.38-.83.28-1.86-.1-1.03-.28-1.53.13-1.45Z" style="fill:#f55e1b; stroke-width:0px;"/><path d="M161.79,83.51s.19.17.53,0c.34-.17.49.06.21.39-.28.34-.45.32-.29.77.16.45-.63.87-.87.53-.24-.34-.13-.43-.58-.62-.45-.19-.79-.92,0-.75.79.17.36-.58,1.02-.32Z" style="fill:#d94809; stroke-width:0px;"/><path d="M163.46,84.22s.75-.19.65.33c-.1.51-.2.35.23.64.43.29.64.81.14.65-.5-.16-.35-.31-.78-.11s-.76-.07-.58-.4c.19-.33-.41-1.02.34-1.11Z" style="fill:#d94809; stroke-width:0px;"/><path d="M165.98,81.36c.28-.03.21.33.58.33s.34.24.49.44c.15.2,0,.66-.29.36-.29-.3-.51-.54-.78-.39-.26.15-.87-.13-.99-.24-.13-.11-1.19-.29-1.4-.02-.21.26-1.04.43-.81.05.23-.38.44-.79,1.08-.71.64.08.78.32.99,0,.21-.33.66-.34.73-.18s-.06.43.41.38Z" style="fill:#d94809; stroke-width:0px;"/><path d="M168.2,81.73s.93-.26,1.03.37.53.78.83,1c.3.23-1.03.4-1.3,0-.28-.4-.6-.25-.95-.25s-.1-1.18.4-1.12Z" style="fill:#d94809; stroke-width:0px;"/><path d="M171.91,84.99c-.14.08-.25.19-.29.34-.18.64-.41.19-1.5-.49-1.09-.68-.68.08-.6.53.08.45.34,1.2,0,1.75s-.71-.62-1.05-.88-.71-.34-1.01-1.17.07-.19-1.21-.71c-1.28-.53-.08.6.6.98.68.38.75.53.41,1.47-.34.94-1.02.34-1.02,1.13s-.64.9-1.47.64c-.83-.26-1.2-.38-1.73.08-.53.45-.68.49-1.54-.6s-.53-.94-1.17-.49c-.64.45-.9.26-1.05-.43-.09-.41-.33-.71-.52-.9-.04.29-.06.59-.06.9,0,2.29,1.14,4.31,2.87,5.54.85.07.09-.61.09-1.02,0-.47.11-.36.6-.4s.3-.15.53-.58.39.08,1.05,0c.66-.08.66-.34.94-.55s0,0,.87,0,.69.06.71.88.19.92.47.94-.13-.77-.11-1.49c.02-.71.17-.43.26-1.02.09-.58.71-.75,1.26-.56s.56.04,1.03-.3.51.09.92.39c.41.3.24.32-.06,1.28-.3.96.11.26.3,0,.19-.26.15-.96.02-1.67-.13-.71.13-.6.17-1.15.04-.55-.13-.98-.17-1.58-.04-.6.62-.06,1.03.18.24.14.42.06.63-.15-.06-.3-.13-.59-.22-.88Z" style="fill:#e84700; stroke-width:0px;"/><path d="M166.55,80.43c2.11,1.15,3.55,3.38,3.55,5.96,0,3.74-3.03,6.77-6.77,6.77-.36,0-.72-.03-1.07-.08.96.52,2.06.81,3.22.81,3.74,0,6.77-3.03,6.77-6.77,0-3.38-2.47-6.17-5.7-6.69Z" style="fill:#e6e7e8; mix-blend-mode:multiply; stroke-width:0px;"/><path d="M168.32,88.08c-.95,2.72-3.47,4.32-5.63,3.57-2.16-.75-3.14-3.57-2.19-6.3.95-2.72,3.47-4.32,5.63-3.57,2.16.75,3.14,3.57,2.19,6.3Z" style="fill:#231f20; mix-blend-mode:screen; stroke-width:0px;"/><path d="M218.98,68.41c0-2.97,2.41-5.38,5.38-5.38s5.38,2.41,5.38,5.38-2.41,5.38-5.38,5.38-5.38-2.41-5.38-5.38Z" style="fill:#c3d6f3; stroke-width:0px;"/><path d="M229.74,68.41c0-2.97-2.41-5.38-5.38-5.38-.52,0-1.03.08-1.51.22h0s1.94-.13,2.02.93c.08,1.06.55,1.61-.26,1.95-.81.34-1.03.28-1.11,1.03s-.42,1.45-1.36,1.29c-.93-.15-1.78.94-2.03-.03-.16-.58-.68-.84-.99-1.24-.09.4-.15.81-.15,1.24,0,2.97,2.41,5.38,5.38,5.38s5.38-2.41,5.38-5.38Z" style="fill:#b9cbe6; stroke-width:0px;"/><path d="M225.26,63.11c.25.4,1.38,2.34.89,3.1-.55.85.13,1.58-1.15,2.24-1.27.65.16,1.04-1.49,1.08s-.34.89-1.99.72c-.9-.09-1.63-.12-2.27-.18.7,2.16,2.73,3.72,5.12,3.72,2.97,0,5.38-2.41,5.38-5.38,0-2.67-1.94-4.88-4.48-5.3Z" style="fill:#afc0d9; stroke-width:0px;"/><path d="M225.9,63.26c.27.75.92,2.43,1.44,2.68.68.32.34,1.9,0,2.51-.34.61-.94.38-1.04,1.47-.1,1.09.15,2.03-.91,1.99-1.06-.04-1.61-.25-2.08,0-.47.25-.36.89-1.5.19-.78-.48-1.59-1.01-2.17-1.13.91,1.68,2.69,2.83,4.73,2.83,2.97,0,5.38-2.41,5.38-5.38,0-2.44-1.62-4.5-3.85-5.16Z" style="fill:#a5b5cc; stroke-width:0px;"/><path d="M225.21,63.1c1.68.91,2.82,2.69,2.82,4.73,0,2.97-2.41,5.38-5.38,5.38-.29,0-.57-.02-.85-.07.76.41,1.63.65,2.56.65,2.97,0,5.38-2.41,5.38-5.38,0-2.68-1.96-4.91-4.53-5.31Z" style="fill:#e6e7e8; mix-blend-mode:multiply; stroke-width:0px;"/><path d="M219.39,66.34c.47.3,1.25.34,1.29.01.06-.57.74-.17.76.65s.93.11.8-1.07c-.13-1.18.3-.6,1.04,0,.74.6.65-.63.71-1.14.06-.51-.4-.37-1.25-.41-.85-.04-.36-.97-.36-.97-1.35.53-2.44,1.6-3,2.94Z" style="fill:#cfdef5; stroke-width:0px;"/><path d="M226.62,69.18c-.76,2.16-2.76,3.43-4.48,2.83-1.72-.6-2.5-2.84-1.74-5.01.76-2.16,2.76-3.43,4.48-2.83,1.72.6,2.5,2.84,1.74,5.01Z" style="fill:#231f20; mix-blend-mode:screen; stroke-width:0px;"/><circle cx="119.42" cy="19.79" r="2.97" style="fill:#00e8eb; stroke-width:0px;"/><path d="M119.42,16.82c-.68,0-1.31.23-1.82.62.53-.06,1.26-.02,1.69.51.74.92.69,1.34.51,1.76-.16.37-2.73,1.86-3.35.12.02,1.63,1.34,2.94,2.97,2.94s2.97-1.33,2.97-2.97-1.33-2.97-2.97-2.97Z" style="fill:#00e0e3; stroke-width:0px;"/><path d="M116.95,21.45c.53.79,1.44,1.32,2.47,1.32,1.64,0,2.97-1.33,2.97-2.97s-1.33-2.97-2.97-2.97c-.38,0-.74.07-1.08.2.49,0,1.23.08,1.64.56.65.76.96,2.38.11,3.1-.57.49-2.14.88-3.13.76Z" style="fill:#00d1d4; stroke-width:0px;"/><path d="M119.42,22.76c1.64,0,2.97-1.33,2.97-2.97,0-1.29-.83-2.39-1.98-2.8.54.79,1.48,2.49.56,3.69-.81,1.05-1.96,1.65-3.13,1.63.46.29,1,.45,1.58.45Z" style="fill:#00bdbf; stroke-width:0px;"/><path d="M119.89,16.86c.93.5,1.56,1.48,1.56,2.61,0,1.64-1.33,2.97-2.97,2.97-.16,0-.32-.01-.47-.04.42.23.9.36,1.41.36,1.64,0,2.97-1.33,2.97-2.97,0-1.48-1.08-2.71-2.5-2.93Z" style="fill:#e6e7e8; mix-blend-mode:multiply; stroke-width:0px;"/><path d="M120.67,20.22c-.42,1.2-1.52,1.9-2.47,1.56-.95-.33-1.38-1.57-.96-2.76s1.52-1.9,2.47-1.56c.95.33,1.38,1.57.96,2.76Z" style="fill:#231f20; mix-blend-mode:screen; stroke-width:0px;"/><g style="mask:url(#mask);"><circle cx="53.08" cy="54.96" r="10.08" transform="translate(-12.94 93.43) rotate(-76.23)" style="fill:#ffd037; stroke-width:0px;"/><path d="M62.21,59.22c-6.03-2.07-10.09-4.83-12.62-7.06-1.78-1.56-3.01-3.02-3.83-4.13.38-.4.79-.76,1.22-1.1.76,1.06,1.97,2.52,3.76,4.07,2.41,2.1,6.28,4.71,12.04,6.68-.15.53-.34,1.04-.57,1.53Z" style="fill:#f9a303; stroke-width:0px;"/><path d="M51.82,44.96c.47.64,1.14,1.42,2.06,2.24,1.66,1.47,4.43,3.3,8.75,4.54.15.45.27.92.36,1.4-5-1.31-8.15-3.39-10.01-5.06-1.19-1.07-1.99-2.07-2.51-2.85.44-.12.89-.21,1.35-.26Z" style="fill:#f9a303; stroke-width:0px;"/><path d="M43.03,55.69c-.05-.69-.03-1.37.06-2.04,1.35,3.2,5.39,9.99,15.21,9.93-1.32.8-2.84,1.31-4.49,1.43-5.55.4-10.38-3.77-10.78-9.33Z" style="fill:#f9a303; stroke-width:0px;"/><path d="M50.81,45.15c-3.02,1.93-4.91,5.4-4.63,9.22.4,5.55,5.23,9.73,10.78,9.33.54-.04,1.07-.12,1.58-.24-1.37.87-2.96,1.43-4.69,1.55-5.55.4-10.38-3.77-10.78-9.33-.36-5.01,3-9.43,7.75-10.54Z" style="fill:#e6e7e8; mix-blend-mode:multiply; stroke-width:0px;"/><path d="M49,56.7c1.7,3.94,5.62,6.04,8.75,4.69,3.13-1.35,4.28-5.64,2.57-9.59-1.7-3.94-5.62-6.04-8.75-4.69-3.13,1.35-4.28,5.64-2.57,9.59Z" style="fill:#231f20; mix-blend-mode:screen; stroke-width:0px;"/><path d="M43.1,53.57c2.25,1.66,4.78,3.38,7.5,5.07,2.84,1.76,5.61,3.33,8.19,4.64,7.59,3.87,13.52,5.6,14.53,3.97,1.03-1.65-3.24-6.26-10.19-11.41-.03.35-.08.7-.14,1.04-.03.14-.05.27-.09.41-.07.31-.16.61-.26.91-.07.2-.14.4-.22.59,1.3,1.22,1.95,2.15,1.69,2.56-.25.4-1.33.25-2.95-.35-2.31-.84-5.72-2.58-9.36-4.83-3.2-1.99-5.96-3.99-7.79-5.59-1.71-1.5-2.62-2.65-2.32-3.13.3-.48,1.78-.17,3.94.74.16-.17.32-.34.49-.51.16-.16.33-.31.51-.45.11-.09.21-.17.32-.26.29-.22.6-.43.92-.63-7.85-4.07-14.03-5.92-15.07-4.25-1.03,1.66,3.28,6.31,10.29,11.48Z" style="fill:#d88002; stroke-width:0px;"/><path d="M43.73,51.2c2.04,1.69,4.71,3.61,7.73,5.51,3.37,2.12,6.59,3.84,9.15,4.95,2.96,1.28,5.04,1.75,5.46,1.08.43-.68-.94-2.39-3.44-4.55-.07.2-.14.4-.22.59,1.3,1.22,1.95,2.15,1.69,2.56-.25.4-1.33.25-2.95-.35-2.31-.84-5.72-2.58-9.36-4.83-3.2-1.99-5.96-3.99-7.79-5.59-1.71-1.5-2.62-2.65-2.32-3.13.3-.48,1.78-.17,3.94.74.16-.17.32-.34.49-.51-3.47-1.6-5.96-2.25-6.43-1.51-.46.73,1.15,2.66,4.03,5.04Z" style="fill:#bf7102; stroke-width:0px;"/><path d="M38.91,49.12c1.26,1.1,2.73,2.27,4.37,3.48,2.3,1.69,4.91,3.44,7.69,5.15,3.01,1.85,5.98,3.5,8.7,4.85,1.58.78,3.08,1.46,4.44,2.01,1.98.8,4.32,1.58,5.7,1.48.49-.04.86-.18,1.05-.48.7-1.14-1.75-3.66-3.93-5.57-1.14-1-2.47-2.07-3.94-3.16-.03.14-.05.27-.09.41,1.4,1.05,2.68,2.07,3.78,3.04,4.22,3.69,4.02,4.83,3.86,5.09-.16.26-1.09.95-6.28-1.15-1.32-.53-2.76-1.18-4.28-1.93-2.74-1.35-5.75-3.02-8.8-4.9-2.82-1.73-5.46-3.51-7.78-5.22-1.58-1.17-3.01-2.3-4.22-3.37-4.22-3.69-4.02-4.83-3.86-5.09.06-.1.25-.27.77-.31.8-.06,2.38.19,5.52,1.46,1.54.62,3.24,1.4,5.05,2.32.11-.09.21-.17.32-.26-1.87-.95-3.64-1.77-5.23-2.41-2.69-1.09-6.04-2.14-6.74-1-.7,1.14,1.75,3.66,3.93,5.57Z" style="fill:#8a5100; stroke-width:0px;"/></g><rect width="250" height="160" style="fill:none; stroke-width:0px;"/></g></g></g></g></svg>