<?xml version="1.0" encoding="UTF-8"?><svg id="Layer_2" xmlns="http://www.w3.org/2000/svg" viewBox="0 0 250 160"><g id="Layer_1-2"><g id="Mountain_Range_-_Far"><path d="M139.31,110.3c2.26.21,4.76.21,6.13.21h13.82c1.95,0,8.79,2.05,13.56,3.32,46.55,0,55.18,4.31,77.18,2.54v-14.93c-1.82-.29-4.48-.7-5.98-.79-2.43-.14-5.74-2.04-7.67-1.19-1.93.84-7.04.67-8.97,1.05-1.93.36-6.28.44-7.8.44-1.25,0-5.44-.44-8.02-.47h-.02c-.57-.01-1.07,0-1.43.03-1.97.2-2.75.01-5.62.48-2.87.46-5.27.97-7.36.77-2.1-.2-3.83-.08-6.04,0-2.21.08-7.95,1.58-11.48,1.1-3.53-.46-7.36.37-9.51.09-2.15-.27-7.66.86-8.37,1.32-.72.47-3.11,1.69-4.42,1.79-1.32.09-4.91.28-6.82,1.02-1.92.75-4.91,1.41-6.04,1.6-.73.12-3.09,1.07-5.15,1.62Z" style="fill:#1689c8; stroke-width:0px;"/><polygon points="182.74 102.53 182 100.43 182.55 100.43 182.55 100.42 182.55 100.42 181.6 97.85 182.01 97.85 182.01 97.85 182.01 97.85 181.1 94.98 180.2 97.85 180.6 97.85 180.6 97.85 180.6 97.85 180.6 97.85 179.87 99.85 179.66 100.42 179.66 100.42 179.66 100.43 180.21 100.43 179.47 102.53 180.95 102.53 180.95 104.24 181.26 104.24 181.26 102.53 182.74 102.53" style="fill:#1689c8; stroke-width:0px;"/><polygon points="172.99 103.08 172.51 101.75 172.87 101.75 172.86 101.74 172.86 101.74 172.27 100.11 172.52 100.11 172.52 100.11 172.52 100.11 171.95 98.3 171.38 100.11 171.63 100.11 171.63 100.11 171.63 100.11 171.63 100.11 171.17 101.38 171.04 101.74 171.04 101.74 171.03 101.75 171.39 101.75 170.91 103.08 171.85 103.08 171.85 104.16 172.05 104.16 172.05 103.08 172.99 103.08" style="fill:#1689c8; stroke-width:0px;"/><polygon points="208.62 102.17 207.88 100.07 208.43 100.07 208.43 100.06 208.43 100.06 207.48 97.49 207.89 97.49 207.89 97.49 207.89 97.49 206.98 94.62 206.08 97.49 206.48 97.49 206.48 97.49 206.48 97.49 206.48 97.49 205.75 99.49 205.54 100.06 205.54 100.06 205.54 100.07 206.09 100.07 205.35 102.17 206.83 102.17 206.83 103.88 207.14 103.88 207.14 102.17 208.62 102.17" style="fill:#1689c8; stroke-width:0px;"/><polygon points="159.2 106.14 158.46 104.04 159.01 104.04 159.01 104.03 159.01 104.03 158.07 101.45 158.47 101.45 158.47 101.45 158.47 101.45 157.57 98.59 156.66 101.45 157.07 101.45 157.07 101.46 157.07 101.46 157.07 101.46 156.33 103.46 156.12 104.03 156.12 104.03 156.12 104.04 156.67 104.04 155.93 106.14 157.41 106.14 157.41 107.85 157.72 107.85 157.72 106.14 159.2 106.14" style="fill:#1689c8; stroke-width:0px;"/><polygon points="196.29 103.45 195.55 101.35 196.1 101.35 196.1 101.34 196.1 101.34 195.15 98.76 195.56 98.76 195.56 98.76 195.56 98.76 194.65 95.9 193.75 98.76 194.15 98.76 194.15 98.76 194.15 98.76 194.15 98.76 193.42 100.77 193.21 101.34 193.21 101.34 193.21 101.35 193.76 101.35 193.02 103.45 194.5 103.45 194.5 105.16 194.81 105.16 194.81 103.45 196.29 103.45" style="fill:#1689c8; stroke-width:0px;"/><polygon points="216.21 101.99 215.46 99.89 216.02 99.89 216.01 99.88 216.01 99.88 215.07 97.31 215.48 97.31 215.48 97.31 215.48 97.31 214.57 94.44 213.67 97.31 214.07 97.31 214.07 97.31 214.07 97.31 214.07 97.31 213.34 99.31 213.13 99.88 213.13 99.88 213.13 99.89 213.68 99.89 212.94 101.99 214.41 101.99 214.41 103.7 214.73 103.7 214.73 101.99 216.21 101.99" style="fill:#1689c8; stroke-width:0px;"/><polygon points="163.41 104.77 163.01 103.66 163.31 103.66 163.31 103.65 163.31 103.65 162.8 102.28 163.02 102.28 163.02 102.28 163.02 102.28 162.54 100.75 162.06 102.28 162.27 102.28 162.27 102.28 162.27 102.28 162.27 102.28 161.88 103.35 161.77 103.65 161.77 103.65 161.77 103.66 162.06 103.66 161.67 104.77 162.45 104.77 162.45 105.68 162.62 105.68 162.62 104.77 163.41 104.77" style="fill:#1689c8; stroke-width:0px;"/><polygon points="198.33 102.31 197.93 101.19 198.22 101.19 198.22 101.18 198.22 101.18 197.72 99.81 197.94 99.81 197.94 99.81 197.94 99.81 197.45 98.29 196.97 99.81 197.19 99.81 197.19 99.81 197.19 99.81 197.19 99.81 196.8 100.88 196.69 101.18 196.69 101.18 196.68 101.19 196.98 101.19 196.58 102.31 197.37 102.31 197.37 103.22 197.54 103.22 197.54 102.31 198.33 102.31" style="fill:#1689c8; stroke-width:0px;"/><polygon points="217.69 101.61 217.3 100.49 217.59 100.49 217.59 100.48 217.59 100.48 217.09 99.11 217.31 99.11 217.31 99.11 217.31 99.11 216.82 97.58 216.34 99.11 216.56 99.11 216.56 99.11 216.56 99.11 216.56 99.11 216.17 100.18 216.06 100.48 216.06 100.48 216.05 100.49 216.35 100.49 215.95 101.61 216.74 101.61 216.74 102.52 216.91 102.52 216.91 101.61 217.69 101.61" style="fill:#1689c8; stroke-width:0px;"/><rect width="250" height="160" style="fill:none; stroke-width:0px;"/></g></g></svg>