<?xml version="1.0" encoding="UTF-8"?><svg xmlns="http://www.w3.org/2000/svg" viewBox="0 0 250 160"><g style="isolation:isolate;"><g id="Layer_2"><g id="Layer_1-2"><g id="Foreground"><path d="M250,126.2c-3.94.56-10.04,1.25-17.5,1.3-.8,0-1.55,0-2.23-.01-2.34-.04-4.03-.15-4.35-.16-2.31-.13-21.33-.77-48.35.24-5.17.19-12.14.51-20.42,1.03,0,0,0,0,0,0,0,0,0,0,0,0-4.9,0-8.48.24-8.48.24-6.99-.06-6.24.08-9.86-.01-4.48-.12-6.79-.35-9.93-.54-7.28-.44-12.79-.26-21.31.03-9.47.32-8.79.67-14.56.66-2.79,0-6.99-.09-16.97-.96-10.29-.9-17.93-1.86-18.17-1.89-9.19-1.17-25.71-1.35-57.87,3.09v30.81h250v-33.8Z" style="fill:#011825; stroke-width:0px;"/><g style="mix-blend-mode:multiply;"><path d="M34.22,129.5s-.21.12-.44.18c-.23.06-1.56.19-2.28-.12-.63-.27.07-.27.45-.35.38-.07,1.14.14,1.14.14l1.14.14Z" style="fill:#d1d3d4; stroke-width:0px;"/></g><path d="M34.22,129.5c-.65.23-1.84.18-1.84.18-.7-.08-.86-.36-.86-.36.18-.27.73-.42.73-.42.52.13,1.36.08,1.36.08.39.12.6.52.6.52Z" style="fill:#573f34; stroke-width:0px;"/><path d="M33.62,128.97s-.84.05-1.36-.08c0,0,.26-.08.87-.02.54.05.49.09.49.09Z" style="fill:#9a8c85; stroke-width:0px;"/><path d="M33.65,128.99c.15.14.41.41.3.59.1-.02.19-.05.27-.08,0,0-.2-.38-.57-.51Z" style="fill:#bcb2ae; stroke-width:0px;"/><path d="M32.76,128.91c.43.04.54.01.55-.01-.05,0-.11-.01-.18-.02-.33-.03-.56-.02-.7-.01.09.02.2.03.33.04Z" style="fill:#bcb2ae; stroke-width:0px;"/><path d="M33.78,129.6c-.56.09-1.54-.02-1.75-.28-.13-.16-.01-.3.1-.39-.17.06-.48.19-.6.37,0,0,.16.28.86.36,0,0,.76.03,1.4-.07Z" style="fill:#31221b; stroke-width:0px;"/><path d="M0,127.86s42.25-1.33,48.5,0c6.25,1.33,38.75,3.31,49.5,3.64,10.75.33,49.5,2.32,57.25,2.32s-1.5,3.64-30.25,2.98c-28.75-.66-27.83.88-27,1.99.83,1.1,17.33,3.98,24.33,3.53,7-.44,15.33,1.1,12.17,3.09-.27.17-.44.37-.5.6-.19.66,6.2,5.05,15.83,6.91,10.08,1.96,13.67-.81,29.35.77,8.43.85,8.64,1.77,8.65,1.96.05,1.09-5.65,2.16-7.5,2.5-8.85,1.65-15.81,1.25-20.67,1-13.86-.72-20.79-1.09-22.87-.95-5.78.38-11.92,1.06-20.82.25-1.4-.13-2.82-.33-4.47-.64-9.04-1.67-10.63-3.76-16.83-3-6.14.75-9.91,3.44-18.33,3.33-2.91-.04-4.97-.37-6.34-.6-7.95-1.34-20.6-.84-52.66,1.26-4.89.32-10.73.71-17.33,1.17v-32.14Z" style="fill:#231f20; mix-blend-mode:screen; stroke-width:0px;"/><path d="M250,128.98c-3.25.18-17.64.98-23.83.98-7,0-57.3.77-55.17,2.43,2.38,1.85.17,6.85-11.67,7.51-11.83.66-16,1.07-16.17,3.74-.17,2.67,21.83,2.01,24.83,1.79s39.98,1.99,38.49,4.42c-1.49,2.43,9.01,2.43,14.51,2.87,5.16.41,14.28,3.55,29,2.84v-26.58Z" style="fill:#0d3056; stroke-width:0px;"/><polygon points="4.67 143.69 7.87 143.62 10.45 143.01 11.88 142.98 15.07 143.46 21.06 143.95 15.1 143.7 15.97 144.06 11.85 143.57 10.1 143.61 8.05 143.89 4.67 143.69" style="fill:#011825; stroke-width:0px;"/><polygon points="18.41 153.79 21.28 153.73 23.61 153.31 24.9 153.28 27.77 153.58 33.16 153.87 27.8 153.73 28.58 153.97 24.87 153.67 23.29 153.7 21.45 153.9 18.41 153.79" style="fill:#011825; stroke-width:0px;"/><polygon points="153.19 149.96 157.16 149.87 160.37 149.18 162.15 149.14 166.11 149.66 173.56 150.18 166.16 149.92 167.24 150.33 162.28 150.16 159.92 150.12 157.39 150.16 153.19 149.96" style="fill:#011825; stroke-width:0px;"/><polygon points="110.69 151.9 114.59 151.81 117.75 151.25 119.49 151.21 123.38 151.61 130.7 152 123.43 151.83 124.49 152.15 119.46 151.73 117.32 151.78 114.82 152.05 110.69 151.9" style="fill:#011825; stroke-width:0px;"/><polygon points="250 88.98 250 119.89 206.47 119.89 206.72 118.99 207.13 117.53 215.11 111.69 217.38 109.06 219.38 106.76 219.38 91.16 220.25 89.3 221.59 86.43 222.02 86.43 223.54 88.93 223.69 97.68 225.36 101.65 225.36 86.11 227.75 83.79 227.75 83.78 229.34 82.25 231.23 84.91 231.23 77.66 232.52 71.57 234.07 71.57 237.98 77.35 237.98 82.67 239.15 84.13 240.51 81.21 241.65 75.63 244.76 75.63 247.18 78.4 249.15 83.92 249.15 99.09 250 88.98" style="fill:#011825; stroke-width:0px;"/><polygon points="234.07 72.15 235.46 83.57 235.46 98.09 234.07 107.48 238.44 115.61 236.47 105.39 238.04 99 238.04 90.38 237.97 83.25 237.97 77.94 234.07 72.15" style="fill:#0987be; stroke-width:0px;"/><polygon points="244.76 76.21 246.12 83.08 246.37 91.56 246.02 105.18 247.63 92.67 247.63 84.68 247.18 78.98 244.76 76.21" style="fill:#0987be; stroke-width:0px;"/><polygon points="222.03 87.01 222.03 91.35 222.63 98.3 222.33 111.09 223.44 101.99 223.69 98.27 223.54 89.51 222.03 87.01" style="fill:#0987be; stroke-width:0px;"/><polygon points="229.34 82.84 229.34 88.85 230.31 93.88 230.31 104.35 229.34 113.04 230.31 117.63 230.31 112.62 231.93 103.24 232.13 92.88 230.73 88.29 231.23 85.49 229.34 82.84" style="fill:#0987be; stroke-width:0px;"/><polygon points="219.37 107.34 219.37 110.19 218.44 113.32 218.44 118.04 216.82 114.78 217.48 111.09 217.38 109.65 219.37 107.34" style="fill:#0987be; stroke-width:0px;"/><polygon points="232.52 72.15 232.99 75.36 232.75 79.88 232.52 87.39 232.99 95.38 231.93 103.24 232.13 92.88 230.73 88.29 231.23 85.49 231.23 78.25 232.52 72.15" style="fill:#012940; stroke-width:0px;"/><polygon points="239.15 84.71 239.81 88.85 239.81 97.59 240.71 88.57 241.02 84.4 242.03 79.67 242.56 76.21 241.65 76.21 240.51 81.79 239.15 84.71" style="fill:#012940; stroke-width:0px;"/><polygon points="250 89.57 250 100.86 249.68 101.57 249.15 99.68 250 89.57" style="fill:#012940; stroke-width:0px;"/><polygon points="227.75 84.37 227.18 87.69 226.98 93.71 226.22 103.59 224.7 111.77 225.36 102.23 225.36 86.69 227.75 84.37" style="fill:#012940; stroke-width:0px;"/><polygon points="220.25 89.88 220.25 93.88 219.7 97.59 219.37 107.34 219.37 91.75 220.25 89.88" style="fill:#012940; stroke-width:0px;"/><polygon points="215.11 112.27 215.05 112.69 214.85 114.29 212.28 116.86 209.8 118.81 209.25 120.48 206.47 120.48 207.13 118.11 215.11 112.27" style="fill:#012940; stroke-width:0px;"/><path d="M250,119.58v8.98h-74.67s10.49-4.97,15.45-4.49c4.96.49,15.69-4.49,15.69-4.49h43.53Z" style="fill:#011825; stroke-width:0px;"/><polygon points="241.5 128.55 241.5 124.07 242.03 117.92 241.5 109.68 242.03 101.34 242.03 109.58 242.56 117.81 242.03 123.91 242.56 128.55 241.5 128.55" style="fill:#0987be; stroke-width:0px;"/><polygon points="241.5 128.55 238.44 128.55 240.12 123.69 240.95 118.73 240.62 111.14 241.5 109.68 242.03 117.92 241.5 123.91 241.5 128.55" style="fill:#012940; stroke-width:0px;"/><polygon points="250 121.59 250 124.72 249.68 122.3 250 121.59" style="fill:#0987be; stroke-width:0px;"/><polygon points="249.68 128.56 250 126.54 250 128.56 249.68 128.56" style="fill:#0987be; stroke-width:0px;"/><polygon points="226.22 128.55 227.18 128.55 226.7 125.7 227.18 120.77 226.7 114.24 226.47 118.82 226.22 124.8 226.22 126.96 226.22 128.55" style="fill:#0987be; stroke-width:0px;"/><polygon points="74.35 137.83 0 137.83 0 85.43 4.22 93.1 8.16 88.87 10.49 83.68 16.11 76.29 18.65 73.42 20.53 74.49 22.71 79.74 23.2 82.45 26.85 78.61 29.14 76.58 31.35 77.2 33.44 82.22 32.79 84.59 33.77 90.73 35.11 92.85 36.81 95.53 40.21 103.08 41.96 109.4 41.96 117.69 44.07 118.1 47.83 118.82 51.68 121.08 51.68 126.6 55.53 127 61.72 128.63 67.46 132.7 68.73 133.65 74.35 137.83" style="fill:#011825; stroke-width:0px;"/><path d="M4.22,93.1l1.27,8.7,1.15,10.51-3.44,17.64s5.9-9.13,6.07-9.55,0-20.05,0-20.05l1.64-12.23-.41-4.45-2.34,5.19-3.93,4.23Z" style="fill:#012940; stroke-width:0px;"/><polygon points="23.2 82.44 24.29 93.97 23.2 112.62 28.88 125.33 25.27 110.22 27.35 93.52 29.14 76.58 26.85 78.61 23.2 82.44" style="fill:#012940; stroke-width:0px;"/><polygon points="18.77 137.83 14.18 137.83 16.47 130.09 14.18 120.41 16.47 96.98 16.47 119.06 19.59 128.4 18.11 134.2 18.77 137.83" style="fill:#012940; stroke-width:0px;"/><polygon points="41.97 117.69 42.54 122.55 41.97 128.87 43.41 131.46 42.69 126.88 44.07 122.25 44.07 118.1 41.97 117.69" style="fill:#012940; stroke-width:0px;"/><polygon points="51.68 126.6 51.99 130.52 53.9 134.43 53.9 136.08 54.56 133.38 53.12 130.22 53.48 126.79 51.68 126.6" style="fill:#012940; stroke-width:0px;"/><polygon points="33.77 90.73 32.87 96.98 34.18 106.82 35.24 122.92 36.64 111.31 34.34 99.91 35.11 92.85 33.77 90.73" style="fill:#012940; stroke-width:0px;"/><polygon points="34.34 137.83 32.87 137.83 33.93 132.17 32.87 126.6 30.98 114.46 33.28 124.58 34.75 129.96 34.42 136.08 34.34 137.83" style="fill:#012940; stroke-width:0px;"/><polygon points="55.53 127 58.49 132.17 63.63 133.38 66.91 135.03 74.34 137.83 68.73 133.65 61.72 128.64 55.53 127" style="fill:#0987be; stroke-width:0px;"/><polygon points="47.83 118.82 48.77 123.88 50 128.11 50.94 133.25 53.9 134.43 51.99 130.52 51.68 126.6 51.68 121.08 47.83 118.82" style="fill:#0987be; stroke-width:0px;"/><polygon points="36.8 95.53 36.8 100.7 39.26 107.13 41.14 113.67 40.41 119.88 40.53 126.6 41.97 128.87 42.54 122.55 41.97 117.69 41.97 109.4 40.2 103.09 36.8 95.53" style="fill:#0987be; stroke-width:0px;"/><polygon points="31.35 77.2 30.37 81.58 31.06 89.87 30.98 100.08 33.36 108.09 34.83 116.72 34.18 106.82 32.87 96.98 33.77 90.73 32.79 84.59 33.44 82.22 31.35 77.2" style="fill:#0987be; stroke-width:0px;"/><polygon points="18.65 73.42 17.7 84.52 18.36 93.99 19.83 101.44 23.2 112.62 24.29 93.97 23.2 82.44 22.71 79.74 20.53 74.49 18.65 73.42" style="fill:#0987be; stroke-width:0px;"/><polygon points="6.64 112.32 2.21 107.47 0 101.19 0 85.25 4.22 93.1 6.64 112.32" style="fill:#0987be; stroke-width:0px;"/><path d="M68.67,137.83h29.19s-13.24-1.83-20.37-1.58-20.85,1.58-20.85,1.58h12.02Z" style="fill:#231f20; mix-blend-mode:screen; stroke-width:0px;"/><path d="M127.11,135.05c.2-.08.35-.17.35-.17l-1.4-.15s-.94-.25-1.4-.15c-.46.1-1.33.11-.55.44.75.31,2.04.22,2.59.13,0,0,.35-.09.4-.1Z" style="fill:#e6e7e8; mix-blend-mode:multiply; stroke-width:0px;"/><polygon points="126.69 135.16 126.71 135.15 126.7 135.16 126.69 135.16" style="fill:#e6e7e8; mix-blend-mode:multiply; stroke-width:0px;"/><path d="M127.46,134.88c-.79.3-2.25.26-2.25.26-.86-.08-1.06-.42-1.06-.42.21-.33.89-.53.89-.53.64.15,1.67.06,1.67.06.48.14.75.63.75.63Z" style="fill:#0987be; stroke-width:0px;"/><path d="M126.72,134.26s-1.03.08-1.67-.06c0,0,.32-.1,1.07-.04.66.05.61.1.61.1Z" style="fill:#3ba6d5; stroke-width:0px;"/><path d="M126.75,134.27c.19.17.51.5.38.71.12-.03.23-.06.33-.1,0,0-.25-.46-.71-.61Z" style="fill:#3ba6d5; stroke-width:0px;"/><path d="M125.66,134.2c.52.04.66,0,.68-.03-.06,0-.14-.01-.23-.02-.4-.03-.68-.02-.85,0,.11.02.24.03.4.04Z" style="fill:#3ba6d5; stroke-width:0px;"/><path d="M126.93,135.02c-.69.12-1.88.01-2.15-.3-.17-.2-.02-.37.11-.48-.21.08-.58.24-.73.47,0,0,.2.34,1.06.42,0,0,.93.02,1.71-.12Z" style="fill:#011825; stroke-width:0px;"/><path d="M198.03,154.04c.42-.16.74-.35.74-.35l-2.93-.31s-1.96-.52-2.93-.32c-.97.21-2.79.24-1.15.92,1.58.65,4.28.45,5.43.28,0,0,.74-.18.85-.21Z" style="fill:#e6e7e8; mix-blend-mode:multiply; stroke-width:0px;"/><path d="M197.16,154.26l.02-.02s-.01,0-.02.01c0,0,0,0,0,0Z" style="fill:#e6e7e8; mix-blend-mode:multiply; stroke-width:0px;"/><path d="M198.77,153.68c-1.66.63-4.72.55-4.72.55-1.8-.16-2.22-.88-2.22-.88.45-.69,1.87-1.11,1.87-1.11,1.34.31,3.51.13,3.51.13,1,.29,1.57,1.31,1.57,1.31Z" style="fill:#0987be; stroke-width:0px;"/><path d="M197.21,152.37s-2.17.18-3.51-.13c0,0,.67-.21,2.23-.09,1.39.11,1.27.22,1.27.22Z" style="fill:#3ba6d5; stroke-width:0px;"/><path d="M197.29,152.4c.4.35,1.08,1.04.79,1.49.25-.06.49-.13.7-.21,0,0-.53-.96-1.49-1.29Z" style="fill:#3ba6d5; stroke-width:0px;"/><path d="M194.99,152.25c1.1.07,1.38.01,1.42-.06-.13-.01-.29-.03-.47-.04-.85-.07-1.43-.03-1.79,0,.23.04.51.07.84.09Z" style="fill:#3ba6d5; stroke-width:0px;"/><path d="M197.64,153.98c-1.45.26-3.95.03-4.51-.63-.35-.41-.04-.78.24-1-.45.17-1.22.51-1.54.99,0,0,.42.72,2.22.88,0,0,1.95.05,3.59-.25Z" style="fill:#011825; stroke-width:0px;"/><path d="M90.88,149.9c1.1-.42,1.94-.93,1.94-.93l-7.68-.82s-5.14-1.37-7.69-.83c-2.55.54-7.31.63-3.02,2.4,4.14,1.71,11.22,1.19,14.23.74,0,0,1.93-.48,2.22-.56Z" style="fill:#e6e7e8; mix-blend-mode:multiply; stroke-width:0px;"/><path d="M88.59,150.5l.06-.04s-.04.02-.06.04c0,0,0,0,0,0Z" style="fill:#e6e7e8; mix-blend-mode:multiply; stroke-width:0px;"/><path d="M92.81,148.97c-4.36,1.64-12.36,1.43-12.36,1.43-4.72-.43-5.82-2.31-5.82-2.31,1.17-1.82,4.89-2.9,4.89-2.9,3.51.8,9.19.34,9.19.34,2.63.77,4.1,3.44,4.1,3.44Z" style="fill:#0d3056; stroke-width:0px;"/><path d="M88.71,145.53s-5.68.46-9.19-.34c0,0,1.76-.54,5.85-.23,3.64.28,3.33.57,3.33.57Z" style="fill:#3ba6d5; stroke-width:0px;"/><path d="M88.92,145.6c1.04.91,2.83,2.72,2.07,3.91.65-.15,1.27-.33,1.83-.54,0,0-1.4-2.53-3.9-3.37Z" style="fill:#3ba6d5; stroke-width:0px;"/><path d="M82.9,145.23c2.88.2,3.62.03,3.72-.15-.35-.04-.76-.07-1.24-.11-2.22-.17-3.75-.09-4.69.02.61.1,1.34.18,2.21.24Z" style="fill:#3ba6d5; stroke-width:0px;"/><path d="M89.86,149.75c-3.79.67-10.36.07-11.83-1.64-.92-1.07-.11-2.05.63-2.63-1.17.44-3.21,1.34-4.02,2.6,0,0,1.1,1.89,5.82,2.31,0,0,5.12.13,9.4-.65Z" style="fill:#011825; stroke-width:0px;"/><path d="M45.51,149.01c1.45-.56,2.56-1.23,2.56-1.23l-10.16-1.09s-6.8-1.81-10.17-1.1c-3.37.71-9.67.83-3.99,3.18,5.48,2.26,14.84,1.57,18.81.98,0,0,2.55-.63,2.94-.74Z" style="fill:#e6e7e8; mix-blend-mode:multiply; stroke-width:0px;"/><path d="M42.49,149.8l.08-.06s-.05.03-.08.05c0,0,0,0,0,0Z" style="fill:#e6e7e8; mix-blend-mode:multiply; stroke-width:0px;"/><path d="M48.07,147.79c-5.76,2.17-16.34,1.89-16.34,1.89-6.24-.56-7.7-3.06-7.7-3.06,1.55-2.4,6.46-3.83,6.46-3.83,4.64,1.06,12.15.45,12.15.45,3.48,1.01,5.43,4.55,5.43,4.55Z" style="fill:#0d3056; stroke-width:0px;"/><path d="M42.65,143.23s-7.51.61-12.15-.45c0,0,2.33-.72,7.74-.3,4.81.37,4.41.75,4.41.75Z" style="fill:#3ba6d5; stroke-width:0px;"/><path d="M42.92,143.33c1.38,1.2,3.74,3.6,2.73,5.18.86-.2,1.68-.44,2.42-.72,0,0-1.85-3.34-5.15-4.46Z" style="fill:#3ba6d5; stroke-width:0px;"/><path d="M34.96,142.83c3.81.26,4.79.04,4.91-.2-.47-.05-1-.1-1.64-.15-2.94-.23-4.96-.12-6.2.03.81.13,1.77.24,2.92.32Z" style="fill:#3ba6d5; stroke-width:0px;"/><path d="M44.16,148.81c-5.01.88-13.7.1-15.64-2.17-1.22-1.42-.15-2.7.83-3.47-1.55.58-4.24,1.77-5.32,3.44,0,0,1.46,2.5,7.7,3.06,0,0,6.77.18,12.43-.86Z" style="fill:#011825; stroke-width:0px;"/><path d="M229.73,144.83c2.73-1.04,4.81-2.3,4.81-2.3l-19.09-2.05s-12.77-3.41-19.11-2.07-18.17,1.56-7.5,5.97c10.29,4.25,27.88,2.95,35.36,1.84,0,0,4.8-1.19,5.53-1.39Z" style="fill:#e6e7e8; mix-blend-mode:multiply; stroke-width:0px;"/><path d="M224.05,146.32l.16-.1s-.1.06-.14.09c0,0,0,0-.01.01Z" style="fill:#e6e7e8; mix-blend-mode:multiply; stroke-width:0px;"/><path d="M234.54,142.53c-10.83,4.08-30.71,3.55-30.71,3.55-11.73-1.06-14.46-5.75-14.46-5.75,2.92-4.52,12.14-7.2,12.14-7.2,8.73,1.99,22.84.85,22.84.85,6.54,1.9,10.2,8.55,10.2,8.55Z" style="fill:#0d3056; stroke-width:0px;"/><path d="M224.35,133.97s-14.11,1.14-22.84-.85c0,0,4.38-1.35,14.55-.56,9.04.7,8.29,1.41,8.29,1.41Z" style="fill:#3ba6d5; stroke-width:0px;"/><path d="M224.86,134.15c2.59,2.26,7.02,6.77,5.13,9.73,1.62-.38,3.16-.83,4.55-1.35,0,0-3.47-6.28-9.68-8.38Z" style="fill:#3ba6d5; stroke-width:0px;"/><path d="M209.9,133.22c7.16.49,9,.08,9.24-.38-.88-.09-1.89-.18-3.08-.27-5.52-.43-9.32-.23-11.65.05,1.51.25,3.32.46,5.49.61Z" style="fill:#3ba6d5; stroke-width:0px;"/><path d="M227.19,144.46c-9.42,1.66-25.74.18-29.39-4.07-2.29-2.66-.27-5.08,1.57-6.53-2.91,1.08-7.97,3.33-10,6.47,0,0,2.74,4.69,14.46,5.75,0,0,12.72.33,23.36-1.62Z" style="fill:#011825; stroke-width:0px;"/><path d="M45.83,160h5.92l1.33-2.58,2.67-3.79,5.25-1.95,6.58-1.34s5.58,3.08,6.5,3.29c.92.21,8.58.96,9.83.96s7.2-.33,7.2-.33l-7.46-.28s-5.32-1.76-5.57-1.83c-.25-.06-4.75-.47-4.75-.47l-3.5-2.63-3.42-1.49,1.67-2.69,7.25-1.91,8.79-1.12h-9.04s-2.75.76-3.33,1.05c-.58.29-5,.76-5,.76l-2.33,1.63-2,2.3-4.58.39h-2.75l-3.5.56,1.83.54h3.24l-.4.76-3.75,1.1-1.75.31v2.42l-5.25.71h-7.23l-3.5.17s7.53,1.75,7.88,1.75,1.84,0,2.84-.42c1-.42,1.84-1.17,3.34-1.17s3-.25,3-.25l1.33-1.89.08,1.09-.83,1.46-3.25,1.5-3.33,3.42Z" style="fill:#011825; stroke-width:0px;"/><path d="M55,151.5l1.65-.58,2.22-1.4,2.94-.47,2.25-.8,2.31-2.82-1.38,3.62,2.88.47h-3.31l-3.56.82s-3.4.85-3.67,1.17c-.27.31-3.11,1.56-3.11,1.56l.78-1.56Z" style="fill:#010101; stroke-width:0px;"/><polygon points="0 139.12 0 141.83 2.88 140.59 7.88 140.59 12.87 140.59 19.88 142.35 24.03 142.35 30.49 140.74 39.25 141.83 45.5 141.83 39.87 140.74 33.62 139.82 29.2 139.12 25.78 140.59 21.06 140.74 16.5 139.82 17.98 139.78 19.88 138.88 22.12 138.47 19.81 138.47 17.12 138.97 14.34 139.16 9.38 139.69 6.66 139.66 4.06 139.59 2.53 139.53 .91 139.69 0 139.12" style="fill:#011825; stroke-width:0px;"/><path d="M109.12,140.41h-13.38l-4.88,1.91h5.69l5.31-.95,5.26.99,9.74,3.08,13.82.49s-3.11-.94-3.59-1.05-8.98-1.69-8.98-1.69l-4-.39-5-2.37Z" style="fill:#011825; stroke-width:0px;"/><path d="M250,131.75v5.06h-2.75l-4.12-1.06-3.5-2.31-5.08-1.12s-5.29-.19-5.67-.57-10.25-.5-10.25-.5h-7.62l15.25-.62h4.88l6.26,1,5.24,1.26,4.62,1.81,2.75-2.95Z" style="fill:#011825; stroke-width:0px;"/><path d="M205,150.33l6-1.95h13.36c.39,0,6.01-1.49,6.76-1.06.75.43,7.1-1.22,7.1-1.22l-4.1,2.11-5.88,1.52-1.5.59s4.92,2.11,5.58,2.2c.67.09,4.21,0,4.21,0l-4.84,1.36-4.51-.75-5.9-1.93-5.74-.88h-4.55l-6,1.35v-1.35Z" style="fill:#011825; stroke-width:0px;"/><polygon points="148.04 139.98 152.58 141.38 157.62 141.38 166.75 141.83 178.38 140.41 173.56 141.83 166.75 142.71 159.5 142.71 154.65 143.64 153.19 144.87 146 142.71 143.17 143.64 138.44 143.64 143.01 139.98 148.04 139.98" style="fill:#011825; stroke-width:0px;"/><rect width="250" height="160" style="fill:none; stroke-width:0px;"/></g></g></g></g></svg>