<svg xmlns="http://www.w3.org/2000/svg" viewBox="0 0 340 340"><g data-name="Layer 16"><path d="m166.132 145.4-12.759 7.655a45.1 45.1 0 0 1-14.36 5.552l-14.868 2.974a38.066 38.066 0 0 0-24.166 15.8 53.33 53.33 0 0 0-8.171 20.791 2.814 2.814 0 0 0 4.027 3.032 38.929 38.929 0 0 1 35.2-.2z" style="fill:#f76b99"/><path d="m227.889 207.152-7.655 12.759a45.1 45.1 0 0 0-5.552 14.36l-2.973 14.869a38.068 38.068 0 0 1-15.8 24.165 53.293 53.293 0 0 1-20.791 8.171 2.814 2.814 0 0 1-3.032-4.027 38.922 38.922 0 0 0 .2-35.2z" style="fill:#464965"/><path d="M311.34 61.944C185.447 55.543 131.035 201 131.035 201l28.7 28.7S297.6 204.157 311.34 61.944z" style="fill:#e4e8ff"/><path d="M135.915 278.623q.291-.344.572-.685c22.442-27.354-13.787-63.583-41.141-41.141q-.342.281-.685.573a65.948 65.948 0 0 0-18.8 32.213c-.814 3.326-1.684 6.636-2.771 9.884-2.517 7.52-7.2 20.525-12.737 31.055a1.782 1.782 0 0 0 2.409 2.409c10.53-5.532 23.537-10.22 31.056-12.737 3.248-1.086 6.557-1.957 9.883-2.771a65.946 65.946 0 0 0 32.214-18.8z" style="fill:#f76b99"/><circle cx="237.542" cy="128.839" r="27.428" style="fill:#464965"/><circle cx="237.542" cy="128.839" r="16.335" style="fill:#fff"/><path d="M55.328 88.931a38.32 38.32 0 0 1 58.52-48.4c11.3 19.239 10.755 37.88-9.221 51.98-17.997 10.729-37.337 10.669-49.299-3.58z" style="fill:#9fb2ed"/><path d="M125.931 73.236a38.256 38.256 0 0 0-12.09-32.694 40.089 40.089 0 0 1-58.5 48.384 38.311 38.311 0 0 0 70.6-15.69zM159.733 229.694l12.555 12.555s145.453-54.411 139.052-180.3c0-.005-17.702 117.894-151.607 167.745z" style="fill:#464965"/><path d="M141.353 78.518a3.124 3.124 0 0 1 .589.368c10.392 8.221 14.019 13.981 11.762 18.675-2.466 5.127-10.4 5.6-25.741 1.523-12.778-3.394-28.894-9.629-45.378-17.557S51.17 64.9 40.542 57.041C27.784 47.6 23.2 41.109 25.66 35.983c2.235-4.646 8.87-5.437 21.516-2.567a3.284 3.284 0 0 1 2.379 4.056 3.441 3.441 0 0 1-4.029 2.6c-9.3-2.112-12.747-1.489-13.786-1.132 1.331 4.622 19.4 19.84 53.824 36.393s57.591 21.172 62.036 19.326c-.375-1.05-2.082-4.2-9.806-10.313a3.439 3.439 0 0 1-.5-4.768 3.318 3.318 0 0 1 4.059-1.06z" style="fill:#464965"/><path d="M62.612 35.3a42.438 42.438 0 0 0-16.193 28.492 41.87 41.87 0 0 0 5.991 26.953c.038.061.088.133.141.2a41.579 41.579 0 0 0 30.406 19.229 42.631 42.631 0 0 0 5.007.3 41.766 41.766 0 0 0 41.379-36.835C131.2 58 122.947 31.582 92.889 27.265A40.023 40.023 0 0 0 62.612 35.3zm59.907 37.531a34.873 34.873 0 0 1-64.231 14.332 3.101 3.101 0 0 0-.133-.194A34.5 34.5 0 0 1 53.243 64.6 35.525 35.525 0 0 1 66.8 40.75a33.221 33.221 0 0 1 25.113-6.683c28.26 4.059 31.647 29.997 30.606 38.764zM311.515 58.512a152.175 152.175 0 0 0-83.134 19.458c-20.551 11.477-39.746 27.934-57.054 48.913-5.762 6.983-10.906 13.971-15.473 20.71-.1.046-.2.081-.292.137l-3.956 2.374a41.566 41.566 0 0 1-13.267 5.128l-14.868 2.974a41.777 41.777 0 0 0-26.339 17.246c-5.383 7.967-8.589 17.525-9.53 28.41a3.44 3.44 0 0 0 5.568 2.979 35.187 35.187 0 0 1 35.579-3.119c.075.034.153.049.229.077l40.436 40.436c9.268 20.068-2.462 35.238-2.964 35.87a3.436 3.436 0 0 0 2.676 5.59c.1 0 .2 0 .3-.013 10.884-.94 20.442-4.147 28.408-9.53a41.769 41.769 0 0 0 17.247-26.338l2.974-14.869a41.536 41.536 0 0 1 5.129-13.266l2.369-3.949c.058-.1.093-.2.141-.3 6.739-4.567 13.727-9.712 20.71-15.473 20.979-17.308 37.436-36.5 48.913-57.054a152.188 152.188 0 0 0 19.455-83.133 3.032 3.032 0 0 0-3.257-3.258zM95.419 197.555a49.527 49.527 0 0 1 7.407-18.255 34.851 34.851 0 0 1 21.993-14.355l14.868-2.974a48.524 48.524 0 0 0 8.558-2.557 277.367 277.367 0 0 0-19.092 37.031 41.866 41.866 0 0 0-33.734 1.11zm81.333-66.449C213.943 86.1 257.825 63.968 307.2 65.234c-1.946 9-8.239 32.949-24.565 60.406-18.837 31.683-55.279 74.59-122.054 100.043l-25.518-25.517a285.182 285.182 0 0 1 41.689-69.06zM211.313 233.6l-2.974 14.869a34.848 34.848 0 0 1-14.355 21.992 49.519 49.519 0 0 1-18.252 7.407 41.841 41.841 0 0 0 1.109-33.735 277.231 277.231 0 0 0 37.029-19.09 48.488 48.488 0 0 0-2.557 8.557zm30.866-37.065a285.2 285.2 0 0 1-69.06 41.688L165.9 231c66.942-26.337 103.687-69.858 122.81-102.121a230.309 230.309 0 0 0 17.855-37.335c-5.711 39.102-27.265 74.318-64.386 104.988z" style="fill:#464965"/></g></svg>