<?xml version="1.0" encoding="UTF-8"?><svg id="Layer_2" xmlns="http://www.w3.org/2000/svg" viewBox="0 0 250 160"><g id="Layer_1-2"><g id="Moutain_Range_-_Close"><rect y="115.65" width="250" height="16.92" style="fill:#042f42; stroke-width:0px;"/><path d="M0,102.44v11.4c51.5,3.84,94.5,6.02,172.82,0-4.77-1.27-11.61-3.32-13.56-3.32h-13.82c-1.36,0-3.87,0-6.13-.21-1.16-.1-2.26-.26-3.11-.5-2.51-.71-9.15-1.41-11.2-1.97-2.05-.56-10.33-.99-13.02-.99s-6.01-1.4-7.18-1.82c-1.16-.43-7.09-.7-9.87.14-2.78.86-4.93-.42-6.64-.7-1.71-.28-4.58-.28-5.92-.66s-4.48,1.09-6.46.95c-1.97-.15-5.2.42-7.99.71-2.78.27-2.96.7-5.02,0-2.06-.71-5.11-1.27-6.82-1.42-1.7-.14-3.85,0-6.37,0s-3.32-.14-7.53-1.44c-4.21-1.32-3.59.18-6.72-.64-3.14-.83-6.1,1.38-9.16.36-3.04-1.02-9.24.46-10.94.11-1.71-.34-6.46.21-9.6.07-1.74-.08-4.05-.07-5.78-.06Z" style="fill:#185882; stroke-width:0px;"/><polygon points="145.03 110.25 144.29 108.15 144.84 108.15 144.84 108.14 144.84 108.14 143.9 105.57 144.3 105.57 144.3 105.57 144.3 105.57 143.4 102.7 142.49 105.57 142.9 105.57 142.9 105.57 142.9 105.57 142.9 105.57 142.16 107.57 141.96 108.14 141.96 108.14 141.95 108.15 142.51 108.15 141.76 110.25 143.24 110.25 143.24 111.96 143.56 111.96 143.56 110.25 145.03 110.25" style="fill:#185882; stroke-width:0px;"/><polygon points="135.66 109.63 134.92 107.53 135.47 107.53 135.47 107.51 135.47 107.51 134.53 104.94 134.93 104.94 134.93 104.94 134.93 104.94 134.03 102.08 133.12 104.94 133.53 104.94 133.53 104.94 133.53 104.94 133.53 104.94 132.79 106.94 132.59 107.51 132.59 107.51 132.58 107.53 133.14 107.53 132.39 109.63 133.87 109.63 133.87 111.33 134.19 111.33 134.19 109.63 135.66 109.63" style="fill:#185882; stroke-width:0px;"/><polygon points="57.05 103.97 56.31 101.87 56.86 101.87 56.86 101.86 56.86 101.86 55.92 99.29 56.32 99.29 56.32 99.29 56.32 99.29 55.42 96.42 54.51 99.29 54.92 99.29 54.92 99.29 54.92 99.29 54.92 99.29 54.18 101.29 53.98 101.86 53.98 101.86 53.97 101.87 54.52 101.87 53.78 103.97 55.26 103.97 55.26 105.68 55.57 105.68 55.57 103.97 57.05 103.97" style="fill:#185882; stroke-width:0px;"/><polygon points="75.98 106.52 75.24 104.42 75.79 104.42 75.79 104.41 75.79 104.41 74.85 101.83 75.25 101.83 75.25 101.83 75.25 101.83 74.35 98.97 73.44 101.83 73.85 101.83 73.84 101.83 73.84 101.83 73.84 101.83 73.11 103.84 72.9 104.41 72.9 104.41 72.9 104.42 73.45 104.42 72.71 106.52 74.19 106.52 74.19 108.23 74.5 108.23 74.5 106.52 75.98 106.52" style="fill:#185882; stroke-width:0px;"/><polygon points="151.49 110.25 150.75 108.15 151.3 108.15 151.3 108.14 151.3 108.14 150.35 105.57 150.76 105.57 150.76 105.57 150.76 105.57 149.85 102.7 148.95 105.57 149.35 105.57 149.35 105.57 149.35 105.57 149.35 105.57 148.62 107.57 148.41 108.14 148.41 108.14 148.41 108.15 148.96 108.15 148.22 110.25 149.7 110.25 149.7 111.96 150.01 111.96 150.01 110.25 151.49 110.25" style="fill:#185882; stroke-width:0px;"/><polygon points="163.3 112.83 162.56 110.73 163.11 110.73 163.11 110.71 163.11 110.71 162.17 108.14 162.57 108.14 162.57 108.14 162.57 108.14 161.67 105.27 160.76 108.14 161.17 108.14 161.17 108.14 161.17 108.14 161.17 108.14 160.43 110.14 160.22 110.71 160.22 110.71 160.22 110.73 160.77 110.73 160.03 112.83 161.51 112.83 161.51 114.53 161.82 114.53 161.82 112.83 163.3 112.83" style="fill:#185882; stroke-width:0px;"/><polygon points="179.47 114.12 178.73 112.02 179.28 112.02 179.28 112.01 179.28 112.01 178.33 109.44 178.74 109.44 178.74 109.44 178.74 109.44 177.83 106.57 176.93 109.44 177.33 109.44 177.33 109.44 177.33 109.44 177.33 109.44 176.6 111.44 176.39 112.01 176.39 112.01 176.39 112.02 176.94 112.02 176.2 114.12 177.68 114.12 177.68 115.83 177.99 115.83 177.99 114.12 179.47 114.12" style="fill:#185882; stroke-width:0px;"/><polygon points="192.64 116.28 191.89 114.18 192.45 114.18 192.44 114.17 192.44 114.17 191.5 111.6 191.91 111.6 191.91 111.6 191.91 111.6 191 108.73 190.1 111.6 190.5 111.6 190.5 111.6 190.5 111.6 190.5 111.6 189.77 113.6 189.56 114.17 189.56 114.17 189.56 114.18 190.11 114.18 189.37 116.28 190.84 116.28 190.84 117.99 191.16 117.99 191.16 116.28 192.64 116.28" style="fill:#185882; stroke-width:0px;"/><polygon points="206.04 115.01 205.3 112.91 205.85 112.91 205.85 112.9 205.85 112.9 204.91 110.33 205.31 110.33 205.31 110.33 205.31 110.33 204.41 107.46 203.5 110.33 203.91 110.33 203.91 110.33 203.91 110.33 203.91 110.33 203.17 112.33 202.97 112.9 202.97 112.9 202.96 112.91 203.51 112.91 202.77 115.01 204.25 115.01 204.25 116.72 204.56 116.72 204.56 115.01 206.04 115.01" style="fill:#185882; stroke-width:0px;"/><polygon points="153.23 110.73 152.84 109.61 153.13 109.61 153.13 109.6 153.13 109.6 152.63 108.23 152.84 108.23 152.84 108.23 152.84 108.23 152.36 106.7 151.88 108.23 152.1 108.23 152.1 108.23 152.1 108.23 152.1 108.23 151.7 109.3 151.59 109.6 151.59 109.6 151.59 109.61 151.89 109.61 151.49 110.73 152.28 110.73 152.28 111.64 152.45 111.64 152.45 110.73 153.23 110.73" style="fill:#185882; stroke-width:0px;"/><polygon points="165.48 112.28 165.09 111.16 165.38 111.16 165.38 111.15 165.38 111.15 164.88 109.78 165.09 109.78 165.09 109.78 165.09 109.78 164.61 108.26 164.13 109.78 164.35 109.78 164.35 109.78 164.35 109.78 164.35 109.78 163.95 110.85 163.84 111.15 163.84 111.15 163.84 111.16 164.14 111.16 163.74 112.28 164.53 112.28 164.53 113.19 164.7 113.19 164.7 112.28 165.48 112.28" style="fill:#185882; stroke-width:0px;"/><polygon points="173.69 113.84 173.3 112.72 173.59 112.72 173.59 112.71 173.59 112.71 173.09 111.34 173.3 111.34 173.3 111.34 173.3 111.34 172.82 109.81 172.34 111.34 172.55 111.34 172.55 111.34 172.55 111.34 172.55 111.34 172.16 112.41 172.05 112.71 172.05 112.71 172.05 112.72 172.35 112.72 171.95 113.84 172.74 113.84 172.74 114.75 172.91 114.75 172.91 113.84 173.69 113.84" style="fill:#185882; stroke-width:0px;"/><polygon points="184.98 114.37 184.58 113.25 184.88 113.25 184.88 113.24 184.88 113.24 184.37 111.87 184.59 111.87 184.59 111.87 184.59 111.87 184.11 110.35 183.63 111.87 183.84 111.87 183.84 111.87 183.84 111.87 183.84 111.87 183.45 112.94 183.34 113.24 183.34 113.24 183.34 113.25 183.63 113.25 183.24 114.37 184.02 114.37 184.02 115.28 184.19 115.28 184.19 114.37 184.98 114.37" style="fill:#185882; stroke-width:0px;"/><polygon points="201.31 114.37 200.92 113.25 201.21 113.25 201.21 113.24 201.21 113.24 200.71 111.87 200.92 111.87 200.92 111.87 200.92 111.87 200.44 110.35 199.96 111.87 200.17 111.87 200.17 111.87 200.17 111.87 200.17 111.87 199.78 112.94 199.67 113.24 199.67 113.24 199.67 113.25 199.97 113.25 199.57 114.37 200.36 114.37 200.36 115.28 200.53 115.28 200.53 114.37 201.31 114.37" style="fill:#185882; stroke-width:0px;"/><polygon points="70.73 106.83 70.33 105.71 70.62 105.71 70.62 105.71 70.62 105.71 70.12 104.34 70.34 104.34 70.34 104.34 70.34 104.34 69.85 102.81 69.37 104.34 69.59 104.34 69.59 104.34 69.59 104.34 69.59 104.34 69.2 105.4 69.09 105.71 69.09 105.71 69.08 105.71 69.38 105.71 68.98 106.83 69.77 106.83 69.77 107.74 69.94 107.74 69.94 106.83 70.73 106.83" style="fill:#185882; stroke-width:0px;"/><polygon points="65.81 106.83 65.41 105.71 65.71 105.71 65.71 105.71 65.71 105.71 65.2 104.34 65.42 104.34 65.42 104.34 65.42 104.34 64.94 102.81 64.46 104.34 64.67 104.34 64.67 104.34 64.67 104.34 64.67 104.34 64.28 105.4 64.17 105.71 64.17 105.71 64.17 105.71 64.46 105.71 64.07 106.83 64.85 106.83 64.85 107.74 65.02 107.74 65.02 106.83 65.81 106.83" style="fill:#185882; stroke-width:0px;"/><polygon points="59.71 105.52 59.31 104.4 59.61 104.4 59.6 104.39 59.6 104.39 59.1 103.02 59.32 103.02 59.32 103.02 59.32 103.02 58.83 101.5 58.35 103.02 58.57 103.02 58.57 103.02 58.57 103.02 58.57 103.02 58.18 104.09 58.07 104.39 58.07 104.39 58.06 104.4 58.36 104.4 57.96 105.52 58.75 105.52 58.75 106.43 58.92 106.43 58.92 105.52 59.71 105.52" style="fill:#185882; stroke-width:0px;"/><polygon points="81.54 104.37 81.14 103.25 81.44 103.25 81.44 103.24 81.44 103.24 80.93 101.87 81.15 101.87 81.15 101.87 81.15 101.87 80.67 100.34 80.19 101.87 80.4 101.87 80.4 101.87 80.4 101.87 80.4 101.87 80.01 102.94 79.9 103.24 79.9 103.24 79.9 103.25 80.19 103.25 79.8 104.37 80.58 104.37 80.58 105.27 80.75 105.27 80.75 104.37 81.54 104.37" style="fill:#185882; stroke-width:0px;"/><polygon points="157.67 111.85 157.28 110.73 157.57 110.73 157.57 110.73 157.57 110.73 157.07 109.35 157.28 109.35 157.28 109.35 157.28 109.35 156.8 107.83 156.32 109.35 156.54 109.35 156.54 109.35 156.54 109.35 156.54 109.35 156.15 110.42 156.03 110.73 156.03 110.73 156.03 110.73 156.33 110.73 155.93 111.85 156.72 111.85 156.72 112.76 156.89 112.76 156.89 111.85 157.67 111.85" style="fill:#185882; stroke-width:0px;"/><polygon points="196.15 114.74 195.75 113.63 196.05 113.63 196.04 113.62 196.04 113.62 195.54 112.25 195.76 112.25 195.76 112.25 195.76 112.25 195.28 110.72 194.79 112.25 195.01 112.25 195.01 112.25 195.01 112.25 195.01 112.25 194.62 113.32 194.51 113.62 194.51 113.62 194.51 113.63 194.8 113.63 194.41 114.74 195.19 114.74 195.19 115.65 195.36 115.65 195.36 114.74 196.15 114.74" style="fill:#185882; stroke-width:0px;"/><polygon points="207.85 115.25 207.46 114.13 207.75 114.13 207.75 114.12 207.75 114.12 207.25 112.75 207.47 112.75 207.47 112.75 207.47 112.75 206.98 111.23 206.5 112.75 206.72 112.75 206.72 112.75 206.72 112.75 206.72 112.75 206.33 113.82 206.22 114.12 206.22 114.12 206.21 114.13 206.51 114.13 206.11 115.25 206.9 115.25 206.9 116.16 207.07 116.16 207.07 115.25 207.85 115.25" style="fill:#185882; stroke-width:0px;"/><polygon points="79.35 104.37 78.95 103.25 79.25 103.25 79.24 103.24 79.24 103.24 78.74 101.87 78.96 101.87 78.96 101.87 78.96 101.87 78.48 100.34 77.99 101.87 78.21 101.87 78.21 101.87 78.21 101.87 78.21 101.87 77.82 102.94 77.71 103.24 77.71 103.24 77.7 103.25 78 103.25 77.6 104.37 78.39 104.37 78.39 105.27 78.56 105.27 78.56 104.37 79.35 104.37" style="fill:#185882; stroke-width:0px;"/><polygon points="50.58 104.37 50.18 103.25 50.48 103.25 50.48 103.24 50.48 103.24 49.98 101.87 50.19 101.87 50.19 101.87 50.19 101.87 49.71 100.34 49.23 101.87 49.44 101.87 49.44 101.87 49.44 101.87 49.44 101.87 49.05 102.94 48.94 103.24 48.94 103.24 48.94 103.25 49.23 103.25 48.84 104.37 49.63 104.37 49.63 105.27 49.79 105.27 49.79 104.37 50.58 104.37" style="fill:#185882; stroke-width:0px;"/><polygon points="47.83 104.37 47.43 103.25 47.73 103.25 47.72 103.24 47.72 103.24 47.22 101.87 47.44 101.87 47.44 101.87 47.44 101.87 46.96 100.34 46.47 101.87 46.69 101.87 46.69 101.87 46.69 101.87 46.69 101.87 46.3 102.94 46.19 103.24 46.19 103.24 46.19 103.25 46.48 103.25 46.09 104.37 46.87 104.37 46.87 105.27 47.04 105.27 47.04 104.37 47.83 104.37" style="fill:#185882; stroke-width:0px;"/><polygon points="41.97 103.32 41.57 102.2 41.87 102.2 41.86 102.19 41.86 102.19 41.36 100.82 41.58 100.82 41.58 100.82 41.58 100.82 41.1 99.29 40.61 100.82 40.83 100.82 40.83 100.82 40.83 100.82 40.83 100.82 40.44 101.89 40.33 102.19 40.33 102.19 40.33 102.2 40.62 102.2 40.22 103.32 41.01 103.32 41.01 104.23 41.18 104.23 41.18 103.32 41.97 103.32" style="fill:#185882; stroke-width:0px;"/><path d="M60.5,117.85c3.67.7,27.17,1.51,28.83,3.27,1.67,1.77,45.83,1.77,49.17,2.43,3.33.66-15.33.88-11.83,3.97,3.5,3.08,48,.23,54.5-.18,6.5-.41,19.17.63,28.67-.07,9.5-.7,23.83-.4,26.83,0s13.33-1.07,13.33-1.07v-12.59H53.22c-9.9,3.16,3.9,3.59,7.28,4.24Z" style="fill:#185882; stroke-width:0px;"/><polygon points="145.97 114.65 75.41 114.65 75.41 107.83 79.07 106.34 82.8 100.3 85.9 99.12 88.08 95.75 93.74 91.5 96.19 90.41 97.32 89.02 99.19 89.02 101.02 91.57 103.64 95.04 106.01 93.18 107.43 90.9 110.81 87.66 112.35 86.4 113.49 86.87 114.8 89.17 115.09 90.36 117.3 88.68 118.68 87.79 120.02 88.06 121.28 90.26 120.88 91.3 121.48 94 123.31 96.1 125.36 99.41 126.43 102.19 126.43 105.82 129.96 106.32 132.29 107.31 132.29 109.73 134.61 109.9 138.35 110.62 141.81 112.4 145.97 114.65" style="fill:#185882; stroke-width:0px;"/><path d="M103.64,95.04l.77,3.82.69,4.61-2.08,7.74s3.56-4.01,3.66-4.19c.1-.18,0-8.79,0-8.79l.99-5.37-.25-1.95-1.41,2.28-2.38,1.86Z" style="fill:#134769; stroke-width:0px;"/><polygon points="88.08 95.75 87.12 100.53 86.66 109.73 85.93 112.17 85.93 108.68 84.61 103 82.8 100.3 85.9 99.12 88.08 95.75" style="fill:#134769; stroke-width:0px;"/><polygon points="115.09 90.36 115.75 95.42 115.09 103.6 118.52 109.17 116.35 102.54 117.6 95.22 118.68 87.79 117.3 88.68 115.09 90.36" style="fill:#134769; stroke-width:0px;"/><polygon points="112.42 114.65 109.65 114.65 111.04 111.26 109.65 107.01 111.04 96.74 111.04 106.42 112.92 110.52 112.03 113.06 112.42 114.65" style="fill:#134769; stroke-width:0px;"/><polygon points="97.48 114.65 92.73 114.65 93.92 109.9 95.6 101.88 95.5 93.52 97.48 102.69 95.99 108.61 96.59 112.17 97.48 114.65" style="fill:#134769; stroke-width:0px;"/><polygon points="79.07 106.34 78.28 108.71 78.51 110.95 79.8 113.36 77.45 110.95 76.79 109.01 75.41 107.83 79.07 106.34" style="fill:#134769; stroke-width:0px;"/><polygon points="126.43 105.82 126.77 107.95 126.43 110.72 127.3 111.86 126.86 109.85 127.69 107.82 127.69 106 126.43 105.82" style="fill:#134769; stroke-width:0px;"/><polygon points="132.29 109.73 132.48 111.45 133.63 113.16 133.63 113.89 134.03 112.7 133.16 111.32 133.38 109.81 132.29 109.73" style="fill:#0987be; stroke-width:0px;"/><polygon points="121.48 94 120.93 96.74 121.72 101.05 122.37 108.12 123.21 103.02 121.82 98.02 122.29 94.93 121.48 94" style="fill:#134769; stroke-width:0px;"/><polygon points="121.82 114.65 120.93 114.65 121.58 112.17 120.93 109.73 119.79 104.41 121.18 108.84 122.07 111.2 121.87 113.89 121.82 114.65" style="fill:#134769; stroke-width:0px;"/><polygon points="97.32 89.02 97.32 92.84 98.27 98.19 98.93 100.53 97.32 97.46 96.69 92.98 96.19 90.41 97.32 89.02" style="fill:#134769; stroke-width:0px;"/><polygon points="134.61 109.9 136.4 112.17 139.5 112.7 141.48 113.43 145.97 114.65 142.58 112.82 138.35 110.62 134.61 109.9" style="fill:#134769; stroke-width:0px;"/><polygon points="129.96 106.32 130.53 108.54 131.27 110.39 131.84 112.64 133.63 113.16 132.48 111.45 132.29 109.73 132.29 107.31 129.96 106.32" style="fill:#134769; stroke-width:0px;"/><polygon points="123.31 96.1 123.31 98.37 124.79 101.19 125.93 104.06 125.48 106.78 125.56 109.73 126.43 110.72 126.77 107.95 126.43 105.82 126.43 102.19 125.36 99.41 123.31 96.1" style="fill:#0987be; stroke-width:0px;"/><polygon points="120.02 88.06 119.42 89.98 119.84 93.62 119.79 98.1 121.23 101.61 122.12 105.4 121.72 101.05 120.93 96.74 121.48 94 120.88 91.3 121.28 90.26 120.02 88.06" style="fill:#0987be; stroke-width:0px;"/><polygon points="112.35 86.4 111.78 91.27 112.17 95.42 113.06 98.69 115.09 103.6 115.75 95.42 115.09 90.36 114.8 89.17 113.49 86.87 112.35 86.4" style="fill:#0987be; stroke-width:0px;"/><polygon points="99.19 89.02 98.47 91.94 100.05 96.44 102.43 101.34 105.1 103.47 103.64 95.04 99.19 89.02" style="fill:#0987be; stroke-width:0px;"/><polygon points="93.74 91.5 92.33 96.74 92.73 102.13 91.09 110.29 90.8 101.78 89.91 96.74 92.07 92.76 93.74 91.5" style="fill:#134769; stroke-width:0px;"/><rect width="250" height="160" style="fill:none; stroke-width:0px;"/><path d="M0,113.61v8.08c5.88-1.13,20.89,4.03,24.17,3.52,3.5-.55,22.67,1.33,25.54.55,2.88-.77,31.46,3.2,38.04,3.17,6.58-.03,19.92-.19,19.81-.63-.1-.44-3.31-1.6-8.94-1.03-5.62.57-23.38-.07-32.5-4.05-9.12-3.98-26.12-2.48-21.5-5.37s-19.38-2.75-19.38-2.75l1.43-1.49H0Z" style="fill:#185882; stroke-width:0px;"/></g></g></svg>