<?xml version="1.0" encoding="UTF-8"?><svg xmlns="http://www.w3.org/2000/svg" xmlns:xlink="http://www.w3.org/1999/xlink" viewBox="0 0 250 160"><defs><style>.cls-1{fill:#d88002;}.cls-1,.cls-2,.cls-3,.cls-4,.cls-5,.cls-6,.cls-7,.cls-8,.cls-9,.cls-10,.cls-11,.cls-12,.cls-13,.cls-14,.cls-15,.cls-16,.cls-17,.cls-18,.cls-19,.cls-20,.cls-21,.cls-22,.cls-23,.cls-24,.cls-25,.cls-26,.cls-27,.cls-28,.cls-29,.cls-30,.cls-31,.cls-32,.cls-33,.cls-34,.cls-35,.cls-36,.cls-37,.cls-38,.cls-39,.cls-40,.cls-41,.cls-42,.cls-43,.cls-44,.cls-45{stroke-width:0px;}.cls-2{fill:#e84700;}.cls-3{fill:#3ba6d5;}.cls-4{fill:#31221b;}.cls-5{fill:#00bdbf;}.cls-6{fill:#0d3056;}.cls-7{fill:#ffd037;}.cls-8{fill:url(#White_Black_2);}.cls-46{isolation:isolate;}.cls-9{fill:#141313;}.cls-9,.cls-25,.cls-47,.cls-40{mix-blend-mode:screen;}.cls-10{fill:#0987be;}.cls-11{fill:#1689c8;}.cls-12{fill:#cfdef5;}.cls-13{fill:#134769;}.cls-14{fill:#afc0d9;}.cls-15{fill:#d1d3d4;}.cls-16{fill:#00e8eb;}.cls-17{fill:#9a8c85;}.cls-18{fill:#feee2f;}.cls-19{fill:#00e0e3;}.cls-20{fill:#f9a303;}.cls-21{fill:#b9cbe6;}.cls-22{fill:#573f34;}.cls-23{fill:#012940;}.cls-24{fill:#010101;}.cls-25{fill:#111010;}.cls-26{fill:#f79537;}.cls-27{fill:#a5b5cc;}.cls-28{fill:url(#radial-gradient-2);}.cls-29{fill:#fdd15d;}.cls-30{fill:#fee39e;}.cls-31{fill:url(#radial-gradient);}.cls-32{fill:#bcb2ae;}.cls-33{fill:#bf7102;}.cls-34{fill:#185882;}.cls-35{fill:#8a5100;}.cls-36{fill:#d94809;}.cls-37{fill:#c3d6f3;}.cls-38{fill:#808285;}.cls-39{fill:#e6e7e8;}.cls-39,.cls-48{mix-blend-mode:multiply;}.cls-40{fill:#231f20;}.cls-49{mask:url(#mask-1);}.cls-50{mask:url(#mask);}.cls-41{fill:#f55e1b;}.cls-42{fill:#011825;}.cls-43{fill:#fdc534;}.cls-44{fill:#00d1d4;}.cls-45{fill:#fd6e03;}</style><radialGradient id="radial-gradient" cx="200.33" cy="7.67" fx="200.33" fy="7.67" r="138.48" gradientUnits="userSpaceOnUse"><stop offset="0" stop-color="#00c3e7"/><stop offset="1" stop-color="#010717"/></radialGradient><linearGradient id="White_Black_2" x1="53.06" y1="34.33" x2="53.06" y2="61.19" gradientUnits="userSpaceOnUse"><stop offset="0" stop-color="#fff"/><stop offset="1" stop-color="#231f20"/></linearGradient><mask id="mask" x="32.65" y="41.47" width="40.82" height="26.39" maskUnits="userSpaceOnUse"><path class="cls-8" d="M63.12,55.83c0,.06-.02.13-.03.19.06-.58.08-1.18.04-1.79-.03-.37-.08-.74-.14-1.1,0,0,0,0,0,0,0-.02-.01-.04-.02-.07-.08-.4-.18-.79-.3-1.16-.02-.05-.02-.11-.04-.16,0,0,0,0-.01,0-1.44-4.24-5.59-7.16-10.26-6.82-.18.01-.35.04-.53.06,0,0,0,0,0-.01-.06,0-.11.03-.17.03-.29.04-.57.1-.85.16,0,0,0,0,.01,0-.04,0-.08.02-.12.03-.04,0-.07.02-.11.03-.04,0-.07.01-.11.02,0,0,0,0,0,0-.16.04-.32.1-.48.15-.04.01-.07.02-.11.04-.74.25-1.45.58-2.1.98.03-.02.06-.05.1-.07-7.85-4.07-14.03-5.92-15.07-4.25-1.03,1.66,3.28,6.31,10.29,11.49,0,0,0,0,0,0,0,.03-.01.06-.02.09h0c-.02.17-.03.33-.04.5-.01.17-.03.33-.04.5,0,.34,0,.68.02,1.03.4,5.55,5.23,9.73,10.78,9.33,0,0,.01,0,.02,0,0,0,.01,0,.02,0,.05,0,.1-.02.15-.02.32-.03.64-.07.95-.13.03,0,.06,0,.09-.01.16-.03.32-.08.48-.12.17-.04.33-.08.49-.13.22-.07.44-.14.66-.22.09-.04.19-.08.28-.11.56-.23,1.1-.49,1.6-.81-.02,0-.03,0-.05,0,.1-.06.19-.13.28-.2,0,0,0,0,0,0,7.59,3.87,13.52,5.6,14.53,3.97,1.03-1.65-3.24-6.26-10.19-11.41ZM62.21,59.22s0-.02.01-.03c.05-.11.1-.23.15-.35.04-.09.08-.18.11-.27-.03.07-.05.14-.08.21,1.3,1.22,1.95,2.15,1.69,2.56-.25.4-1.33.25-2.95-.35,0,0,0,0,0,0,.41-.55.77-1.14,1.07-1.77,0,0,0,0,0,0ZM62.67,58.03s.01-.04.02-.06c0,0,0,0,0,0,0,.02-.01.04-.02.06ZM62.6,58.28s-.02.06-.03.09c0,0,0-.02,0-.03,0-.02.02-.04.03-.06ZM44.01,50.57c-1.71-1.5-2.62-2.65-2.32-3.13.3-.48,1.78-.17,3.94.74.04-.05.09-.09.14-.14,0,0,0,0,0,0-.71.75-1.3,1.6-1.76,2.53,0,0,0,0,0,0ZM62.77,57.69s0,0,0,0c.04-.14.09-.28.12-.43,0,0,0,.01,0,.02-.03.14-.08.27-.12.41ZM45.87,47.94s-.03.03-.05.04c.1-.11.2-.21.31-.32.16-.16.33-.31.51-.45.06-.05.13-.1.19-.15-.34.27-.66.57-.96.88ZM62.98,56.87c-.02.13-.05.25-.08.38.05-.21.08-.43.12-.64-.01.09-.02.18-.04.26ZM47.18,46.8c-.06.05-.13.09-.19.13,0,0,0,0,0,0,0,0-.02.02-.03.02-.03.02-.05.04-.08.06.03-.02.05-.04.08-.06.07-.05.15-.1.22-.15Z"/></mask><radialGradient id="radial-gradient-2" cx="191.92" cy="32.1" fx="191.92" fy="32.1" r="31.24" gradientUnits="userSpaceOnUse"><stop offset="0" stop-color="#fff"/><stop offset=".81" stop-color="#414141"/><stop offset=".91" stop-color="#000"/></radialGradient><mask id="mask-1" x="160.68" y=".86" width="62.49" height="62.49" maskUnits="userSpaceOnUse"><circle class="cls-28" cx="191.92" cy="32.1" r="31.24"/></mask></defs><g class="cls-46"><g id="Layer_2"><g id="Layer_1-2"><g id="Stars"><rect class="cls-31" width="250" height="160"/><g class="cls-47"><path class="cls-38" d="M60.2,23.91c-.22.04-.24.25-.24.25,0,0-.02-.21-.24-.25.22-.04.24-.25.24-.25,0,0,.02.21.24.25Z"/><path class="cls-38" d="M59.09,28c-.22.04-.24.25-.24.25,0,0-.02-.21-.24-.25.22-.04.24-.25.24-.25,0,0,.02.21.24.25Z"/><path class="cls-38" d="M61.65,48.62c-.22.04-.24.25-.24.25,0,0-.02-.21-.24-.25.22-.04.24-.25.24-.25,0,0,.02.21.24.25Z"/><path class="cls-38" d="M69.46,60.54c-.22.04-.24.25-.24.25,0,0-.02-.21-.24-.25.22-.04.24-.25.24-.25,0,0,.02.21.24.25Z"/><path class="cls-38" d="M69.22,75.1c-.22.04-.24.25-.24.25,0,0-.02-.21-.24-.25.22-.04.24-.25.24-.25,0,0,.02.21.24.25Z"/><path class="cls-38" d="M75.46,85.01c-.22.04-.24.25-.24.25,0,0-.02-.21-.24-.25.22-.04.24-.25.24-.25,0,0,.02.21.24.25Z"/><path class="cls-38" d="M73.46,100.87c-.22.04-.24.25-.24.25,0,0-.02-.21-.24-.25.22-.04.24-.25.24-.25,0,0,.02.21.24.25Z"/><path class="cls-38" d="M74.59,120.04c-.22.04-.24.25-.24.25,0,0-.02-.21-.24-.25.22-.04.24-.25.24-.25,0,0,.02.21.24.25Z"/><path class="cls-38" d="M60.73,111.83c-.22.04-.24.25-.24.25,0,0-.02-.21-.24-.25.22-.04.24-.25.24-.25,0,0,.02.21.24.25Z"/><path class="cls-38" d="M50.04,104.4c-.22.04-.24.25-.24.25,0,0-.02-.21-.24-.25.22-.04.24-.25.24-.25,0,0,.02.21.24.25Z"/><path class="cls-38" d="M41.2,98.95c-.22.04-.24.25-.24.25,0,0-.02-.21-.24-.25.22-.04.24-.25.24-.25,0,0,.02.21.24.25Z"/><path class="cls-38" d="M31.49,101.87c-.22.04-.24.25-.24.25,0,0-.02-.21-.24-.25.22-.04.24-.25.24-.25,0,0,.02.21.24.25Z"/><path class="cls-38" d="M22.74,100.62c-.22.04-.24.25-.24.25,0,0-.02-.21-.24-.25.22-.04.24-.25.24-.25,0,0,.02.21.24.25Z"/><path class="cls-38" d="M17.7,76.78c-.22.04-.24.25-.24.25,0,0-.02-.21-.24-.25.22-.04.24-.25.24-.25,0,0,.02.21.24.25Z"/><path class="cls-38" d="M36.29,83.84c-.22.04-.24.25-.24.25,0,0-.02-.21-.24-.25.22-.04.24-.25.24-.25,0,0,.02.21.24.25Z"/><path class="cls-38" d="M33.54,82.13c-.22.04-.24.25-.24.25,0,0-.02-.21-.24-.25.22-.04.24-.25.24-.25,0,0,.02.21.24.25Z"/><path class="cls-38" d="M33.78,63.28c-.22.04-.24.25-.24.25,0,0-.02-.21-.24-.25.22-.04.24-.25.24-.25,0,0,.02.21.24.25Z"/><path class="cls-38" d="M46.22,53.28c-.22.04-.24.25-.24.25,0,0-.02-.21-.24-.25.22-.04.24-.25.24-.25,0,0,.02.21.24.25Z"/><path class="cls-38" d="M50.96,77.02c-.22.04-.24.25-.24.25,0,0-.02-.21-.24-.25.22-.04.24-.25.24-.25,0,0,.02.21.24.25Z"/><path class="cls-38" d="M28.98,79.09c-.22.04-.24.25-.24.25,0,0-.02-.21-.24-.25.22-.04.24-.25.24-.25,0,0,.02.21.24.25Z"/><path class="cls-38" d="M20.86,87.37c-.22.04-.24.25-.24.25,0,0-.02-.21-.24-.25.22-.04.24-.25.24-.25,0,0,.02.21.24.25Z"/><path class="cls-38" d="M18.47,60.07c-.22.04-.24.25-.24.25,0,0-.02-.21-.24-.25.22-.04.24-.25.24-.25,0,0,.02.21.24.25Z"/><path class="cls-38" d="M16.27,45.25c-.22.04-.24.25-.24.25,0,0-.02-.21-.24-.25.22-.04.24-.25.24-.25,0,0,.02.21.24.25Z"/><path class="cls-38" d="M7.48,56.79c-.22.04-.24.25-.24.25,0,0-.02-.21-.24-.25.22-.04.24-.25.24-.25,0,0,.02.21.24.25Z"/><path class="cls-38" d="M22.5,51.88c-.22.04-.24.25-.24.25,0,0-.02-.21-.24-.25.22-.04.24-.25.24-.25,0,0,.02.21.24.25Z"/><path class="cls-38" d="M22.74,41.78c-.22.04-.24.25-.24.25,0,0-.02-.21-.24-.25.22-.04.24-.25.24-.25,0,0,.02.21.24.25Z"/><path class="cls-38" d="M19.12,35.48c-.22.04-.24.25-.24.25,0,0-.02-.21-.24-.25.22-.04.24-.25.24-.25,0,0,.02.21.24.25Z"/><path class="cls-38" d="M16.12,26.74c-.22.04-.24.25-.24.25,0,0-.02-.21-.24-.25.22-.04.24-.25.24-.25,0,0,.02.21.24.25Z"/><path class="cls-38" d="M22.98,11.06c-.22.04-.24.25-.24.25,0,0-.02-.21-.24-.25.22-.04.24-.25.24-.25,0,0,.02.21.24.25Z"/><path class="cls-38" d="M25.7,17.89c-.22.04-.24.25-.24.25,0,0-.02-.21-.24-.25.22-.04.24-.25.24-.25,0,0,.02.21.24.25Z"/><path class="cls-38" d="M30.69,24.16c-.22.04-.24.25-.24.25,0,0-.02-.21-.24-.25.22-.04.24-.25.24-.25,0,0,.02.21.24.25Z"/><path class="cls-38" d="M33.54,18.96c-.22.04-.24.25-.24.25,0,0-.02-.21-.24-.25.22-.04.24-.25.24-.25,0,0,.02.21.24.25Z"/><path class="cls-38" d="M14.17,16c-.22.04-.24.25-.24.25,0,0-.02-.21-.24-.25.22-.04.24-.25.24-.25,0,0,.02.21.24.25Z"/><path class="cls-38" d="M6.01,10.81c-.22.04-.24.25-.24.25,0,0-.02-.21-.24-.25.22-.04.24-.25.24-.25,0,0,.02.21.24.25Z"/><path class="cls-38" d="M46.46,65.69c-.22.04-.24.25-.24.25,0,0-.02-.21-.24-.25.22-.04.24-.25.24-.25,0,0,.02.21.24.25Z"/><path class="cls-38" d="M62.98,102.27c-.22.04-.24.25-.24.25,0,0-.02-.21-.24-.25.22-.04.24-.25.24-.25,0,0,.02.21.24.25Z"/><path class="cls-38" d="M45.98,127.74c-.22.04-.24.25-.24.25,0,0-.02-.21-.24-.25.22-.04.24-.25.24-.25,0,0,.02.21.24.25Z"/><path class="cls-38" d="M49.8,148.1c-.22.04-.24.25-.24.25,0,0-.02-.21-.24-.25.22-.04.24-.25.24-.25,0,0,.02.21.24.25Z"/><path class="cls-38" d="M78.67,152.77c-.22.04-.24.25-.24.25,0,0-.02-.21-.24-.25.22-.04.24-.25.24-.25,0,0,.02.21.24.25Z"/><path class="cls-38" d="M78.67,94.97c-.22.04-.24.25-.24.25,0,0-.02-.21-.24-.25.22-.04.24-.25.24-.25,0,0,.02.21.24.25Z"/><path class="cls-38" d="M52.55,87.12c-.22.04-.24.25-.24.25,0,0-.02-.21-.24-.25.22-.04.24-.25.24-.25,0,0,.02.21.24.25Z"/><path class="cls-38" d="M78.43,35.73c-.22.04-.24.25-.24.25,0,0-.02-.21-.24-.25.22-.04.24-.25.24-.25,0,0,.02.21.24.25Z"/><path class="cls-38" d="M54.3,118.36c-.22.04-.24.25-.24.25,0,0-.02-.21-.24-.25.22-.04.24-.25.24-.25,0,0,.02.21.24.25Z"/><path class="cls-38" d="M58.85,127.24c-.22.04-.24.25-.24.25,0,0-.02-.21-.24-.25.22-.04.24-.25.24-.25,0,0,.02.21.24.25Z"/><path class="cls-38" d="M63.88,134.21c-.22.04-.24.25-.24.25,0,0-.02-.21-.24-.25.22-.04.24-.25.24-.25,0,0,.02.21.24.25Z"/><path class="cls-38" d="M69.7,139.52c-.22.04-.24.25-.24.25,0,0-.02-.21-.24-.25.22-.04.24-.25.24-.25,0,0,.02.21.24.25Z"/><path class="cls-38" d="M65.8,143.28c-.22.04-.24.25-.24.25,0,0-.02-.21-.24-.25.22-.04.24-.25.24-.25,0,0,.02.21.24.25Z"/><path class="cls-38" d="M54.55,129.59c-.37.06-.4.41-.4.41,0,0-.03-.35-.4-.41.37-.06.4-.41.4-.41,0,0,.03.35.4.41Z"/><path class="cls-38" d="M39.26,118.36c-.37.06-.4.41-.4.41,0,0-.03-.35-.4-.41.37-.06.4-.41.4-.41,0,0,.03.35.4.41Z"/><path class="cls-38" d="M55.09,100.37c-.37.06-.4.41-.4.41,0,0-.03-.35-.4-.41.37-.06.4-.41.4-.41,0,0,.03.35.4.41Z"/><path class="cls-38" d="M64.27,76.28c-.37.06-.4.41-.4.41,0,0-.03-.35-.4-.41.37-.06.4-.41.4-.41,0,0,.03.35.4.41Z"/><path class="cls-38" d="M58.61,52.87c-.37.06-.4.41-.4.41,0,0-.03-.35-.4-.41.37-.06.4-.41.4-.41,0,0,.03.35.4.41Z"/><path class="cls-38" d="M72.8,29.51c-.37.06-.4.41-.4.41,0,0-.03-.35-.4-.41.37-.06.4-.41.4-.41,0,0,.03.35.4.41Z"/><path class="cls-38" d="M42.7,5.83c-.37.06-.4.41-.4.41,0,0-.03-.35-.4-.41.37-.06.4-.41.4-.41,0,0,.03.35.4.41Z"/><path class="cls-38" d="M80.34,22.12c-.37.06-.4.41-.4.41,0,0-.03-.35-.4-.41.37-.06.4-.41.4-.41,0,0,.03.35.4.41Z"/><path class="cls-38" d="M41.36,18.71c-.37.06-.4.41-.4.41,0,0-.03-.35-.4-.41.37-.06.4-.41.4-.41,0,0,.03.35.4.41Z"/><path class="cls-38" d="M37.08,39.22c-.37.06-.4.41-.4.41,0,0-.03-.35-.4-.41.37-.06.4-.41.4-.41,0,0,.03.35.4.41Z"/><path class="cls-38" d="M21.59,130.97c-.74.12-.8.83-.8.83,0,0-.06-.7-.8-.83.74-.12.8-.83.8-.83,0,0,.06.7.8.83Z"/><path class="cls-38" d="M8.81,79.34c-.74.12-.8.82-.8.82,0,0-.06-.7-.8-.82.74-.12.8-.82.8-.82,0,0,.06.7.8.82Z"/><path class="cls-38" d="M75.86,13.95c-.74.12-.8.82-.8.82,0,0-.06-.7-.8-.82.74-.12.8-.82.8-.82,0,0,.06.7.8.82Z"/><path class="cls-38" d="M81.54,63.28c-.74.12-.8.83-.8.83,0,0-.06-.7-.8-.83.74-.12.8-.82.8-.82,0,0,.06.7.8.82Z"/><path class="cls-38" d="M78.43,132.01c-.74.12-.8.83-.8.83,0,0-.06-.7-.8-.83.74-.12.8-.82.8-.82,0,0,.06.7.8.82Z"/><path class="cls-38" d="M8.42,107.8c-.74.12-.8.83-.8.83,0,0-.06-.7-.8-.83.74-.12.8-.82.8-.82,0,0,.06.7.8.82Z"/><path class="cls-38" d="M8.02,25.12c-.74.12-.8.82-.8.82,0,0-.06-.7-.8-.82.74-.12.8-.82.8-.82,0,0,.06.7.8.82Z"/><path class="cls-38" d="M16.67,4.65c-.74.12-.8.82-.8.82,0,0-.06-.7-.8-.82.74-.12.8-.82.8-.82,0,0,.06.7.8.82Z"/><path class="cls-38" d="M51.52,16.82c-.74.12-.8.82-.8.82,0,0-.06-.7-.8-.82.74-.12.8-.82.8-.82,0,0,.06.7.8.82Z"/><path class="cls-38" d="M52.31,39.63c-.74.12-.8.83-.8.83,0,0-.06-.7-.8-.83.74-.12.8-.82.8-.82,0,0,.06.7.8.82Z"/><path class="cls-38" d="M66.26,5.03c-.34.06-.37.38-.37.38,0,0-.03-.33-.37-.38.34-.06.37-.38.37-.38,0,0,.03.33.37.38Z"/><path class="cls-38" d="M54.43,28.43c-.34.06-.37.38-.37.38,0,0-.03-.33-.37-.38.34-.06.37-.38.37-.38,0,0,.03.33.37.38Z"/><path class="cls-38" d="M28.87,40.45c-.34.06-.37.38-.37.38,0,0-.03-.33-.37-.38.34-.06.37-.38.37-.38,0,0,.03.33.37.38Z"/><path class="cls-38" d="M41.33,28.72c-.34.06-.37.38-.37.38,0,0-.03-.33-.37-.38.34-.06.37-.38.37-.38,0,0,.03.33.37.38Z"/><path class="cls-38" d="M51.89,3.82c-.34.06-.37.38-.37.38,0,0-.03-.33-.37-.38.34-.06.37-.38.37-.38,0,0,.03.33.37.38Z"/><path class="cls-38" d="M35.94,6.24c-.34.06-.37.38-.37.38,0,0-.03-.33-.37-.38.34-.06.37-.38.37-.38,0,0,.03.33.37.38Z"/><path class="cls-38" d="M80.31,5.42c-.34.06-.37.38-.37.38,0,0-.03-.33-.37-.38.34-.06.37-.38.37-.38,0,0,.03.33.37.38Z"/><path class="cls-38" d="M10.44,70.09c-.34.06-.37.38-.37.38,0,0-.03-.33-.37-.38.34-.06.37-.38.37-.38,0,0,.03.33.37.38Z"/><path class="cls-38" d="M81.11,112.57c-.34.06-.37.38-.37.38,0,0-.03-.33-.37-.38.34-.06.37-.38.37-.38,0,0,.03.33.37.38Z"/><path class="cls-38" d="M16.49,148.1c-.34.06-.37.38-.37.38,0,0-.03-.33-.37-.38.34-.06.37-.38.37-.38,0,0,.03.33.37.38Z"/><path class="cls-38" d="M7.56,154.52c-.34.06-.37.38-.37.38,0,0-.03-.33-.37-.38.34-.06.37-.38.37-.38,0,0,.03.33.37.38Z"/><path class="cls-38" d="M12.72,140.12c-.37.06-.4.41-.4.41,0,0-.03-.35-.4-.41.37-.06.4-.41.4-.41,0,0,.03.35.4.41Z"/><path class="cls-38" d="M29.38,148.89c-.37.06-.4.41-.4.41,0,0-.03-.35-.4-.41.37-.06.4-.41.4-.41,0,0,.03.35.4.41Z"/><path class="cls-38" d="M8.41,92.97c-.37.06-.4.41-.4.41,0,0-.03-.35-.4-.41.37-.06.4-.41.4-.41,0,0,.03.35.4.41Z"/><path class="cls-38" d="M59.01,10.81c-.37.06-.4.41-.4.41,0,0-.03-.35-.4-.41.37-.06.4-.41.4-.41,0,0,.03.35.4.41Z"/><path class="cls-38" d="M75.86,46.65c-.37.06-.4.41-.4.41,0,0-.03-.35-.4-.41.37-.06.4-.41.4-.41,0,0,.03.35.4.41Z"/><path class="cls-38" d="M31.89,50.61c-.37.06-.4.41-.4.41,0,0-.03-.35-.4-.41.37-.06.4-.41.4-.41,0,0,.03.35.4.41Z"/><path class="cls-38" d="M25.27,47.86c-.37.06-.4.41-.4.41,0,0-.03-.35-.4-.41.37-.06.4-.41.4-.41,0,0,.03.35.4.41Z"/><path class="cls-38" d="M68.21,148.1c-.22.04-.24.25-.24.25,0,0-.02-.21-.24-.25.22-.04.24-.25.24-.25,0,0,.02.21.24.25Z"/><path class="cls-38" d="M141.67,23.91c-.22.04-.24.25-.24.25,0,0-.02-.21-.24-.25.22-.04.24-.25.24-.25,0,0,.02.21.24.25Z"/><path class="cls-38" d="M140.56,28c-.22.04-.24.25-.24.25,0,0-.02-.21-.24-.25.22-.04.24-.25.24-.25,0,0,.02.21.24.25Z"/><path class="cls-38" d="M143.12,48.62c-.22.04-.24.25-.24.25,0,0-.02-.21-.24-.25.22-.04.24-.25.24-.25,0,0,.02.21.24.25Z"/><path class="cls-38" d="M150.93,60.54c-.22.04-.24.25-.24.25,0,0-.02-.21-.24-.25.22-.04.24-.25.24-.25,0,0,.02.21.24.25Z"/><path class="cls-38" d="M150.69,75.1c-.22.04-.24.25-.24.25,0,0-.02-.21-.24-.25.22-.04.24-.25.24-.25,0,0,.02.21.24.25Z"/><path class="cls-38" d="M156.93,85.01c-.22.04-.24.25-.24.25,0,0-.02-.21-.24-.25.22-.04.24-.25.24-.25,0,0,.02.21.24.25Z"/><path class="cls-38" d="M154.93,100.87c-.22.04-.24.25-.24.25,0,0-.02-.21-.24-.25.22-.04.24-.25.24-.25,0,0,.02.21.24.25Z"/><path class="cls-38" d="M156.06,120.04c-.22.04-.24.25-.24.25,0,0-.02-.21-.24-.25.22-.04.24-.25.24-.25,0,0,.02.21.24.25Z"/><path class="cls-38" d="M142.2,111.83c-.22.04-.24.25-.24.25,0,0-.02-.21-.24-.25.22-.04.24-.25.24-.25,0,0,.02.21.24.25Z"/><path class="cls-38" d="M131.51,104.4c-.22.04-.24.25-.24.25,0,0-.02-.21-.24-.25.22-.04.24-.25.24-.25,0,0,.02.21.24.25Z"/><path class="cls-38" d="M122.67,98.95c-.22.04-.24.25-.24.25,0,0-.02-.21-.24-.25.22-.04.24-.25.24-.25,0,0,.02.21.24.25Z"/><path class="cls-38" d="M112.96,101.87c-.22.04-.24.25-.24.25,0,0-.02-.21-.24-.25.22-.04.24-.25.24-.25,0,0,.02.21.24.25Z"/><path class="cls-38" d="M104.21,100.62c-.22.04-.24.25-.24.25,0,0-.02-.21-.24-.25.22-.04.24-.25.24-.25,0,0,.02.21.24.25Z"/><path class="cls-38" d="M99.17,76.78c-.22.04-.24.25-.24.25,0,0-.02-.21-.24-.25.22-.04.24-.25.24-.25,0,0,.02.21.24.25Z"/><path class="cls-38" d="M117.76,83.84c-.22.04-.24.25-.24.25,0,0-.02-.21-.24-.25.22-.04.24-.25.24-.25,0,0,.02.21.24.25Z"/><path class="cls-38" d="M115.01,82.13c-.22.04-.24.25-.24.25,0,0-.02-.21-.24-.25.22-.04.24-.25.24-.25,0,0,.02.21.24.25Z"/><path class="cls-38" d="M115.25,63.28c-.22.04-.24.25-.24.25,0,0-.02-.21-.24-.25.22-.04.24-.25.24-.25,0,0,.02.21.24.25Z"/><path class="cls-38" d="M127.69,53.28c-.22.04-.24.25-.24.25,0,0-.02-.21-.24-.25.22-.04.24-.25.24-.25,0,0,.02.21.24.25Z"/><path class="cls-38" d="M132.43,77.02c-.22.04-.24.25-.24.25,0,0-.02-.21-.24-.25.22-.04.24-.25.24-.25,0,0,.02.21.24.25Z"/><path class="cls-38" d="M110.45,79.09c-.22.04-.24.25-.24.25,0,0-.02-.21-.24-.25.22-.04.24-.25.24-.25,0,0,.02.21.24.25Z"/><path class="cls-38" d="M102.33,87.37c-.22.04-.24.25-.24.25,0,0-.02-.21-.24-.25.22-.04.24-.25.24-.25,0,0,.02.21.24.25Z"/><path class="cls-38" d="M99.94,60.07c-.22.04-.24.25-.24.25,0,0-.02-.21-.24-.25.22-.04.24-.25.24-.25,0,0,.02.21.24.25Z"/><path class="cls-38" d="M97.74,45.25c-.22.04-.24.25-.24.25,0,0-.02-.21-.24-.25.22-.04.24-.25.24-.25,0,0,.02.21.24.25Z"/><path class="cls-38" d="M88.95,56.79c-.22.04-.24.25-.24.25,0,0-.02-.21-.24-.25.22-.04.24-.25.24-.25,0,0,.02.21.24.25Z"/><path class="cls-38" d="M103.97,51.88c-.22.04-.24.25-.24.25,0,0-.02-.21-.24-.25.22-.04.24-.25.24-.25,0,0,.02.21.24.25Z"/><path class="cls-38" d="M104.21,41.78c-.22.04-.24.25-.24.25,0,0-.02-.21-.24-.25.22-.04.24-.25.24-.25,0,0,.02.21.24.25Z"/><path class="cls-38" d="M100.59,35.48c-.22.04-.24.25-.24.25,0,0-.02-.21-.24-.25.22-.04.24-.25.24-.25,0,0,.02.21.24.25Z"/><path class="cls-38" d="M97.59,26.74c-.22.04-.24.25-.24.25,0,0-.02-.21-.24-.25.22-.04.24-.25.24-.25,0,0,.02.21.24.25Z"/><path class="cls-38" d="M104.45,11.06c-.22.04-.24.25-.24.25,0,0-.02-.21-.24-.25.22-.04.24-.25.24-.25,0,0,.02.21.24.25Z"/><path class="cls-38" d="M107.17,17.89c-.22.04-.24.25-.24.25,0,0-.02-.21-.24-.25.22-.04.24-.25.24-.25,0,0,.02.21.24.25Z"/><path class="cls-38" d="M112.16,24.16c-.22.04-.24.25-.24.25,0,0-.02-.21-.24-.25.22-.04.24-.25.24-.25,0,0,.02.21.24.25Z"/><path class="cls-38" d="M115.01,18.96c-.22.04-.24.25-.24.25,0,0-.02-.21-.24-.25.22-.04.24-.25.24-.25,0,0,.02.21.24.25Z"/><path class="cls-38" d="M95.64,16c-.22.04-.24.25-.24.25,0,0-.02-.21-.24-.25.22-.04.24-.25.24-.25,0,0,.02.21.24.25Z"/><path class="cls-38" d="M87.48,10.81c-.22.04-.24.25-.24.25,0,0-.02-.21-.24-.25.22-.04.24-.25.24-.25,0,0,.02.21.24.25Z"/><path class="cls-38" d="M127.93,65.69c-.22.04-.24.25-.24.25,0,0-.02-.21-.24-.25.22-.04.24-.25.24-.25,0,0,.02.21.24.25Z"/><path class="cls-38" d="M144.45,102.27c-.22.04-.24.25-.24.25,0,0-.02-.21-.24-.25.22-.04.24-.25.24-.25,0,0,.02.21.24.25Z"/><path class="cls-38" d="M127.45,127.74c-.22.04-.24.25-.24.25,0,0-.02-.21-.24-.25.22-.04.24-.25.24-.25,0,0,.02.21.24.25Z"/><path class="cls-38" d="M131.27,148.1c-.22.04-.24.25-.24.25,0,0-.02-.21-.24-.25.22-.04.24-.25.24-.25,0,0,.02.21.24.25Z"/><path class="cls-38" d="M160.14,152.77c-.22.04-.24.25-.24.25,0,0-.02-.21-.24-.25.22-.04.24-.25.24-.25,0,0,.02.21.24.25Z"/><path class="cls-38" d="M160.14,94.97c-.22.04-.24.25-.24.25,0,0-.02-.21-.24-.25.22-.04.24-.25.24-.25,0,0,.02.21.24.25Z"/><path class="cls-38" d="M134.02,87.12c-.22.04-.24.25-.24.25,0,0-.02-.21-.24-.25.22-.04.24-.25.24-.25,0,0,.02.21.24.25Z"/><path class="cls-38" d="M159.9,35.73c-.22.04-.24.25-.24.25,0,0-.02-.21-.24-.25.22-.04.24-.25.24-.25,0,0,.02.21.24.25Z"/><path class="cls-38" d="M135.77,118.36c-.22.04-.24.25-.24.25,0,0-.02-.21-.24-.25.22-.04.24-.25.24-.25,0,0,.02.21.24.25Z"/><path class="cls-38" d="M140.32,127.24c-.22.04-.24.25-.24.25,0,0-.02-.21-.24-.25.22-.04.24-.25.24-.25,0,0,.02.21.24.25Z"/><path class="cls-38" d="M145.35,134.21c-.22.04-.24.25-.24.25,0,0-.02-.21-.24-.25.22-.04.24-.25.24-.25,0,0,.02.21.24.25Z"/><path class="cls-38" d="M151.17,139.52c-.22.04-.24.25-.24.25,0,0-.02-.21-.24-.25.22-.04.24-.25.24-.25,0,0,.02.21.24.25Z"/><path class="cls-38" d="M147.27,143.28c-.22.04-.24.25-.24.25,0,0-.02-.21-.24-.25.22-.04.24-.25.24-.25,0,0,.02.21.24.25Z"/><path class="cls-38" d="M136.02,129.59c-.37.06-.4.41-.4.41,0,0-.03-.35-.4-.41.37-.06.4-.41.4-.41,0,0,.03.35.4.41Z"/><path class="cls-38" d="M120.73,118.36c-.37.06-.4.41-.4.41,0,0-.03-.35-.4-.41.37-.06.4-.41.4-.41,0,0,.03.35.4.41Z"/><path class="cls-38" d="M136.56,100.37c-.37.06-.4.41-.4.41,0,0-.03-.35-.4-.41.37-.06.4-.41.4-.41,0,0,.03.35.4.41Z"/><path class="cls-38" d="M145.74,76.28c-.37.06-.4.41-.4.41,0,0-.03-.35-.4-.41.37-.06.4-.41.4-.41,0,0,.03.35.4.41Z"/><path class="cls-38" d="M140.08,52.87c-.37.06-.4.41-.4.41,0,0-.03-.35-.4-.41.37-.06.4-.41.4-.41,0,0,.03.35.4.41Z"/><path class="cls-38" d="M154.27,29.51c-.37.06-.4.41-.4.41,0,0-.03-.35-.4-.41.37-.06.4-.41.4-.41,0,0,.03.35.4.41Z"/><path class="cls-38" d="M124.17,5.83c-.37.06-.4.41-.4.41,0,0-.03-.35-.4-.41.37-.06.4-.41.4-.41,0,0,.03.35.4.41Z"/><path class="cls-38" d="M161.81,22.12c-.37.06-.4.41-.4.41,0,0-.03-.35-.4-.41.37-.06.4-.41.4-.41,0,0,.03.35.4.41Z"/><path class="cls-38" d="M122.83,18.71c-.37.06-.4.41-.4.41,0,0-.03-.35-.4-.41.37-.06.4-.41.4-.41,0,0,.03.35.4.41Z"/><path class="cls-38" d="M118.55,39.22c-.37.06-.4.41-.4.41,0,0-.03-.35-.4-.41.37-.06.4-.41.4-.41,0,0,.03.35.4.41Z"/><path class="cls-38" d="M103.06,130.97c-.74.12-.8.83-.8.83,0,0-.06-.7-.8-.83.74-.12.8-.83.8-.83,0,0,.06.7.8.83Z"/><path class="cls-38" d="M90.28,79.34c-.74.12-.8.82-.8.82,0,0-.06-.7-.8-.82.74-.12.8-.82.8-.82,0,0,.06.7.8.82Z"/><path class="cls-38" d="M157.33,13.95c-.74.12-.8.82-.8.82,0,0-.06-.7-.8-.82.74-.12.8-.82.8-.82,0,0,.06.7.8.82Z"/><path class="cls-38" d="M163.01,63.28c-.74.12-.8.83-.8.83,0,0-.06-.7-.8-.83.74-.12.8-.82.8-.82,0,0,.06.7.8.82Z"/><path class="cls-38" d="M159.9,132.01c-.74.12-.8.83-.8.83,0,0-.06-.7-.8-.83.74-.12.8-.82.8-.82,0,0,.06.7.8.82Z"/><path class="cls-38" d="M89.88,107.8c-.74.12-.8.83-.8.83,0,0-.06-.7-.8-.83.74-.12.8-.82.8-.82,0,0,.06.7.8.82Z"/><path class="cls-38" d="M89.49,25.12c-.74.12-.8.82-.8.82,0,0-.06-.7-.8-.82.74-.12.8-.82.8-.82,0,0,.06.7.8.82Z"/><path class="cls-38" d="M98.14,4.65c-.74.12-.8.82-.8.82,0,0-.06-.7-.8-.82.74-.12.8-.82.8-.82,0,0,.06.7.8.82Z"/><path class="cls-38" d="M132.99,16.82c-.74.12-.8.82-.8.82,0,0-.06-.7-.8-.82.74-.12.8-.82.8-.82,0,0,.06.7.8.82Z"/><path class="cls-38" d="M133.78,39.63c-.74.12-.8.83-.8.83,0,0-.06-.7-.8-.83.74-.12.8-.82.8-.82,0,0,.06.7.8.82Z"/><path class="cls-38" d="M147.73,5.03c-.34.06-.37.38-.37.38,0,0-.03-.33-.37-.38.34-.06.37-.38.37-.38,0,0,.03.33.37.38Z"/><path class="cls-38" d="M135.9,28.43c-.34.06-.37.38-.37.38,0,0-.03-.33-.37-.38.34-.06.37-.38.37-.38,0,0,.03.33.37.38Z"/><path class="cls-38" d="M110.34,40.45c-.34.06-.37.38-.37.38,0,0-.03-.33-.37-.38.34-.06.37-.38.37-.38,0,0,.03.33.37.38Z"/><path class="cls-38" d="M122.8,28.72c-.34.06-.37.38-.37.38,0,0-.03-.33-.37-.38.34-.06.37-.38.37-.38,0,0,.03.33.37.38Z"/><path class="cls-38" d="M133.36,3.82c-.34.06-.37.38-.37.38,0,0-.03-.33-.37-.38.34-.06.37-.38.37-.38,0,0,.03.33.37.38Z"/><path class="cls-38" d="M117.41,6.24c-.34.06-.37.38-.37.38,0,0-.03-.33-.37-.38.34-.06.37-.38.37-.38,0,0,.03.33.37.38Z"/><path class="cls-38" d="M161.78,5.42c-.34.06-.37.38-.37.38,0,0-.03-.33-.37-.38.34-.06.37-.38.37-.38,0,0,.03.33.37.38Z"/><path class="cls-38" d="M91.91,70.09c-.34.06-.37.38-.37.38,0,0-.03-.33-.37-.38.34-.06.37-.38.37-.38,0,0,.03.33.37.38Z"/><path class="cls-38" d="M162.58,112.57c-.34.06-.37.38-.37.38,0,0-.03-.33-.37-.38.34-.06.37-.38.37-.38,0,0,.03.33.37.38Z"/><path class="cls-38" d="M97.96,148.1c-.34.06-.37.38-.37.38,0,0-.03-.33-.37-.38.34-.06.37-.38.37-.38,0,0,.03.33.37.38Z"/><path class="cls-38" d="M89.03,154.52c-.34.06-.37.38-.37.38,0,0-.03-.33-.37-.38.34-.06.37-.38.37-.38,0,0,.03.33.37.38Z"/><path class="cls-38" d="M94.19,140.12c-.37.06-.4.41-.4.41,0,0-.03-.35-.4-.41.37-.06.4-.41.4-.41,0,0,.03.35.4.41Z"/><path class="cls-38" d="M110.85,148.89c-.37.06-.4.41-.4.41,0,0-.03-.35-.4-.41.37-.06.4-.41.4-.41,0,0,.03.35.4.41Z"/><path class="cls-38" d="M89.88,92.97c-.37.06-.4.41-.4.41,0,0-.03-.35-.4-.41.37-.06.4-.41.4-.41,0,0,.03.35.4.41Z"/><path class="cls-38" d="M140.48,10.81c-.37.06-.4.41-.4.41,0,0-.03-.35-.4-.41.37-.06.4-.41.4-.41,0,0,.03.35.4.41Z"/><path class="cls-38" d="M157.33,46.65c-.37.06-.4.41-.4.41,0,0-.03-.35-.4-.41.37-.06.4-.41.4-.41,0,0,.03.35.4.41Z"/><path class="cls-38" d="M113.36,50.61c-.37.06-.4.41-.4.41,0,0-.03-.35-.4-.41.37-.06.4-.41.4-.41,0,0,.03.35.4.41Z"/><path class="cls-38" d="M106.74,47.86c-.37.06-.4.41-.4.41,0,0-.03-.35-.4-.41.37-.06.4-.41.4-.41,0,0,.03.35.4.41Z"/><path class="cls-38" d="M149.68,148.1c-.22.04-.24.25-.24.25,0,0-.02-.21-.24-.25.22-.04.24-.25.24-.25,0,0,.02.21.24.25Z"/><path class="cls-38" d="M223.14,23.91c-.22.04-.24.25-.24.25,0,0-.02-.21-.24-.25.22-.04.24-.25.24-.25,0,0,.02.21.24.25Z"/><path class="cls-38" d="M222.03,28c-.22.04-.24.25-.24.25,0,0-.02-.21-.24-.25.22-.04.24-.25.24-.25,0,0,.02.21.24.25Z"/><path class="cls-38" d="M224.59,48.62c-.22.04-.24.25-.24.25,0,0-.02-.21-.24-.25.22-.04.24-.25.24-.25,0,0,.02.21.24.25Z"/><path class="cls-38" d="M232.4,60.54c-.22.04-.24.25-.24.25,0,0-.02-.21-.24-.25.22-.04.24-.25.24-.25,0,0,.02.21.24.25Z"/><path class="cls-38" d="M232.16,75.1c-.22.04-.24.25-.24.25,0,0-.02-.21-.24-.25.22-.04.24-.25.24-.25,0,0,.02.21.24.25Z"/><path class="cls-38" d="M238.4,85.01c-.22.04-.24.25-.24.25,0,0-.02-.21-.24-.25.22-.04.24-.25.24-.25,0,0,.02.21.24.25Z"/><path class="cls-38" d="M236.4,100.87c-.22.04-.24.25-.24.25,0,0-.02-.21-.24-.25.22-.04.24-.25.24-.25,0,0,.02.21.24.25Z"/><path class="cls-38" d="M237.53,120.04c-.22.04-.24.25-.24.25,0,0-.02-.21-.24-.25.22-.04.24-.25.24-.25,0,0,.02.21.24.25Z"/><path class="cls-38" d="M223.67,111.83c-.22.04-.24.25-.24.25,0,0-.02-.21-.24-.25.22-.04.24-.25.24-.25,0,0,.02.21.24.25Z"/><path class="cls-38" d="M212.98,104.4c-.22.04-.24.25-.24.25,0,0-.02-.21-.24-.25.22-.04.24-.25.24-.25,0,0,.02.21.24.25Z"/><path class="cls-38" d="M204.14,98.95c-.22.04-.24.25-.24.25,0,0-.02-.21-.24-.25.22-.04.24-.25.24-.25,0,0,.02.21.24.25Z"/><path class="cls-38" d="M194.43,101.87c-.22.04-.24.25-.24.25,0,0-.02-.21-.24-.25.22-.04.24-.25.24-.25,0,0,.02.21.24.25Z"/><path class="cls-38" d="M185.68,100.62c-.22.04-.24.25-.24.25,0,0-.02-.21-.24-.25.22-.04.24-.25.24-.25,0,0,.02.21.24.25Z"/><path class="cls-38" d="M180.64,76.78c-.22.04-.24.25-.24.25,0,0-.02-.21-.24-.25.22-.04.24-.25.24-.25,0,0,.02.21.24.25Z"/><path class="cls-38" d="M199.23,83.84c-.22.04-.24.25-.24.25,0,0-.02-.21-.24-.25.22-.04.24-.25.24-.25,0,0,.02.21.24.25Z"/><path class="cls-38" d="M196.48,82.13c-.22.04-.24.25-.24.25,0,0-.02-.21-.24-.25.22-.04.24-.25.24-.25,0,0,.02.21.24.25Z"/><path class="cls-38" d="M196.72,63.28c-.22.04-.24.25-.24.25,0,0-.02-.21-.24-.25.22-.04.24-.25.24-.25,0,0,.02.21.24.25Z"/><path class="cls-38" d="M209.16,53.28c-.22.04-.24.25-.24.25,0,0-.02-.21-.24-.25.22-.04.24-.25.24-.25,0,0,.02.21.24.25Z"/><path class="cls-38" d="M213.9,77.02c-.22.04-.24.25-.24.25,0,0-.02-.21-.24-.25.22-.04.24-.25.24-.25,0,0,.02.21.24.25Z"/><path class="cls-38" d="M191.92,79.09c-.22.04-.24.25-.24.25,0,0-.02-.21-.24-.25.22-.04.24-.25.24-.25,0,0,.02.21.24.25Z"/><path class="cls-38" d="M183.8,87.37c-.22.04-.24.25-.24.25,0,0-.02-.21-.24-.25.22-.04.24-.25.24-.25,0,0,.02.21.24.25Z"/><path class="cls-38" d="M181.41,60.07c-.22.04-.24.25-.24.25,0,0-.02-.21-.24-.25.22-.04.24-.25.24-.25,0,0,.02.21.24.25Z"/><path class="cls-38" d="M179.2,45.25c-.22.04-.24.25-.24.25,0,0-.02-.21-.24-.25.22-.04.24-.25.24-.25,0,0,.02.21.24.25Z"/><path class="cls-38" d="M170.42,56.79c-.22.04-.24.25-.24.25,0,0-.02-.21-.24-.25.22-.04.24-.25.24-.25,0,0,.02.21.24.25Z"/><path class="cls-38" d="M185.44,51.88c-.22.04-.24.25-.24.25,0,0-.02-.21-.24-.25.22-.04.24-.25.24-.25,0,0,.02.21.24.25Z"/><path class="cls-38" d="M185.68,41.78c-.22.04-.24.25-.24.25,0,0-.02-.21-.24-.25.22-.04.24-.25.24-.25,0,0,.02.21.24.25Z"/><path class="cls-38" d="M182.05,35.48c-.22.04-.24.25-.24.25,0,0-.02-.21-.24-.25.22-.04.24-.25.24-.25,0,0,.02.21.24.25Z"/><path class="cls-38" d="M179.06,26.74c-.22.04-.24.25-.24.25,0,0-.02-.21-.24-.25.22-.04.24-.25.24-.25,0,0,.02.21.24.25Z"/><path class="cls-38" d="M185.92,11.06c-.22.04-.24.25-.24.25,0,0-.02-.21-.24-.25.22-.04.24-.25.24-.25,0,0,.02.21.24.25Z"/><path class="cls-38" d="M188.64,17.89c-.22.04-.24.25-.24.25,0,0-.02-.21-.24-.25.22-.04.24-.25.24-.25,0,0,.02.21.24.25Z"/><path class="cls-38" d="M193.62,24.16c-.22.04-.24.25-.24.25,0,0-.02-.21-.24-.25.22-.04.24-.25.24-.25,0,0,.02.21.24.25Z"/><path class="cls-38" d="M196.48,18.96c-.22.04-.24.25-.24.25,0,0-.02-.21-.24-.25.22-.04.24-.25.24-.25,0,0,.02.21.24.25Z"/><path class="cls-38" d="M177.11,16c-.22.04-.24.25-.24.25,0,0-.02-.21-.24-.25.22-.04.24-.25.24-.25,0,0,.02.21.24.25Z"/><path class="cls-38" d="M168.94,10.81c-.22.04-.24.25-.24.25,0,0-.02-.21-.24-.25.22-.04.24-.25.24-.25,0,0,.02.21.24.25Z"/><path class="cls-38" d="M209.4,65.69c-.22.04-.24.25-.24.25,0,0-.02-.21-.24-.25.22-.04.24-.25.24-.25,0,0,.02.21.24.25Z"/><path class="cls-38" d="M225.92,102.27c-.22.04-.24.25-.24.25,0,0-.02-.21-.24-.25.22-.04.24-.25.24-.25,0,0,.02.21.24.25Z"/><path class="cls-38" d="M208.92,127.74c-.22.04-.24.25-.24.25,0,0-.02-.21-.24-.25.22-.04.24-.25.24-.25,0,0,.02.21.24.25Z"/><path class="cls-38" d="M212.74,148.1c-.22.04-.24.25-.24.25,0,0-.02-.21-.24-.25.22-.04.24-.25.24-.25,0,0,.02.21.24.25Z"/><path class="cls-38" d="M241.61,152.77c-.22.04-.24.25-.24.25,0,0-.02-.21-.24-.25.22-.04.24-.25.24-.25,0,0,.02.21.24.25Z"/><path class="cls-38" d="M241.61,94.97c-.22.04-.24.25-.24.25,0,0-.02-.21-.24-.25.22-.04.24-.25.24-.25,0,0,.02.21.24.25Z"/><path class="cls-38" d="M215.49,87.12c-.22.04-.24.25-.24.25,0,0-.02-.21-.24-.25.22-.04.24-.25.24-.25,0,0,.02.21.24.25Z"/><path class="cls-38" d="M241.37,35.73c-.22.04-.24.25-.24.25,0,0-.02-.21-.24-.25.22-.04.24-.25.24-.25,0,0,.02.21.24.25Z"/><path class="cls-38" d="M217.24,118.36c-.22.04-.24.25-.24.25,0,0-.02-.21-.24-.25.22-.04.24-.25.24-.25,0,0,.02.21.24.25Z"/><path class="cls-38" d="M221.79,127.24c-.22.04-.24.25-.24.25,0,0-.02-.21-.24-.25.22-.04.24-.25.24-.25,0,0,.02.21.24.25Z"/><path class="cls-38" d="M226.82,134.21c-.22.04-.24.25-.24.25,0,0-.02-.21-.24-.25.22-.04.24-.25.24-.25,0,0,.02.21.24.25Z"/><path class="cls-38" d="M232.64,139.52c-.22.04-.24.25-.24.25,0,0-.02-.21-.24-.25.22-.04.24-.25.24-.25,0,0,.02.21.24.25Z"/><path class="cls-38" d="M228.74,143.28c-.22.04-.24.25-.24.25,0,0-.02-.21-.24-.25.22-.04.24-.25.24-.25,0,0,.02.21.24.25Z"/><path class="cls-38" d="M217.49,129.59c-.37.06-.4.41-.4.41,0,0-.03-.35-.4-.41.37-.06.4-.41.4-.41,0,0,.03.35.4.41Z"/><path class="cls-38" d="M202.2,118.36c-.37.06-.4.41-.4.41,0,0-.03-.35-.4-.41.37-.06.4-.41.4-.41,0,0,.03.35.4.41Z"/><path class="cls-38" d="M218.03,100.37c-.37.06-.4.41-.4.41,0,0-.03-.35-.4-.41.37-.06.4-.41.4-.41,0,0,.03.35.4.41Z"/><path class="cls-38" d="M227.21,76.28c-.37.06-.4.41-.4.41,0,0-.03-.35-.4-.41.37-.06.4-.41.4-.41,0,0,.03.35.4.41Z"/><path class="cls-38" d="M221.55,52.87c-.37.06-.4.41-.4.41,0,0-.03-.35-.4-.41.37-.06.4-.41.4-.41,0,0,.03.35.4.41Z"/><path class="cls-38" d="M235.74,29.51c-.37.06-.4.41-.4.41,0,0-.03-.35-.4-.41.37-.06.4-.41.4-.41,0,0,.03.35.4.41Z"/><path class="cls-38" d="M205.64,5.83c-.37.06-.4.41-.4.41,0,0-.03-.35-.4-.41.37-.06.4-.41.4-.41,0,0,.03.35.4.41Z"/><path class="cls-38" d="M243.28,22.12c-.37.06-.4.41-.4.41,0,0-.03-.35-.4-.41.37-.06.4-.41.4-.41,0,0,.03.35.4.41Z"/><path class="cls-38" d="M204.3,18.71c-.37.06-.4.41-.4.41,0,0-.03-.35-.4-.41.37-.06.4-.41.4-.41,0,0,.03.35.4.41Z"/><path class="cls-38" d="M200.02,39.22c-.37.06-.4.41-.4.41,0,0-.03-.35-.4-.41.37-.06.4-.41.4-.41,0,0,.03.35.4.41Z"/><path class="cls-38" d="M184.53,130.97c-.74.12-.8.83-.8.83,0,0-.06-.7-.8-.83.74-.12.8-.83.8-.83,0,0,.06.7.8.83Z"/><path class="cls-38" d="M171.75,79.34c-.74.12-.8.82-.8.82,0,0-.06-.7-.8-.82.74-.12.8-.82.8-.82,0,0,.06.7.8.82Z"/><path class="cls-38" d="M238.8,13.95c-.74.12-.8.82-.8.82,0,0-.06-.7-.8-.82.74-.12.8-.82.8-.82,0,0,.06.7.8.82Z"/><path class="cls-38" d="M244.48,63.28c-.74.12-.8.83-.8.83,0,0-.06-.7-.8-.83.74-.12.8-.82.8-.82,0,0,.06.7.8.82Z"/><path class="cls-38" d="M241.37,132.01c-.74.12-.8.83-.8.83,0,0-.06-.7-.8-.83.74-.12.8-.82.8-.82,0,0,.06.7.8.82Z"/><path class="cls-38" d="M171.35,107.8c-.74.12-.8.83-.8.83,0,0-.06-.7-.8-.83.74-.12.8-.82.8-.82,0,0,.06.7.8.82Z"/><path class="cls-38" d="M170.96,25.12c-.74.12-.8.82-.8.82,0,0-.06-.7-.8-.82.74-.12.8-.82.8-.82,0,0,.06.7.8.82Z"/><path class="cls-38" d="M179.61,4.65c-.74.12-.8.82-.8.82,0,0-.06-.7-.8-.82.74-.12.8-.82.8-.82,0,0,.06.7.8.82Z"/><path class="cls-38" d="M214.46,16.82c-.74.12-.8.82-.8.82,0,0-.06-.7-.8-.82.74-.12.8-.82.8-.82,0,0,.06.7.8.82Z"/><path class="cls-38" d="M215.25,39.63c-.74.12-.8.83-.8.83,0,0-.06-.7-.8-.83.74-.12.8-.82.8-.82,0,0,.06.7.8.82Z"/><path class="cls-38" d="M229.2,5.03c-.34.06-.37.38-.37.38,0,0-.03-.33-.37-.38.34-.06.37-.38.37-.38,0,0,.03.33.37.38Z"/><path class="cls-38" d="M217.37,28.43c-.34.06-.37.38-.37.38,0,0-.03-.33-.37-.38.34-.06.37-.38.37-.38,0,0,.03.33.37.38Z"/><path class="cls-38" d="M191.81,40.45c-.34.06-.37.38-.37.38,0,0-.03-.33-.37-.38.34-.06.37-.38.37-.38,0,0,.03.33.37.38Z"/><path class="cls-38" d="M204.27,28.72c-.34.06-.37.38-.37.38,0,0-.03-.33-.37-.38.34-.06.37-.38.37-.38,0,0,.03.33.37.38Z"/><path class="cls-38" d="M214.83,3.82c-.34.06-.37.38-.37.38,0,0-.03-.33-.37-.38.34-.06.37-.38.37-.38,0,0,.03.33.37.38Z"/><path class="cls-38" d="M198.88,6.24c-.34.06-.37.38-.37.38,0,0-.03-.33-.37-.38.34-.06.37-.38.37-.38,0,0,.03.33.37.38Z"/><path class="cls-38" d="M243.25,5.42c-.34.06-.37.38-.37.38,0,0-.03-.33-.37-.38.34-.06.37-.38.37-.38,0,0,.03.33.37.38Z"/><path class="cls-38" d="M173.38,70.09c-.34.06-.37.38-.37.38,0,0-.03-.33-.37-.38.34-.06.37-.38.37-.38,0,0,.03.33.37.38Z"/><path class="cls-38" d="M244.05,112.57c-.34.06-.37.38-.37.38,0,0-.03-.33-.37-.38.34-.06.37-.38.37-.38,0,0,.03.33.37.38Z"/><path class="cls-38" d="M179.43,148.1c-.34.06-.37.38-.37.38,0,0-.03-.33-.37-.38.34-.06.37-.38.37-.38,0,0,.03.33.37.38Z"/><path class="cls-38" d="M170.5,154.52c-.34.06-.37.38-.37.38,0,0-.03-.33-.37-.38.34-.06.37-.38.37-.38,0,0,.03.33.37.38Z"/><path class="cls-38" d="M175.66,140.12c-.37.06-.4.41-.4.41,0,0-.03-.35-.4-.41.37-.06.4-.41.4-.41,0,0,.03.35.4.41Z"/><path class="cls-38" d="M192.32,148.89c-.37.06-.4.41-.4.41,0,0-.03-.35-.4-.41.37-.06.4-.41.4-.41,0,0,.03.35.4.41Z"/><path class="cls-38" d="M171.35,92.97c-.37.06-.4.41-.4.41,0,0-.03-.35-.4-.41.37-.06.4-.41.4-.41,0,0,.03.35.4.41Z"/><path class="cls-38" d="M221.95,10.81c-.37.06-.4.41-.4.41,0,0-.03-.35-.4-.41.37-.06.4-.41.4-.41,0,0,.03.35.4.41Z"/><path class="cls-38" d="M238.8,46.65c-.37.06-.4.41-.4.41,0,0-.03-.35-.4-.41.37-.06.4-.41.4-.41,0,0,.03.35.4.41Z"/><path class="cls-38" d="M194.83,50.61c-.37.06-.4.41-.4.41,0,0-.03-.35-.4-.41.37-.06.4-.41.4-.41,0,0,.03.35.4.41Z"/><path class="cls-38" d="M188.21,47.86c-.37.06-.4.41-.4.41,0,0-.03-.35-.4-.41.37-.06.4-.41.4-.41,0,0,.03.35.4.41Z"/><path class="cls-38" d="M231.15,148.1c-.22.04-.24.25-.24.25,0,0-.02-.21-.24-.25.22-.04.24-.25.24-.25,0,0,.02.21.24.25Z"/></g></g><g id="Planets"><circle class="cls-45" cx="165.48" cy="87.12" r="6.77"/><path class="cls-41" d="M171.44,86.41c.25.05.5.15.8.21-.06-.8-.25-1.56-.57-2.25-.19.15-.37.29-.53.37-.58.27-.43.22-.93-.31s-1.48-.43-1.4.13c.08.55-.63.18-.75-.34-.13-.51-.78-.51-1.23-1.14-.45-.63-1.4-.4-1.88-.7-.48-.3-1.53.23-.5.5,1.03.28.8.58.58,1.08-.23.5-.23,1.23.58,1.88.8.65-.3.25-.4,1s-1.53.18-2.11-.63c-.58-.8-.63.1-1.78,0s-1.15.2-1.15-.68c0-.62-.59-.89-.93-.99-.33.8-.51,1.67-.51,2.58,0,2.83,1.74,5.26,4.21,6.27.1-.3.22-.56.31-.73.23-.45,1.18-.06,1.53-.91.35-.85.95-.73,1.1.03.15.75,1.03,1.33,1.48,1.26s.28-1.46.28-1.91.83-.35.9-.95c.08-.6.68-.5,1.15-.13.48.38-.05.6-.08,1.86,0,.21.01.4.04.55.7-.55,1.29-1.24,1.74-2.02-.12-.21-.26-.43-.35-.72-.27-.85.38-.83.28-1.86-.1-1.03-.28-1.53.13-1.45Z"/><path class="cls-36" d="M161.79,83.51s.19.17.53,0c.34-.17.49.06.21.39-.28.34-.45.32-.29.77.16.45-.63.87-.87.53-.24-.34-.13-.43-.58-.62-.45-.19-.79-.92,0-.75.79.17.36-.58,1.02-.32Z"/><path class="cls-36" d="M163.46,84.22s.75-.19.65.33c-.1.51-.2.35.23.64.43.29.64.81.14.65-.5-.16-.35-.31-.78-.11s-.76-.07-.58-.4c.19-.33-.41-1.02.34-1.11Z"/><path class="cls-36" d="M165.98,81.36c.28-.03.21.33.58.33s.34.24.49.44c.15.2,0,.66-.29.36-.29-.3-.51-.54-.78-.39-.26.15-.87-.13-.99-.24-.13-.11-1.19-.29-1.4-.02-.21.26-1.04.43-.81.05.23-.38.44-.79,1.08-.71.64.08.78.32.99,0,.21-.33.66-.34.73-.18s-.06.43.41.38Z"/><path class="cls-36" d="M168.2,81.73s.93-.26,1.03.37.53.78.83,1c.3.23-1.03.4-1.3,0-.28-.4-.6-.25-.95-.25s-.1-1.18.4-1.12Z"/><path class="cls-2" d="M171.91,84.99c-.14.08-.25.19-.29.34-.18.64-.41.19-1.5-.49-1.09-.68-.68.08-.6.53.08.45.34,1.2,0,1.75s-.71-.62-1.05-.88-.71-.34-1.01-1.17.07-.19-1.21-.71c-1.28-.53-.08.6.6.98.68.38.75.53.41,1.47-.34.94-1.02.34-1.02,1.13s-.64.9-1.47.64c-.83-.26-1.2-.38-1.73.08-.53.45-.68.49-1.54-.6s-.53-.94-1.17-.49c-.64.45-.9.26-1.05-.43-.09-.41-.33-.71-.52-.9-.04.29-.06.59-.06.9,0,2.29,1.14,4.31,2.87,5.54.85.07.09-.61.09-1.02,0-.47.11-.36.6-.4s.3-.15.53-.58.39.08,1.05,0c.66-.08.66-.34.94-.55s0,0,.87,0,.69.06.71.88.19.92.47.94-.13-.77-.11-1.49c.02-.71.17-.43.26-1.02.09-.58.71-.75,1.26-.56s.56.04,1.03-.3.51.09.92.39c.41.3.24.32-.06,1.28-.3.96.11.26.3,0,.19-.26.15-.96.02-1.67-.13-.71.13-.6.17-1.15.04-.55-.13-.98-.17-1.58-.04-.6.62-.06,1.03.18.24.14.42.06.63-.15-.06-.3-.13-.59-.22-.88Z"/><path class="cls-39" d="M166.55,80.43c2.11,1.15,3.55,3.38,3.55,5.96,0,3.74-3.03,6.77-6.77,6.77-.36,0-.72-.03-1.07-.08.96.52,2.06.81,3.22.81,3.74,0,6.77-3.03,6.77-6.77,0-3.38-2.47-6.17-5.7-6.69Z"/><path class="cls-40" d="M168.32,88.08c-.95,2.72-3.47,4.32-5.63,3.57-2.16-.75-3.14-3.57-2.19-6.3.95-2.72,3.47-4.32,5.63-3.57,2.16.75,3.14,3.57,2.19,6.3Z"/><path class="cls-37" d="M218.98,68.41c0-2.97,2.41-5.38,5.38-5.38s5.38,2.41,5.38,5.38-2.41,5.38-5.38,5.38-5.38-2.41-5.38-5.38Z"/><path class="cls-21" d="M229.74,68.41c0-2.97-2.41-5.38-5.38-5.38-.52,0-1.03.08-1.51.22h0s1.94-.13,2.02.93c.08,1.06.55,1.61-.26,1.95-.81.34-1.03.28-1.11,1.03s-.42,1.45-1.36,1.29c-.93-.15-1.78.94-2.03-.03-.16-.58-.68-.84-.99-1.24-.09.4-.15.81-.15,1.24,0,2.97,2.41,5.38,5.38,5.38s5.38-2.41,5.38-5.38Z"/><path class="cls-14" d="M225.26,63.11c.25.4,1.38,2.34.89,3.1-.55.85.13,1.58-1.15,2.24-1.27.65.16,1.04-1.49,1.08s-.34.89-1.99.72c-.9-.09-1.63-.12-2.27-.18.7,2.16,2.73,3.72,5.12,3.72,2.97,0,5.38-2.41,5.38-5.38,0-2.67-1.94-4.88-4.48-5.3Z"/><path class="cls-27" d="M225.9,63.26c.27.75.92,2.43,1.44,2.68.68.32.34,1.9,0,2.51-.34.61-.94.38-1.04,1.47-.1,1.09.15,2.03-.91,1.99-1.06-.04-1.61-.25-2.08,0-.47.25-.36.89-1.5.19-.78-.48-1.59-1.01-2.17-1.13.91,1.68,2.69,2.83,4.73,2.83,2.97,0,5.38-2.41,5.38-5.38,0-2.44-1.62-4.5-3.85-5.16Z"/><path class="cls-39" d="M225.21,63.1c1.68.91,2.82,2.69,2.82,4.73,0,2.97-2.41,5.38-5.38,5.38-.29,0-.57-.02-.85-.07.76.41,1.63.65,2.56.65,2.97,0,5.38-2.41,5.38-5.38,0-2.68-1.96-4.91-4.53-5.31Z"/><path class="cls-12" d="M219.39,66.34c.47.3,1.25.34,1.29.01.06-.57.74-.17.76.65s.93.11.8-1.07c-.13-1.18.3-.6,1.04,0,.74.6.65-.63.71-1.14.06-.51-.4-.37-1.25-.41-.85-.04-.36-.97-.36-.97-1.35.53-2.44,1.6-3,2.94Z"/><path class="cls-40" d="M226.62,69.18c-.76,2.16-2.76,3.43-4.48,2.83-1.72-.6-2.5-2.84-1.74-5.01.76-2.16,2.76-3.43,4.48-2.83,1.72.6,2.5,2.84,1.74,5.01Z"/><circle class="cls-16" cx="119.42" cy="19.79" r="2.97"/><path class="cls-19" d="M119.42,16.82c-.68,0-1.31.23-1.82.62.53-.06,1.26-.02,1.69.51.74.92.69,1.34.51,1.76-.16.37-2.73,1.86-3.35.12.02,1.63,1.34,2.94,2.97,2.94s2.97-1.33,2.97-2.97-1.33-2.97-2.97-2.97Z"/><path class="cls-44" d="M116.95,21.45c.53.79,1.44,1.32,2.47,1.32,1.64,0,2.97-1.33,2.97-2.97s-1.33-2.97-2.97-2.97c-.38,0-.74.07-1.08.2.49,0,1.23.08,1.64.56.65.76.96,2.38.11,3.1-.57.49-2.14.88-3.13.76Z"/><path class="cls-5" d="M119.42,22.76c1.64,0,2.97-1.33,2.97-2.97,0-1.29-.83-2.39-1.98-2.8.54.79,1.48,2.49.56,3.69-.81,1.05-1.96,1.65-3.13,1.63.46.29,1,.45,1.58.45Z"/><path class="cls-39" d="M119.89,16.86c.93.5,1.56,1.48,1.56,2.61,0,1.64-1.33,2.97-2.97,2.97-.16,0-.32-.01-.47-.04.42.23.9.36,1.41.36,1.64,0,2.97-1.33,2.97-2.97,0-1.48-1.08-2.71-2.5-2.93Z"/><path class="cls-40" d="M120.67,20.22c-.42,1.2-1.52,1.9-2.47,1.56-.95-.33-1.38-1.57-.96-2.76s1.52-1.9,2.47-1.56c.95.33,1.38,1.57.96,2.76Z"/><g class="cls-50"><circle class="cls-7" cx="53.08" cy="54.96" r="10.08" transform="translate(-12.94 93.43) rotate(-76.23)"/><path class="cls-20" d="M62.21,59.22c-6.03-2.07-10.09-4.83-12.62-7.06-1.78-1.56-3.01-3.02-3.83-4.13.38-.4.79-.76,1.22-1.1.76,1.06,1.97,2.52,3.76,4.07,2.41,2.1,6.28,4.71,12.04,6.68-.15.53-.34,1.04-.57,1.53Z"/><path class="cls-20" d="M51.82,44.96c.47.64,1.14,1.42,2.06,2.24,1.66,1.47,4.43,3.3,8.75,4.54.15.45.27.92.36,1.4-5-1.31-8.15-3.39-10.01-5.06-1.19-1.07-1.99-2.07-2.51-2.85.44-.12.89-.21,1.35-.26Z"/><path class="cls-20" d="M43.03,55.69c-.05-.69-.03-1.37.06-2.04,1.35,3.2,5.39,9.99,15.21,9.93-1.32.8-2.84,1.31-4.49,1.43-5.55.4-10.38-3.77-10.78-9.33Z"/><path class="cls-39" d="M50.81,45.15c-3.02,1.93-4.91,5.4-4.63,9.22.4,5.55,5.23,9.73,10.78,9.33.54-.04,1.07-.12,1.58-.24-1.37.87-2.96,1.43-4.69,1.55-5.55.4-10.38-3.77-10.78-9.33-.36-5.01,3-9.43,7.75-10.54Z"/><path class="cls-40" d="M49,56.7c1.7,3.94,5.62,6.04,8.75,4.69,3.13-1.35,4.28-5.64,2.57-9.59-1.7-3.94-5.62-6.04-8.75-4.69-3.13,1.35-4.28,5.64-2.57,9.59Z"/><path class="cls-1" d="M43.1,53.57c2.25,1.66,4.78,3.38,7.5,5.07,2.84,1.76,5.61,3.33,8.19,4.64,7.59,3.87,13.52,5.6,14.53,3.97,1.03-1.65-3.24-6.26-10.19-11.41-.03.35-.08.7-.14,1.04-.03.14-.05.27-.09.41-.07.31-.16.61-.26.91-.07.2-.14.4-.22.59,1.3,1.22,1.95,2.15,1.69,2.56-.25.4-1.33.25-2.95-.35-2.31-.84-5.72-2.58-9.36-4.83-3.2-1.99-5.96-3.99-7.79-5.59-1.71-1.5-2.62-2.65-2.32-3.13.3-.48,1.78-.17,3.94.74.16-.17.32-.34.49-.51.16-.16.33-.31.51-.45.11-.09.21-.17.32-.26.29-.22.6-.43.92-.63-7.85-4.07-14.03-5.92-15.07-4.25-1.03,1.66,3.28,6.31,10.29,11.48Z"/><path class="cls-33" d="M43.73,51.2c2.04,1.69,4.71,3.61,7.73,5.51,3.37,2.12,6.59,3.84,9.15,4.95,2.96,1.28,5.04,1.75,5.46,1.08.43-.68-.94-2.39-3.44-4.55-.07.2-.14.4-.22.59,1.3,1.22,1.95,2.15,1.69,2.56-.25.4-1.33.25-2.95-.35-2.31-.84-5.72-2.58-9.36-4.83-3.2-1.99-5.96-3.99-7.79-5.59-1.71-1.5-2.62-2.65-2.32-3.13.3-.48,1.78-.17,3.94.74.16-.17.32-.34.49-.51-3.47-1.6-5.96-2.25-6.43-1.51-.46.73,1.15,2.66,4.03,5.04Z"/><path class="cls-35" d="M38.91,49.12c1.26,1.1,2.73,2.27,4.37,3.48,2.3,1.69,4.91,3.44,7.69,5.15,3.01,1.85,5.98,3.5,8.7,4.85,1.58.78,3.08,1.46,4.44,2.01,1.98.8,4.32,1.58,5.7,1.48.49-.04.86-.18,1.05-.48.7-1.14-1.75-3.66-3.93-5.57-1.14-1-2.47-2.07-3.94-3.16-.03.14-.05.27-.09.41,1.4,1.05,2.68,2.07,3.78,3.04,4.22,3.69,4.02,4.83,3.86,5.09-.16.26-1.09.95-6.28-1.15-1.32-.53-2.76-1.18-4.28-1.93-2.74-1.35-5.75-3.02-8.8-4.9-2.82-1.73-5.46-3.51-7.78-5.22-1.58-1.17-3.01-2.3-4.22-3.37-4.22-3.69-4.02-4.83-3.86-5.09.06-.1.25-.27.77-.31.8-.06,2.38.19,5.52,1.46,1.54.62,3.24,1.4,5.05,2.32.11-.09.21-.17.32-.26-1.87-.95-3.64-1.77-5.23-2.41-2.69-1.09-6.04-2.14-6.74-1-.7,1.14,1.75,3.66,3.93,5.57Z"/></g></g><g id="Mountain_Range_-_Far"><path class="cls-11" d="M139.31,110.3c2.26.21,4.76.21,6.13.21h13.82c1.95,0,8.79,2.05,13.56,3.32,46.55,0,55.18,4.31,77.18,2.54v-14.93c-1.82-.29-4.48-.7-5.98-.79-2.43-.14-5.74-2.04-7.67-1.19-1.93.84-7.04.67-8.97,1.05-1.93.36-6.28.44-7.8.44-1.25,0-5.44-.44-8.02-.47h-.02c-.57-.01-1.07,0-1.43.03-1.97.2-2.75.01-5.62.48-2.87.46-5.27.97-7.36.77-2.1-.2-3.83-.08-6.04,0-2.21.08-7.95,1.58-11.48,1.1-3.53-.46-7.36.37-9.51.09-2.15-.27-7.66.86-8.37,1.32-.72.47-3.11,1.69-4.42,1.79-1.32.09-4.91.28-6.82,1.02-1.92.75-4.91,1.41-6.04,1.6-.73.12-3.09,1.07-5.15,1.62Z"/><polygon class="cls-11" points="182.74 102.53 182 100.43 182.55 100.43 182.55 100.42 182.55 100.42 181.6 97.85 182.01 97.85 182.01 97.85 182.01 97.85 181.1 94.98 180.2 97.85 180.6 97.85 180.6 97.85 180.6 97.85 180.6 97.85 179.87 99.85 179.66 100.42 179.66 100.42 179.66 100.43 180.21 100.43 179.47 102.53 180.95 102.53 180.95 104.24 181.26 104.24 181.26 102.53 182.74 102.53"/><polygon class="cls-11" points="172.99 103.08 172.51 101.75 172.87 101.75 172.86 101.74 172.86 101.74 172.27 100.11 172.52 100.11 172.52 100.11 172.52 100.11 171.95 98.3 171.38 100.11 171.63 100.11 171.63 100.11 171.63 100.11 171.63 100.11 171.17 101.38 171.04 101.74 171.04 101.74 171.03 101.75 171.39 101.75 170.91 103.08 171.85 103.08 171.85 104.16 172.05 104.16 172.05 103.08 172.99 103.08"/><polygon class="cls-11" points="208.62 102.17 207.88 100.07 208.43 100.07 208.43 100.06 208.43 100.06 207.48 97.49 207.89 97.49 207.89 97.49 207.89 97.49 206.98 94.62 206.08 97.49 206.48 97.49 206.48 97.49 206.48 97.49 206.48 97.49 205.75 99.49 205.54 100.06 205.54 100.06 205.54 100.07 206.09 100.07 205.35 102.17 206.83 102.17 206.83 103.88 207.14 103.88 207.14 102.17 208.62 102.17"/><polygon class="cls-11" points="159.2 106.14 158.46 104.04 159.01 104.04 159.01 104.03 159.01 104.03 158.07 101.45 158.47 101.45 158.47 101.45 158.47 101.45 157.57 98.59 156.66 101.45 157.07 101.45 157.07 101.46 157.07 101.46 157.07 101.46 156.33 103.46 156.12 104.03 156.12 104.03 156.12 104.04 156.67 104.04 155.93 106.14 157.41 106.14 157.41 107.85 157.72 107.85 157.72 106.14 159.2 106.14"/><polygon class="cls-11" points="196.29 103.45 195.55 101.35 196.1 101.35 196.1 101.34 196.1 101.34 195.15 98.76 195.56 98.76 195.56 98.76 195.56 98.76 194.65 95.9 193.75 98.76 194.15 98.76 194.15 98.76 194.15 98.76 194.15 98.76 193.42 100.77 193.21 101.34 193.21 101.34 193.21 101.35 193.76 101.35 193.02 103.45 194.5 103.45 194.5 105.16 194.81 105.16 194.81 103.45 196.29 103.45"/><polygon class="cls-11" points="216.21 101.99 215.46 99.89 216.02 99.89 216.01 99.88 216.01 99.88 215.07 97.31 215.48 97.31 215.48 97.31 215.48 97.31 214.57 94.44 213.67 97.31 214.07 97.31 214.07 97.31 214.07 97.31 214.07 97.31 213.34 99.31 213.13 99.88 213.13 99.88 213.13 99.89 213.68 99.89 212.94 101.99 214.41 101.99 214.41 103.7 214.73 103.7 214.73 101.99 216.21 101.99"/><polygon class="cls-11" points="163.41 104.77 163.01 103.66 163.31 103.66 163.31 103.65 163.31 103.65 162.8 102.28 163.02 102.28 163.02 102.28 163.02 102.28 162.54 100.75 162.06 102.28 162.27 102.28 162.27 102.28 162.27 102.28 162.27 102.28 161.88 103.35 161.77 103.65 161.77 103.65 161.77 103.66 162.06 103.66 161.67 104.77 162.45 104.77 162.45 105.68 162.62 105.68 162.62 104.77 163.41 104.77"/><polygon class="cls-11" points="198.33 102.31 197.93 101.19 198.22 101.19 198.22 101.18 198.22 101.18 197.72 99.81 197.94 99.81 197.94 99.81 197.94 99.81 197.45 98.29 196.97 99.81 197.19 99.81 197.19 99.81 197.19 99.81 197.19 99.81 196.8 100.88 196.69 101.18 196.69 101.18 196.68 101.19 196.98 101.19 196.58 102.31 197.37 102.31 197.37 103.22 197.54 103.22 197.54 102.31 198.33 102.31"/><polygon class="cls-11" points="217.69 101.61 217.3 100.49 217.59 100.49 217.59 100.48 217.59 100.48 217.09 99.11 217.31 99.11 217.31 99.11 217.31 99.11 216.82 97.58 216.34 99.11 216.56 99.11 216.56 99.11 216.56 99.11 216.56 99.11 216.17 100.18 216.06 100.48 216.06 100.48 216.05 100.49 216.35 100.49 215.95 101.61 216.74 101.61 216.74 102.52 216.91 102.52 216.91 101.61 217.69 101.61"/></g><g id="Moutain_Range_-_Close"><polygon class="cls-34" points="145.97 114.65 75.41 114.65 75.41 107.83 79.07 106.34 82.8 100.3 85.9 99.12 88.08 95.75 93.74 91.5 96.19 90.41 97.32 89.02 99.19 89.02 101.02 91.57 103.64 95.04 106.01 93.18 107.43 90.9 110.81 87.66 112.35 86.4 113.49 86.87 114.8 89.17 115.09 90.36 117.3 88.68 118.68 87.79 120.02 88.06 121.28 90.26 120.88 91.3 121.48 94 123.31 96.1 125.36 99.41 126.43 102.19 126.43 105.82 129.96 106.32 132.29 107.31 132.29 109.73 134.61 109.9 138.35 110.62 141.81 112.4 145.97 114.65"/><path class="cls-13" d="M103.64,95.04l.77,3.82.69,4.61-2.08,7.74s3.56-4.01,3.66-4.19c.1-.18,0-8.79,0-8.79l.99-5.37-.25-1.95-1.41,2.28-2.38,1.86Z"/><polygon class="cls-13" points="88.08 95.75 87.12 100.53 86.66 109.73 85.93 112.17 85.93 108.68 84.61 103 82.8 100.3 85.9 99.12 88.08 95.75"/><polygon class="cls-13" points="115.09 90.36 115.75 95.42 115.09 103.6 118.52 109.17 116.35 102.54 117.6 95.22 118.68 87.79 117.3 88.68 115.09 90.36"/><polygon class="cls-13" points="112.42 114.65 109.65 114.65 111.04 111.26 109.65 107.01 111.04 96.74 111.04 106.42 112.92 110.52 112.03 113.06 112.42 114.65"/><polygon class="cls-13" points="97.48 114.65 92.73 114.65 93.92 109.9 95.6 101.88 95.5 93.52 97.48 102.69 95.99 108.61 96.59 112.17 97.48 114.65"/><polygon class="cls-13" points="79.07 106.34 78.28 108.71 78.51 110.95 79.8 113.36 77.45 110.95 76.79 109.01 75.41 107.83 79.07 106.34"/><polygon class="cls-13" points="126.43 105.82 126.77 107.95 126.43 110.72 127.3 111.86 126.86 109.85 127.69 107.82 127.69 106 126.43 105.82"/><polygon class="cls-10" points="132.29 109.73 132.48 111.45 133.63 113.16 133.63 113.89 134.03 112.7 133.16 111.32 133.38 109.81 132.29 109.73"/><polygon class="cls-13" points="121.48 94 120.93 96.74 121.72 101.05 122.37 108.12 123.21 103.02 121.82 98.02 122.29 94.93 121.48 94"/><polygon class="cls-13" points="121.82 114.65 120.93 114.65 121.58 112.17 120.93 109.73 119.79 104.41 121.18 108.84 122.07 111.2 121.87 113.89 121.82 114.65"/><polygon class="cls-13" points="97.32 89.02 97.32 92.84 98.27 98.19 98.93 100.53 97.32 97.46 96.69 92.98 96.19 90.41 97.32 89.02"/><polygon class="cls-13" points="134.61 109.9 136.4 112.17 139.5 112.7 141.48 113.43 145.97 114.65 142.58 112.82 138.35 110.62 134.61 109.9"/><polygon class="cls-13" points="129.96 106.32 130.53 108.54 131.27 110.39 131.84 112.64 133.63 113.16 132.48 111.45 132.29 109.73 132.29 107.31 129.96 106.32"/><polygon class="cls-10" points="123.31 96.1 123.31 98.37 124.79 101.19 125.93 104.06 125.48 106.78 125.56 109.73 126.43 110.72 126.77 107.95 126.43 105.82 126.43 102.19 125.36 99.41 123.31 96.1"/><polygon class="cls-10" points="120.02 88.06 119.42 89.98 119.84 93.62 119.79 98.1 121.23 101.61 122.12 105.4 121.72 101.05 120.93 96.74 121.48 94 120.88 91.3 121.28 90.26 120.02 88.06"/><polygon class="cls-10" points="112.35 86.4 111.78 91.27 112.17 95.42 113.06 98.69 115.09 103.6 115.75 95.42 115.09 90.36 114.8 89.17 113.49 86.87 112.35 86.4"/><polygon class="cls-10" points="99.19 89.02 98.47 91.94 100.05 96.44 102.43 101.34 105.1 103.47 103.64 95.04 99.19 89.02"/><polygon class="cls-13" points="93.74 91.5 92.33 96.74 92.73 102.13 91.09 110.29 90.8 101.78 89.91 96.74 92.07 92.76 93.74 91.5"/><path class="cls-34" d="M0,102.44v11.4c51.5,3.84,94.5,6.02,172.82,0-4.77-1.27-11.61-3.32-13.56-3.32h-13.82c-1.36,0-3.87,0-6.13-.21-1.16-.1-2.26-.26-3.11-.5-2.51-.71-9.15-1.41-11.2-1.97-2.05-.56-10.33-.99-13.02-.99s-6.01-1.4-7.18-1.82c-1.16-.43-7.09-.7-9.87.14-2.78.86-4.93-.42-6.64-.7-1.71-.28-4.58-.28-5.92-.66s-4.48,1.09-6.46.95c-1.97-.15-5.2.42-7.99.71-2.78.27-2.96.7-5.02,0-2.06-.71-5.11-1.27-6.82-1.42-1.7-.14-3.85,0-6.37,0s-3.32-.14-7.53-1.44c-4.21-1.32-3.59.18-6.72-.64-3.14-.83-6.1,1.38-9.16.36-3.04-1.02-9.24.46-10.94.11-1.71-.34-6.46.21-9.6.07-1.74-.08-4.05-.07-5.78-.06Z"/><polygon class="cls-34" points="145.03 110.25 144.29 108.15 144.84 108.15 144.84 108.14 144.84 108.14 143.9 105.57 144.3 105.57 144.3 105.57 144.3 105.57 143.4 102.7 142.49 105.57 142.9 105.57 142.9 105.57 142.9 105.57 142.9 105.57 142.16 107.57 141.96 108.14 141.96 108.14 141.95 108.15 142.51 108.15 141.76 110.25 143.24 110.25 143.24 111.96 143.56 111.96 143.56 110.25 145.03 110.25"/><polygon class="cls-34" points="135.66 109.63 134.92 107.53 135.47 107.53 135.47 107.51 135.47 107.51 134.53 104.94 134.93 104.94 134.93 104.94 134.93 104.94 134.03 102.08 133.12 104.94 133.53 104.94 133.53 104.94 133.53 104.94 133.53 104.94 132.79 106.94 132.59 107.51 132.59 107.51 132.58 107.53 133.14 107.53 132.39 109.63 133.87 109.63 133.87 111.33 134.19 111.33 134.19 109.63 135.66 109.63"/><polygon class="cls-34" points="57.05 103.97 56.31 101.87 56.86 101.87 56.86 101.86 56.86 101.86 55.92 99.29 56.32 99.29 56.32 99.29 56.32 99.29 55.42 96.42 54.51 99.29 54.92 99.29 54.92 99.29 54.92 99.29 54.92 99.29 54.18 101.29 53.98 101.86 53.98 101.86 53.97 101.87 54.52 101.87 53.78 103.97 55.26 103.97 55.26 105.68 55.57 105.68 55.57 103.97 57.05 103.97"/><polygon class="cls-34" points="75.98 106.52 75.24 104.42 75.79 104.42 75.79 104.41 75.79 104.41 74.85 101.83 75.25 101.83 75.25 101.83 75.25 101.83 74.35 98.97 73.44 101.83 73.85 101.83 73.84 101.83 73.84 101.83 73.84 101.83 73.11 103.84 72.9 104.41 72.9 104.41 72.9 104.42 73.45 104.42 72.71 106.52 74.19 106.52 74.19 108.23 74.5 108.23 74.5 106.52 75.98 106.52"/><polygon class="cls-34" points="151.49 110.25 150.75 108.15 151.3 108.15 151.3 108.14 151.3 108.14 150.35 105.57 150.76 105.57 150.76 105.57 150.76 105.57 149.85 102.7 148.95 105.57 149.35 105.57 149.35 105.57 149.35 105.57 149.35 105.57 148.62 107.57 148.41 108.14 148.41 108.14 148.41 108.15 148.96 108.15 148.22 110.25 149.7 110.25 149.7 111.96 150.01 111.96 150.01 110.25 151.49 110.25"/><polygon class="cls-34" points="163.3 112.83 162.56 110.73 163.11 110.73 163.11 110.71 163.11 110.71 162.17 108.14 162.57 108.14 162.57 108.14 162.57 108.14 161.67 105.27 160.76 108.14 161.17 108.14 161.17 108.14 161.17 108.14 161.17 108.14 160.43 110.14 160.22 110.71 160.22 110.71 160.22 110.73 160.77 110.73 160.03 112.83 161.51 112.83 161.51 114.53 161.82 114.53 161.82 112.83 163.3 112.83"/><polygon class="cls-34" points="179.47 114.12 178.73 112.02 179.28 112.02 179.28 112.01 179.28 112.01 178.33 109.44 178.74 109.44 178.74 109.44 178.74 109.44 177.83 106.57 176.93 109.44 177.33 109.44 177.33 109.44 177.33 109.44 177.33 109.44 176.6 111.44 176.39 112.01 176.39 112.01 176.39 112.02 176.94 112.02 176.2 114.12 177.68 114.12 177.68 115.83 177.99 115.83 177.99 114.12 179.47 114.12"/><polygon class="cls-34" points="192.64 116.28 191.89 114.18 192.45 114.18 192.44 114.17 192.44 114.17 191.5 111.6 191.91 111.6 191.91 111.6 191.91 111.6 191 108.73 190.1 111.6 190.5 111.6 190.5 111.6 190.5 111.6 190.5 111.6 189.77 113.6 189.56 114.17 189.56 114.17 189.56 114.18 190.11 114.18 189.37 116.28 190.84 116.28 190.84 117.99 191.16 117.99 191.16 116.28 192.64 116.28"/><polygon class="cls-34" points="206.04 115.01 205.3 112.91 205.85 112.91 205.85 112.9 205.85 112.9 204.91 110.33 205.31 110.33 205.31 110.33 205.31 110.33 204.41 107.46 203.5 110.33 203.91 110.33 203.91 110.33 203.91 110.33 203.91 110.33 203.17 112.33 202.97 112.9 202.97 112.9 202.96 112.91 203.51 112.91 202.77 115.01 204.25 115.01 204.25 116.72 204.56 116.72 204.56 115.01 206.04 115.01"/><polygon class="cls-34" points="153.23 110.73 152.84 109.61 153.13 109.61 153.13 109.6 153.13 109.6 152.63 108.23 152.84 108.23 152.84 108.23 152.84 108.23 152.36 106.7 151.88 108.23 152.1 108.23 152.1 108.23 152.1 108.23 152.1 108.23 151.7 109.3 151.59 109.6 151.59 109.6 151.59 109.61 151.89 109.61 151.49 110.73 152.28 110.73 152.28 111.64 152.45 111.64 152.45 110.73 153.23 110.73"/><polygon class="cls-34" points="165.48 112.28 165.09 111.16 165.38 111.16 165.38 111.15 165.38 111.15 164.88 109.78 165.09 109.78 165.09 109.78 165.09 109.78 164.61 108.26 164.13 109.78 164.35 109.78 164.35 109.78 164.35 109.78 164.35 109.78 163.95 110.85 163.84 111.15 163.84 111.15 163.84 111.16 164.14 111.16 163.74 112.28 164.53 112.28 164.53 113.19 164.7 113.19 164.7 112.28 165.48 112.28"/><polygon class="cls-34" points="173.69 113.84 173.3 112.72 173.59 112.72 173.59 112.71 173.59 112.71 173.09 111.34 173.3 111.34 173.3 111.34 173.3 111.34 172.82 109.81 172.34 111.34 172.55 111.34 172.55 111.34 172.55 111.34 172.55 111.34 172.16 112.41 172.05 112.71 172.05 112.71 172.05 112.72 172.35 112.72 171.95 113.84 172.74 113.84 172.74 114.75 172.91 114.75 172.91 113.84 173.69 113.84"/><polygon class="cls-34" points="184.98 114.37 184.58 113.25 184.88 113.25 184.88 113.24 184.88 113.24 184.37 111.87 184.59 111.87 184.59 111.87 184.59 111.87 184.11 110.35 183.63 111.87 183.84 111.87 183.84 111.87 183.84 111.87 183.84 111.87 183.45 112.94 183.34 113.24 183.34 113.24 183.34 113.25 183.63 113.25 183.24 114.37 184.02 114.37 184.02 115.28 184.19 115.28 184.19 114.37 184.98 114.37"/><polygon class="cls-34" points="201.31 114.37 200.92 113.25 201.21 113.25 201.21 113.24 201.21 113.24 200.71 111.87 200.92 111.87 200.92 111.87 200.92 111.87 200.44 110.35 199.96 111.87 200.17 111.87 200.17 111.87 200.17 111.87 200.17 111.87 199.78 112.94 199.67 113.24 199.67 113.24 199.67 113.25 199.97 113.25 199.57 114.37 200.36 114.37 200.36 115.28 200.53 115.28 200.53 114.37 201.31 114.37"/><polygon class="cls-34" points="70.73 106.83 70.33 105.71 70.62 105.71 70.62 105.71 70.62 105.71 70.12 104.34 70.34 104.34 70.34 104.34 70.34 104.34 69.85 102.81 69.37 104.34 69.59 104.34 69.59 104.34 69.59 104.34 69.59 104.34 69.2 105.4 69.09 105.71 69.09 105.71 69.08 105.71 69.38 105.71 68.98 106.83 69.77 106.83 69.77 107.74 69.94 107.74 69.94 106.83 70.73 106.83"/><polygon class="cls-34" points="65.81 106.83 65.41 105.71 65.71 105.71 65.71 105.71 65.71 105.71 65.2 104.34 65.42 104.34 65.42 104.34 65.42 104.34 64.94 102.81 64.46 104.34 64.67 104.34 64.67 104.34 64.67 104.34 64.67 104.34 64.28 105.4 64.17 105.71 64.17 105.71 64.17 105.71 64.46 105.71 64.07 106.83 64.85 106.83 64.85 107.74 65.02 107.74 65.02 106.83 65.81 106.83"/><polygon class="cls-34" points="59.71 105.52 59.31 104.4 59.61 104.4 59.6 104.39 59.6 104.39 59.1 103.02 59.32 103.02 59.32 103.02 59.32 103.02 58.83 101.5 58.35 103.02 58.57 103.02 58.57 103.02 58.57 103.02 58.57 103.02 58.18 104.09 58.07 104.39 58.07 104.39 58.06 104.4 58.36 104.4 57.96 105.52 58.75 105.52 58.75 106.43 58.92 106.43 58.92 105.52 59.71 105.52"/><polygon class="cls-34" points="81.54 104.37 81.14 103.25 81.44 103.25 81.44 103.24 81.44 103.24 80.93 101.87 81.15 101.87 81.15 101.87 81.15 101.87 80.67 100.34 80.19 101.87 80.4 101.87 80.4 101.87 80.4 101.87 80.4 101.87 80.01 102.94 79.9 103.24 79.9 103.24 79.9 103.25 80.19 103.25 79.8 104.37 80.58 104.37 80.58 105.27 80.75 105.27 80.75 104.37 81.54 104.37"/><polygon class="cls-34" points="157.67 111.85 157.28 110.73 157.57 110.73 157.57 110.73 157.57 110.73 157.07 109.35 157.28 109.35 157.28 109.35 157.28 109.35 156.8 107.83 156.32 109.35 156.54 109.35 156.54 109.35 156.54 109.35 156.54 109.35 156.15 110.42 156.03 110.73 156.03 110.73 156.03 110.73 156.33 110.73 155.93 111.85 156.72 111.85 156.72 112.76 156.89 112.76 156.89 111.85 157.67 111.85"/><polygon class="cls-34" points="196.15 114.74 195.75 113.63 196.05 113.63 196.04 113.62 196.04 113.62 195.54 112.25 195.76 112.25 195.76 112.25 195.76 112.25 195.28 110.72 194.79 112.25 195.01 112.25 195.01 112.25 195.01 112.25 195.01 112.25 194.62 113.32 194.51 113.62 194.51 113.62 194.51 113.63 194.8 113.63 194.41 114.74 195.19 114.74 195.19 115.65 195.36 115.65 195.36 114.74 196.15 114.74"/><polygon class="cls-34" points="207.85 115.25 207.46 114.13 207.75 114.13 207.75 114.12 207.75 114.12 207.25 112.75 207.47 112.75 207.47 112.75 207.47 112.75 206.98 111.23 206.5 112.75 206.72 112.75 206.72 112.75 206.72 112.75 206.72 112.75 206.33 113.82 206.22 114.12 206.22 114.12 206.21 114.13 206.51 114.13 206.11 115.25 206.9 115.25 206.9 116.16 207.07 116.16 207.07 115.25 207.85 115.25"/><polygon class="cls-34" points="79.35 104.37 78.95 103.25 79.25 103.25 79.24 103.24 79.24 103.24 78.74 101.87 78.96 101.87 78.96 101.87 78.96 101.87 78.48 100.34 77.99 101.87 78.21 101.87 78.21 101.87 78.21 101.87 78.21 101.87 77.82 102.94 77.71 103.24 77.71 103.24 77.7 103.25 78 103.25 77.6 104.37 78.39 104.37 78.39 105.27 78.56 105.27 78.56 104.37 79.35 104.37"/><polygon class="cls-34" points="50.58 104.37 50.18 103.25 50.48 103.25 50.48 103.24 50.48 103.24 49.98 101.87 50.19 101.87 50.19 101.87 50.19 101.87 49.71 100.34 49.23 101.87 49.44 101.87 49.44 101.87 49.44 101.87 49.44 101.87 49.05 102.94 48.94 103.24 48.94 103.24 48.94 103.25 49.23 103.25 48.84 104.37 49.63 104.37 49.63 105.27 49.79 105.27 49.79 104.37 50.58 104.37"/><polygon class="cls-34" points="47.83 104.37 47.43 103.25 47.73 103.25 47.72 103.24 47.72 103.24 47.22 101.87 47.44 101.87 47.44 101.87 47.44 101.87 46.96 100.34 46.47 101.87 46.69 101.87 46.69 101.87 46.69 101.87 46.69 101.87 46.3 102.94 46.19 103.24 46.19 103.24 46.19 103.25 46.48 103.25 46.09 104.37 46.87 104.37 46.87 105.27 47.04 105.27 47.04 104.37 47.83 104.37"/><polygon class="cls-34" points="41.97 103.32 41.57 102.2 41.87 102.2 41.86 102.19 41.86 102.19 41.36 100.82 41.58 100.82 41.58 100.82 41.58 100.82 41.1 99.29 40.61 100.82 40.83 100.82 40.83 100.82 40.83 100.82 40.83 100.82 40.44 101.89 40.33 102.19 40.33 102.19 40.33 102.2 40.62 102.2 40.22 103.32 41.01 103.32 41.01 104.23 41.18 104.23 41.18 103.32 41.97 103.32"/><path class="cls-34" d="M60.5,117.85c3.67.7,27.17,1.51,28.83,3.27,1.67,1.77,45.83,1.77,49.17,2.43,3.33.66-15.33.88-11.83,3.97,3.5,3.08,48,.23,54.5-.18,6.5-.41,19.17.63,28.67-.07,9.5-.7,23.83-.4,26.83,0s13.33-1.07,13.33-1.07v-12.59H53.22c-9.9,3.16,3.9,3.59,7.28,4.24Z"/></g><g id="Foreground"><g class="cls-48"><path class="cls-15" d="M34.22,129.5s-.21.12-.44.18c-.23.06-1.56.19-2.28-.12-.63-.27.07-.27.45-.35.38-.07,1.14.14,1.14.14l1.14.14Z"/></g><path class="cls-22" d="M34.22,129.5c-.65.23-1.84.18-1.84.18-.7-.08-.86-.36-.86-.36.18-.27.73-.42.73-.42.52.13,1.36.08,1.36.08.39.12.6.52.6.52Z"/><path class="cls-17" d="M33.62,128.97s-.84.05-1.36-.08c0,0,.26-.08.87-.02.54.05.49.09.49.09Z"/><path class="cls-32" d="M33.65,128.99c.15.14.41.41.3.59.1-.02.19-.05.27-.08,0,0-.2-.38-.57-.51Z"/><path class="cls-32" d="M32.76,128.91c.43.04.54.01.55-.01-.05,0-.11-.01-.18-.02-.33-.03-.56-.02-.7-.01.09.02.2.03.33.04Z"/><path class="cls-4" d="M33.78,129.6c-.56.09-1.54-.02-1.75-.28-.13-.16-.01-.3.1-.39-.17.06-.48.19-.6.37,0,0,.16.28.86.36,0,0,.76.03,1.4-.07Z"/><rect class="cls-42" y="113.61" width="250" height="46.39"/><path class="cls-40" d="M0,127.86s42.25-1.33,48.5,0,38.75,3.31,49.5,3.64c10.75.33,49.5,2.32,57.25,2.32s-1.5,3.64-30.25,2.98c-28.75-.66-27.83.88-27,1.99.83,1.1,17.33,3.98,24.33,3.53,7-.44,15.33,1.1,12.17,3.09-3.17,1.99,8.5,7.95,15.33,7.51,6.83-.44,57.17,2.21,53.17,3.31-4,1.1,27.83-1.33,29.33,3.75H0v-32.14Z"/><path class="cls-6" d="M250,128.98c-3.25.18-17.64.98-23.83.98-7,0-57.3.77-55.17,2.43,2.38,1.85.17,6.85-11.67,7.51-11.83.66-16,1.07-16.17,3.74-.17,2.67,21.83,2.01,24.83,1.79s39.98,1.99,38.49,4.42c-1.49,2.43,9.01,2.43,14.51,2.87,5.16.41,14.28,3.55,29,2.84v-26.58Z"/><path class="cls-34" d="M0,113.61v8.08c5.88-1.13,20.89,4.03,24.17,3.52,3.5-.55,22.67,1.33,25.54.55,2.88-.77,31.46,3.2,38.04,3.17,6.58-.03,19.92-.19,19.81-.63-.1-.44-3.31-1.6-8.94-1.03-5.62.57-23.38-.07-32.5-4.05-9.12-3.98-26.12-2.48-21.5-5.37s-19.38-2.75-19.38-2.75l1.43-1.49H0Z"/><polygon class="cls-42" points="4.67 143.69 7.87 143.62 10.45 143.01 11.88 142.98 15.07 143.46 21.06 143.95 15.1 143.7 15.97 144.06 11.85 143.57 10.1 143.61 8.05 143.89 4.67 143.69"/><polygon class="cls-42" points="18.41 153.79 21.28 153.73 23.61 153.31 24.9 153.28 27.77 153.58 33.16 153.87 27.8 153.73 28.58 153.97 24.87 153.67 23.29 153.7 21.45 153.9 18.41 153.79"/><polygon class="cls-42" points="153.19 149.96 157.16 149.87 160.37 149.18 162.15 149.14 166.11 149.66 173.56 150.18 166.16 149.92 167.24 150.33 162.28 150.16 159.92 150.12 157.39 150.16 153.19 149.96"/><polygon class="cls-42" points="110.69 151.9 114.59 151.81 117.75 151.25 119.49 151.21 123.38 151.61 130.7 152 123.43 151.83 124.49 152.15 119.46 151.73 117.32 151.78 114.82 152.05 110.69 151.9"/><polygon class="cls-42" points="250 89.98 250 120.89 206.47 120.89 206.72 119.99 207.13 118.53 215.11 112.69 217.38 110.06 219.38 107.76 219.38 92.16 220.25 90.3 221.59 87.43 222.02 87.43 223.54 89.93 223.69 98.68 225.36 102.65 225.36 87.11 227.75 84.79 227.75 84.78 229.34 83.25 231.23 85.91 231.23 78.66 232.52 72.57 234.07 72.57 237.98 78.35 237.98 83.67 239.15 85.13 240.51 82.21 241.65 76.63 244.76 76.63 247.18 79.4 249.15 84.92 249.15 100.09 250 89.98"/><polygon class="cls-10" points="234.07 73.15 235.46 84.57 235.46 99.09 234.07 108.48 238.44 116.61 236.47 106.39 238.04 100 238.04 91.38 237.97 84.25 237.97 78.94 234.07 73.15"/><polygon class="cls-10" points="244.76 77.21 246.12 84.08 246.37 92.56 246.02 106.18 247.63 93.67 247.63 85.68 247.18 79.98 244.76 77.21"/><polygon class="cls-10" points="222.03 88.01 222.03 92.35 222.63 99.3 222.33 112.09 223.44 102.99 223.69 99.27 223.54 90.51 222.03 88.01"/><polygon class="cls-10" points="229.34 83.84 229.34 89.85 230.31 94.88 230.31 105.35 229.34 114.04 230.31 118.63 230.31 113.62 231.93 104.24 232.13 93.88 230.73 89.29 231.23 86.49 229.34 83.84"/><polygon class="cls-10" points="219.37 108.34 219.37 111.19 218.44 114.32 218.44 119.04 216.82 115.78 217.48 112.09 217.38 110.65 219.37 108.34"/><polygon class="cls-23" points="232.52 73.15 232.99 76.36 232.75 80.88 232.52 88.39 232.99 96.38 231.93 104.24 232.13 93.88 230.73 89.29 231.23 86.49 231.23 79.25 232.52 73.15"/><polygon class="cls-23" points="239.15 85.71 239.81 89.85 239.81 98.59 240.71 89.57 241.02 85.4 242.03 80.67 242.56 77.21 241.65 77.21 240.51 82.79 239.15 85.71"/><polygon class="cls-23" points="250 90.57 250 101.86 249.68 102.57 249.15 100.68 250 90.57"/><polygon class="cls-23" points="227.75 85.37 227.18 88.69 226.98 94.71 226.22 104.59 224.7 112.77 225.36 103.23 225.36 87.69 227.75 85.37"/><polygon class="cls-23" points="220.25 90.88 220.25 94.88 219.7 98.59 219.37 108.34 219.37 92.75 220.25 90.88"/><polygon class="cls-23" points="215.11 113.27 215.05 113.69 214.85 115.29 212.28 117.86 209.8 119.81 209.25 121.48 206.47 121.48 207.13 119.11 215.11 113.27"/><path class="cls-42" d="M250,120.58v8.98h-74.67s10.49-4.97,15.45-4.49c4.96.49,15.69-4.49,15.69-4.49h43.53Z"/><polygon class="cls-10" points="241.5 129.55 241.5 125.07 242.03 118.92 241.5 110.68 242.03 102.34 242.03 110.58 242.56 118.81 242.03 124.91 242.56 129.55 241.5 129.55"/><polygon class="cls-23" points="241.5 129.55 238.44 129.55 240.12 124.69 240.95 119.73 240.62 112.14 241.5 110.68 242.03 118.92 241.5 124.91 241.5 129.55"/><polygon class="cls-10" points="250 122.59 250 125.72 249.68 123.3 250 122.59"/><polygon class="cls-10" points="249.68 129.56 250 127.54 250 129.56 249.68 129.56"/><polygon class="cls-10" points="226.22 129.55 227.18 129.55 226.7 126.7 227.18 121.77 226.7 115.24 226.47 119.82 226.22 125.8 226.22 127.96 226.22 129.55"/><polygon class="cls-42" points="74.35 137.83 0 137.83 0 85.43 4.22 93.1 8.16 88.87 10.49 83.68 16.11 76.29 18.65 73.42 20.53 74.49 22.71 79.74 23.2 82.45 26.85 78.61 29.14 76.58 31.35 77.2 33.44 82.22 32.79 84.59 33.77 90.73 35.11 92.85 36.81 95.53 40.21 103.08 41.96 109.4 41.96 117.69 44.07 118.1 47.83 118.82 51.68 121.08 51.68 126.6 55.53 127 61.72 128.63 67.46 132.7 68.73 133.65 74.35 137.83"/><path class="cls-23" d="M4.22,93.1l1.27,8.7,1.15,10.51-3.44,17.64s5.9-9.13,6.07-9.55,0-20.05,0-20.05l1.64-12.23-.41-4.45-2.34,5.19-3.93,4.23Z"/><polygon class="cls-23" points="23.2 82.44 24.29 93.97 23.2 112.62 28.88 125.33 25.27 110.22 27.35 93.52 29.14 76.58 26.85 78.61 23.2 82.44"/><polygon class="cls-23" points="18.77 137.83 14.18 137.83 16.47 130.09 14.18 120.41 16.47 96.98 16.47 119.06 19.59 128.4 18.11 134.2 18.77 137.83"/><polygon class="cls-23" points="41.97 117.69 42.54 122.55 41.97 128.87 43.41 131.46 42.69 126.88 44.07 122.25 44.07 118.1 41.97 117.69"/><polygon class="cls-23" points="51.68 126.6 51.99 130.52 53.9 134.43 53.9 136.08 54.56 133.38 53.12 130.22 53.48 126.79 51.68 126.6"/><polygon class="cls-23" points="33.77 90.73 32.87 96.98 34.18 106.82 35.24 122.92 36.64 111.31 34.34 99.91 35.11 92.85 33.77 90.73"/><polygon class="cls-23" points="34.34 137.83 32.87 137.83 33.93 132.17 32.87 126.6 30.98 114.46 33.28 124.58 34.75 129.96 34.42 136.08 34.34 137.83"/><polygon class="cls-10" points="55.53 127 58.49 132.17 63.63 133.38 66.91 135.03 74.34 137.83 68.73 133.65 61.72 128.64 55.53 127"/><polygon class="cls-10" points="47.83 118.82 48.77 123.88 50 128.11 50.94 133.25 53.9 134.43 51.99 130.52 51.68 126.6 51.68 121.08 47.83 118.82"/><polygon class="cls-10" points="36.8 95.53 36.8 100.7 39.26 107.13 41.14 113.67 40.41 119.88 40.53 126.6 41.97 128.87 42.54 122.55 41.97 117.69 41.97 109.4 40.2 103.09 36.8 95.53"/><polygon class="cls-10" points="31.35 77.2 30.37 81.58 31.06 89.87 30.98 100.08 33.36 108.09 34.83 116.72 34.18 106.82 32.87 96.98 33.77 90.73 32.79 84.59 33.44 82.22 31.35 77.2"/><polygon class="cls-10" points="18.65 73.42 17.7 84.52 18.36 93.99 19.83 101.44 23.2 112.62 24.29 93.97 23.2 82.44 22.71 79.74 20.53 74.49 18.65 73.42"/><polygon class="cls-10" points="6.64 112.32 2.21 107.47 0 101.19 0 85.25 4.22 93.1 6.64 112.32"/><path class="cls-40" d="M68.67,137.83h29.19s-13.24-1.83-20.37-1.58-20.85,1.58-20.85,1.58h12.02Z"/><path class="cls-39" d="M127.11,135.05c.2-.08.35-.17.35-.17l-1.4-.15s-.94-.25-1.4-.15c-.46.1-1.33.11-.55.44.75.31,2.04.22,2.59.13,0,0,.35-.09.4-.1Z"/><polygon class="cls-39" points="126.69 135.16 126.71 135.15 126.7 135.16 126.69 135.16"/><path class="cls-10" d="M127.46,134.88c-.79.3-2.25.26-2.25.26-.86-.08-1.06-.42-1.06-.42.21-.33.89-.53.89-.53.64.15,1.67.06,1.67.06.48.14.75.63.75.63Z"/><path class="cls-3" d="M126.72,134.26s-1.03.08-1.67-.06c0,0,.32-.1,1.07-.04.66.05.61.1.61.1Z"/><path class="cls-3" d="M126.75,134.27c.19.17.51.5.38.71.12-.03.23-.06.33-.1,0,0-.25-.46-.71-.61Z"/><path class="cls-3" d="M125.66,134.2c.52.04.66,0,.68-.03-.06,0-.14-.01-.23-.02-.4-.03-.68-.02-.85,0,.11.02.24.03.4.04Z"/><path class="cls-42" d="M126.93,135.02c-.69.12-1.88.01-2.15-.3-.17-.2-.02-.37.11-.48-.21.08-.58.24-.73.47,0,0,.2.34,1.06.42,0,0,.93.02,1.71-.12Z"/><path class="cls-39" d="M198.03,154.04c.42-.16.74-.35.74-.35l-2.93-.31s-1.96-.52-2.93-.32c-.97.21-2.79.24-1.15.92,1.58.65,4.28.45,5.43.28,0,0,.74-.18.85-.21Z"/><path class="cls-39" d="M197.16,154.26l.02-.02s-.01,0-.02.01c0,0,0,0,0,0Z"/><path class="cls-10" d="M198.77,153.68c-1.66.63-4.72.55-4.72.55-1.8-.16-2.22-.88-2.22-.88.45-.69,1.87-1.11,1.87-1.11,1.34.31,3.51.13,3.51.13,1,.29,1.57,1.31,1.57,1.31Z"/><path class="cls-3" d="M197.21,152.37s-2.17.18-3.51-.13c0,0,.67-.21,2.23-.09,1.39.11,1.27.22,1.27.22Z"/><path class="cls-3" d="M197.29,152.4c.4.35,1.08,1.04.79,1.49.25-.06.49-.13.7-.21,0,0-.53-.96-1.49-1.29Z"/><path class="cls-3" d="M194.99,152.25c1.1.07,1.38.01,1.42-.06-.13-.01-.29-.03-.47-.04-.85-.07-1.43-.03-1.79,0,.23.04.51.07.84.09Z"/><path class="cls-42" d="M197.64,153.98c-1.45.26-3.95.03-4.51-.63-.35-.41-.04-.78.24-1-.45.17-1.22.51-1.54.99,0,0,.42.72,2.22.88,0,0,1.95.05,3.59-.25Z"/><path class="cls-39" d="M90.88,149.9c1.1-.42,1.94-.93,1.94-.93l-7.68-.82s-5.14-1.37-7.69-.83c-2.55.54-7.31.63-3.02,2.4,4.14,1.71,11.22,1.19,14.23.74,0,0,1.93-.48,2.22-.56Z"/><path class="cls-39" d="M88.59,150.5l.06-.04s-.04.02-.06.04c0,0,0,0,0,0Z"/><path class="cls-6" d="M92.81,148.97c-4.36,1.64-12.36,1.43-12.36,1.43-4.72-.43-5.82-2.31-5.82-2.31,1.17-1.82,4.89-2.9,4.89-2.9,3.51.8,9.19.34,9.19.34,2.63.77,4.1,3.44,4.1,3.44Z"/><path class="cls-3" d="M88.71,145.53s-5.68.46-9.19-.34c0,0,1.76-.54,5.85-.23,3.64.28,3.33.57,3.33.57Z"/><path class="cls-3" d="M88.92,145.6c1.04.91,2.83,2.72,2.07,3.91.65-.15,1.27-.33,1.83-.54,0,0-1.4-2.53-3.9-3.37Z"/><path class="cls-3" d="M82.9,145.23c2.88.2,3.62.03,3.72-.15-.35-.04-.76-.07-1.24-.11-2.22-.17-3.75-.09-4.69.02.61.1,1.34.18,2.21.24Z"/><path class="cls-42" d="M89.86,149.75c-3.79.67-10.36.07-11.83-1.64-.92-1.07-.11-2.05.63-2.63-1.17.44-3.21,1.34-4.02,2.6,0,0,1.1,1.89,5.82,2.31,0,0,5.12.13,9.4-.65Z"/><path class="cls-39" d="M45.51,149.01c1.45-.56,2.56-1.23,2.56-1.23l-10.16-1.09s-6.8-1.81-10.17-1.1c-3.37.71-9.67.83-3.99,3.18,5.48,2.26,14.84,1.57,18.81.98,0,0,2.55-.63,2.94-.74Z"/><path class="cls-39" d="M42.49,149.8l.08-.06s-.05.03-.08.05c0,0,0,0,0,0Z"/><path class="cls-6" d="M48.07,147.79c-5.76,2.17-16.34,1.89-16.34,1.89-6.24-.56-7.7-3.06-7.7-3.06,1.55-2.4,6.46-3.83,6.46-3.83,4.64,1.06,12.15.45,12.15.45,3.48,1.01,5.43,4.55,5.43,4.55Z"/><path class="cls-3" d="M42.65,143.23s-7.51.61-12.15-.45c0,0,2.33-.72,7.74-.3,4.81.37,4.41.75,4.41.75Z"/><path class="cls-3" d="M42.92,143.33c1.38,1.2,3.74,3.6,2.73,5.18.86-.2,1.68-.44,2.42-.72,0,0-1.85-3.34-5.15-4.46Z"/><path class="cls-3" d="M34.96,142.83c3.81.26,4.79.04,4.91-.2-.47-.05-1-.1-1.64-.15-2.94-.23-4.96-.12-6.2.03.81.13,1.77.24,2.92.32Z"/><path class="cls-42" d="M44.16,148.81c-5.01.88-13.7.1-15.64-2.17-1.22-1.42-.15-2.7.83-3.47-1.55.58-4.24,1.77-5.32,3.44,0,0,1.46,2.5,7.7,3.06,0,0,6.77.18,12.43-.86Z"/><path class="cls-39" d="M229.73,144.83c2.73-1.04,4.81-2.3,4.81-2.3l-19.09-2.05s-12.77-3.41-19.11-2.07-18.17,1.56-7.5,5.97c10.29,4.25,27.88,2.95,35.36,1.84,0,0,4.8-1.19,5.53-1.39Z"/><path class="cls-39" d="M224.05,146.32l.16-.1s-.1.06-.14.09c0,0,0,0-.01.01Z"/><path class="cls-6" d="M234.54,142.53c-10.83,4.08-30.71,3.55-30.71,3.55-11.73-1.06-14.46-5.75-14.46-5.75,2.92-4.52,12.14-7.2,12.14-7.2,8.73,1.99,22.84.85,22.84.85,6.54,1.9,10.2,8.55,10.2,8.55Z"/><path class="cls-3" d="M224.35,133.97s-14.11,1.14-22.84-.85c0,0,4.38-1.35,14.55-.56,9.04.7,8.29,1.41,8.29,1.41Z"/><path class="cls-3" d="M224.86,134.15c2.59,2.26,7.02,6.77,5.13,9.73,1.62-.38,3.16-.83,4.55-1.35,0,0-3.47-6.28-9.68-8.38Z"/><path class="cls-3" d="M209.9,133.22c7.16.49,9,.08,9.24-.38-.88-.09-1.89-.18-3.08-.27-5.52-.43-9.32-.23-11.65.05,1.51.25,3.32.46,5.49.61Z"/><path class="cls-42" d="M227.19,144.46c-9.42,1.66-25.74.18-29.39-4.07-2.29-2.66-.27-5.08,1.57-6.53-2.91,1.08-7.97,3.33-10,6.47,0,0,2.74,4.69,14.46,5.75,0,0,12.72.33,23.36-1.62Z"/><path class="cls-42" d="M45.83,160h5.92l1.33-2.58,2.67-3.79,5.25-1.95,6.58-1.34s5.58,3.08,6.5,3.29c.92.21,8.58.96,9.83.96s7.2-.33,7.2-.33l-7.46-.28s-5.32-1.76-5.57-1.83c-.25-.06-4.75-.47-4.75-.47l-3.5-2.63-3.42-1.49,1.67-2.69,7.25-1.91,8.79-1.12h-9.04s-2.75.76-3.33,1.05c-.58.29-5,.76-5,.76l-2.33,1.63-2,2.3-4.58.39h-2.75l-3.5.56,1.83.54h3.24l-.4.76-3.75,1.1-1.75.31v2.42l-5.25.71h-7.23l-3.5.17s7.53,1.75,7.88,1.75,1.84,0,2.84-.42c1-.42,1.84-1.17,3.34-1.17s3-.25,3-.25l1.33-1.89.08,1.09-.83,1.46-3.25,1.5-3.33,3.42Z"/><path class="cls-24" d="M55,151.5l1.65-.58,2.22-1.4,2.94-.47,2.25-.8,2.31-2.82-1.38,3.62,2.88.47h-3.31l-3.56.82s-3.4.85-3.67,1.17c-.27.31-3.11,1.56-3.11,1.56l.78-1.56Z"/><polygon class="cls-42" points="0 139.12 0 141.83 2.88 140.59 7.88 140.59 12.87 140.59 19.88 142.35 24.03 142.35 30.49 140.74 39.25 141.83 45.5 141.83 39.87 140.74 33.62 139.82 29.2 139.12 25.78 140.59 21.06 140.74 16.5 139.82 17.98 139.78 19.88 138.88 22.12 138.47 19.81 138.47 17.12 138.97 14.34 139.16 9.38 139.69 6.66 139.66 4.06 139.59 2.53 139.53 .91 139.69 0 139.12"/><path class="cls-42" d="M109.12,140.41h-13.38l-4.88,1.91h5.69l5.31-.95,5.26.99,9.74,3.08,13.82.49s-3.11-.94-3.59-1.05-8.98-1.69-8.98-1.69l-4-.39-5-2.37Z"/><path class="cls-42" d="M250,131.75v5.06h-2.75l-4.12-1.06-3.5-2.31-5.08-1.12s-5.29-.19-5.67-.57-10.25-.5-10.25-.5h-7.62l15.25-.62h4.88l6.26,1,5.24,1.26,4.62,1.81,2.75-2.95Z"/><path class="cls-42" d="M205,150.33l6-1.95h13.36c.39,0,6.01-1.49,6.76-1.06.75.43,7.1-1.22,7.1-1.22l-4.1,2.11-5.88,1.52-1.5.59s4.92,2.11,5.58,2.2c.67.09,4.21,0,4.21,0l-4.84,1.36-4.51-.75-5.9-1.93-5.74-.88h-4.55l-6,1.35v-1.35Z"/><polygon class="cls-42" points="148.04 139.98 152.58 141.38 157.62 141.38 166.75 141.83 178.38 140.41 173.56 141.83 166.75 142.71 159.5 142.71 154.65 143.64 153.19 144.87 146 142.71 143.17 143.64 138.44 143.64 143.01 139.98 148.04 139.98"/></g><g id="Sun"><path class="cls-9" d="M199.16,30.03c-3.72-.42-9.88-.83-18.16-.44-14.26.69-5.62,21.39-34.57,14.98-28.94-6.42-32.52-32.62-65.57-15.29-33.05,17.33-29.14,26.22-56.86,11.36-6.85-3.67-15.13-8.31-24-13.09v32.87c14.66-10.09,33.82,12.89,51.4,5.39,18.32-7.82,12.05-17.3,31.07-19.08,19.02-1.78,25.89-10.91,38.74-2.92,12.86,7.99,38.32,16.05,44.1,7.98,5.78-8.07,10.93-18.75,16.79-18.68,5.87.07,21.16-2.47,21.16-2.47,0,0-1.41-.3-4.11-.61ZM26.97,57.29c-6.52-3.06-15.86-13-9.42-14.82,0,0,6.8-.64,8.39,3.87,1.59,4.51-1.14,4.67,5.3,5.8,6.44,1.13,2.24,8.22-4.27,5.16ZM40.26,59.22c0-2.58,1.13-5.32,1.13-5.32,0,0,3.06-4.99,5.8-2.9,2.74,2.09-.23,3.22,1.33,8.22,1.57,4.99-8.26,2.58-8.26,0ZM113.37,38.41c-6.6-2.71-13.69,2-14.49.53-.81-1.47,1.14-4.74,5.15-5.8,0,0,5.96-2.56,8.86,0,2.9,2.56,1.77,3.99,6.92,4.24,5.15.25.16,3.74-6.44,1.03Z"/><path class="cls-9" d="M124.16,105.41c-8.7,1.99-18.76-.93-18.8,4.4-.04,5.33-10.56,12.95-7.64,5.25,0,0,1.23-11.26,10.21-11.88,8.98-.61,20.43-10.66,23.64-7.57,3.21,3.09,1.28,7.8-7.41,9.8ZM173.84,66.31s-1.44-1.77-1.04-3.71c.4-1.93-.5-2.5,1.04-3.71,1.54-1.21,1.38.56,1.14,2.66s-.09,4.98.15,5.79c.25.82-1.29-1.04-1.29-1.04ZM199.67,17.9s-7.14,4.98-5.57,10.51c1.57,5.52-.67,5.65-5.47,13.56-4.8,7.91-18.28,8.58-17.93,18.79.34,10.2-15.37,23.26-29.87,25.77-14.49,2.5-39.36,2.78-44.61,13.6-5.25,10.81-19.97,24.03-30.81,32.55-7.1,5.58-40.19,6.68-65.41,8.77v10.24c28.18,1.05,69.17.11,87.77-2.13,31.56-3.8,36.97-13.71,43.81-27.09,6.84-13.38.21-27.02,19.57-28.85,19.36-1.82,16.01,4.38,24.23-12.31,8.21-16.69-5.27-19.1,6.3-27.81,11.57-8.7,17.09-3.47,17.71-16.12.63-12.64.28-19.48.28-19.48Z"/><path class="cls-30" d="M191.92,54.66c-12.44,0-22.56-10.12-22.56-22.56s10.12-22.56,22.56-22.56,22.56,10.12,22.56,22.56-10.12,22.56-22.56,22.56Z"/><circle class="cls-29" cx="191.92" cy="32.1" r="21.5" transform="translate(116.97 211.68) rotate(-76.84)"/><path class="cls-43" d="M210.83,29.85c.79.15,1.59.49,2.53.66-.18-2.53-.81-4.94-1.79-7.15-.6.48-1.18.93-1.69,1.17-1.83.86-1.35.7-2.95-.97-1.59-1.67-4.7-1.35-4.46.4.24,1.75-1.99.56-2.39-1.07s-2.47-1.63-3.9-3.62c-1.43-1.99-4.46-1.27-5.97-2.23-1.51-.96-4.86.72-1.59,1.59,3.26.88,2.55,1.83,1.83,3.42-.72,1.59-.72,3.9,1.83,5.97,2.55,2.07-.96.8-1.27,3.19-.32,2.39-4.86.56-6.69-1.99s-1.99.32-5.65,0c-3.66-.32-3.66.64-3.66-2.15,0-1.97-1.86-2.82-2.96-3.16-1.04,2.52-1.62,5.29-1.62,8.19,0,9,5.53,16.71,13.38,19.91.33-.94.71-1.77.99-2.32.72-1.42,3.74-.18,4.86-2.88,1.11-2.71,3.03-2.31,3.5.08s3.26,4.22,4.7,3.99.88-4.63.88-6.06,2.63-1.11,2.87-3.03c.24-1.91,2.15-1.59,3.66-.4s-.16,1.91-.24,5.89c-.01.67.04,1.26.14,1.76,2.23-1.75,4.11-3.92,5.51-6.41-.37-.68-.82-1.37-1.11-2.28-.86-2.7,1.19-2.63.88-5.89s-.88-4.86.4-4.62Z"/><path class="cls-26" d="M180.19,20.64s.6.54,1.67,0c1.07-.54,1.55.18.66,1.25-.9,1.07-1.44,1.02-.93,2.45.51,1.43-2,2.75-2.77,1.67-.78-1.07-.42-1.37-1.85-1.97-1.43-.6-2.51-2.93,0-2.39,2.51.54,1.13-1.85,3.22-1.02Z"/><path class="cls-26" d="M185.51,22.89s2.39-.6,2.07,1.03c-.32,1.63-.64,1.11.72,2.03,1.35.92,2.03,2.59.44,2.07-1.59-.52-1.11-1-2.47-.36-1.35.64-2.43-.21-1.83-1.26.6-1.05-1.31-3.24,1.07-3.52Z"/><path class="cls-26" d="M193.51,13.81c.89-.09.68,1.04,1.83,1.04s1.07.76,1.55,1.39,0,2.11-.92,1.15c-.92-.96-1.63-1.71-2.47-1.23s-2.75-.4-3.15-.76-3.78-.92-4.46-.08c-.68.84-3.3,1.35-2.59.16s1.39-2.51,3.42-2.27c2.03.24,2.47,1.02,3.15-.03s2.11-1.09,2.31-.57c.2.52-.2,1.35,1.31,1.19Z"/><path class="cls-26" d="M200.56,15s2.95-.83,3.26,1.16c.32,1.99,1.67,2.47,2.63,3.18.96.72-3.26,1.27-4.14,0-.88-1.27-1.91-.8-3.03-.8s-.32-3.75,1.27-3.55Z"/><path class="cls-26" d="M195.68,24.83s.85-1.68,1.4,0-.1,1.59,1.68,2.21c1.78.62,3.91,2.48,3.11,2.92-.8.44-2.39-1.72-3.8-.95-1.42.77-1.68.51-1.95-1.53-.27-2.03-2.92-.97-.44-2.65Z"/><path class="cls-26" d="M181.89,32.24c-.1,1.58,1.86-.77,2.92,1.09,1.06,1.86,1.77,1.77,3.63,1.77s2.89-.27,1.23.8c-1.67,1.06-.7-.44-4.41,0-3.71.44-5.4,3.8-6.46,1.59s1.59-3.55-2.56-3.1c-4.16.45-5.75-3.13-2.21-3.55,3.54-.42,3.09-.28,5.21,0,2.13.28,2.75.05,2.66,1.41Z"/><path class="cls-26" d="M182.99,41.55c-.66.35-2.08,0-2.52-1.33-.44-1.33-1.68-.71-4.07-.8-2.39-.09-1.04-.89-1.68-1.2-3.09-1.52-3.19-.98-3.24.56,1.48,4.53,4.43,8.4,8.28,11.05.22-.75.39-1.56.53-2.36.62-3.71,3.01.53,3.97-3.01.96-3.54-.61-3.27-1.27-2.92Z"/><path class="cls-26" d="M190.14,38.63s2.36,1.32,3.69-.4c1.33-1.72,0-3.58,1.95-2.78,1.95.8,1.95,1.06,3.89.27,1.95-.8,4.79-.42,3.01,1.47-1.77,1.89-3.36-.42-4.33,1.93s.08,4.74-2.48,3.94c-2.56-.8-4.72-2.74-5.36-1.59-.65,1.15-4.04-2.43-.36-2.83Z"/><path class="cls-26" d="M204.97,31.47s-.97-2.65,0-2.74,1.66-1.92,2.06-.33c.4,1.59-.63,1.35.63,2.17,1.26.82,1.49.95.6,2.08-.9,1.13-3.45.77-3.28-1.17Z"/><path class="cls-39" d="M195.32,10.87c6.71,3.64,11.27,10.74,11.27,18.91,0,11.87-9.62,21.5-21.5,21.5-1.16,0-2.29-.09-3.4-.27,3.04,1.65,6.53,2.58,10.23,2.58,11.87,0,21.5-9.62,21.5-21.5,0-10.72-7.84-19.6-18.1-21.23Z"/><ellipse class="cls-40" cx="188.51" cy="30.83" rx="16.59" ry="13.16" transform="translate(97.24 198.63) rotate(-70.75)"/><g class="cls-49"><circle class="cls-18" cx="191.92" cy="32.1" r="31.24"/></g><path class="cls-25" d="M83.59,6.3c0,14.66-11.88,26.54-26.53,26.54S30.52,20.96,30.52,6.3c0-2.17.26-4.28.76-6.3h51.55c.5,2.02.76,4.13.76,6.3Z"/><circle class="cls-25" cx="55.71" cy="101.45" r="12.26"/><circle class="cls-25" cx="84.66" cy="76.15" r="3.81"/><circle class="cls-25" cx="22.98" cy="27.54" r="6.03"/><path class="cls-25" d="M180.66.48c0,9.24-7.5,16.74-16.74,16.74s-16.74-7.5-16.74-16.74c0-.16,0-.32.01-.48h33.45c.01.16.01.32.01.48Z"/><path class="cls-25" d="M2.95,72.85c0,1.63-1.32,2.95-2.95,2.95v-5.9c1.63,0,2.95,1.32,2.95,2.95Z"/><circle class="cls-25" cx="216.21" cy="80.43" r="12.26" transform="translate(88.49 272.53) rotate(-76.79)"/><path class="cls-25" d="M233.04,20.58c0,2.65-2.15,4.8-4.8,4.8s-4.8-2.15-4.8-4.8,2.15-4.8,4.8-4.8,4.8,2.15,4.8,4.8Z"/></g></g></g></g></svg>