<?xml version="1.0" encoding="UTF-8"?><svg xmlns="http://www.w3.org/2000/svg" xmlns:xlink="http://www.w3.org/1999/xlink" viewBox="0 0 250 140.12"><defs><radialGradient id="radial-gradient" cx="191.92" cy="32.1" fx="191.92" fy="32.1" r="31.24" gradientUnits="userSpaceOnUse"><stop offset="0" stop-color="#fff"/><stop offset=".81" stop-color="#414141"/><stop offset=".91" stop-color="#000"/></radialGradient><mask id="mask" x="160.68" y=".86" width="62.49" height="62.49" maskUnits="userSpaceOnUse"><circle cx="191.92" cy="32.1" r="31.24" style="fill:url(#radial-gradient); stroke-width:0px;"/></mask></defs><g style="isolation:isolate;"><g id="Layer_2"><g id="Layer_1-2"><g id="Sun"><path d="M191.92,54.66c-12.44,0-22.56-10.12-22.56-22.56s10.12-22.56,22.56-22.56,22.56,10.12,22.56,22.56-10.12,22.56-22.56,22.56Z" style="fill:#fee39e; stroke-width:0px;"/><circle cx="191.92" cy="32.1" r="21.5" transform="translate(116.97 211.68) rotate(-76.84)" style="fill:#fdd15d; stroke-width:0px;"/><path d="M210.83,29.85c.79.15,1.59.49,2.53.66-.18-2.53-.81-4.94-1.79-7.15-.6.48-1.18.93-1.69,1.17-1.83.86-1.35.7-2.95-.97-1.59-1.67-4.7-1.35-4.46.4.24,1.75-1.99.56-2.39-1.07s-2.47-1.63-3.9-3.62c-1.43-1.99-4.46-1.27-5.97-2.23-1.51-.96-4.86.72-1.59,1.59,3.26.88,2.55,1.83,1.83,3.42-.72,1.59-.72,3.9,1.83,5.97,2.55,2.07-.96.8-1.27,3.19-.32,2.39-4.86.56-6.69-1.99s-1.99.32-5.65,0c-3.66-.32-3.66.64-3.66-2.15,0-1.97-1.86-2.82-2.96-3.16-1.04,2.52-1.62,5.29-1.62,8.19,0,9,5.53,16.71,13.38,19.91.33-.94.71-1.77.99-2.32.72-1.42,3.74-.18,4.86-2.88,1.11-2.71,3.03-2.31,3.5.08s3.26,4.22,4.7,3.99.88-4.63.88-6.06,2.63-1.11,2.87-3.03c.24-1.91,2.15-1.59,3.66-.4s-.16,1.91-.24,5.89c-.01.67.04,1.26.14,1.76,2.23-1.75,4.11-3.92,5.51-6.41-.37-.68-.82-1.37-1.11-2.28-.86-2.7,1.19-2.63.88-5.89s-.88-4.86.4-4.62Z" style="fill:#fdc534; stroke-width:0px;"/><path d="M180.19,20.64s.6.54,1.67,0c1.07-.54,1.55.18.66,1.25-.9,1.07-1.44,1.02-.93,2.45.51,1.43-2,2.75-2.77,1.67-.78-1.07-.42-1.37-1.85-1.97-1.43-.6-2.51-2.93,0-2.39,2.51.54,1.13-1.85,3.22-1.02Z" style="fill:#f79537; stroke-width:0px;"/><path d="M185.51,22.89s2.39-.6,2.07,1.03c-.32,1.63-.64,1.11.72,2.03,1.35.92,2.03,2.59.44,2.07-1.59-.52-1.11-1-2.47-.36-1.35.64-2.43-.21-1.83-1.26.6-1.05-1.31-3.24,1.07-3.52Z" style="fill:#f79537; stroke-width:0px;"/><path d="M193.51,13.81c.89-.09.68,1.04,1.83,1.04s1.07.76,1.55,1.39,0,2.11-.92,1.15c-.92-.96-1.63-1.71-2.47-1.23s-2.75-.4-3.15-.76-3.78-.92-4.46-.08c-.68.84-3.3,1.35-2.59.16s1.39-2.51,3.42-2.27c2.03.24,2.47,1.02,3.15-.03s2.11-1.09,2.31-.57c.2.52-.2,1.35,1.31,1.19Z" style="fill:#f79537; stroke-width:0px;"/><path d="M200.56,15s2.95-.83,3.26,1.16c.32,1.99,1.67,2.47,2.63,3.18.96.72-3.26,1.27-4.14,0-.88-1.27-1.91-.8-3.03-.8s-.32-3.75,1.27-3.55Z" style="fill:#f79537; stroke-width:0px;"/><path d="M195.68,24.83s.85-1.68,1.4,0-.1,1.59,1.68,2.21c1.78.62,3.91,2.48,3.11,2.92-.8.44-2.39-1.72-3.8-.95-1.42.77-1.68.51-1.95-1.53-.27-2.03-2.92-.97-.44-2.65Z" style="fill:#f79537; stroke-width:0px;"/><path d="M181.89,32.24c-.1,1.58,1.86-.77,2.92,1.09,1.06,1.86,1.77,1.77,3.63,1.77s2.89-.27,1.23.8c-1.67,1.06-.7-.44-4.41,0-3.71.44-5.4,3.8-6.46,1.59s1.59-3.55-2.56-3.1c-4.16.45-5.75-3.13-2.21-3.55,3.54-.42,3.09-.28,5.21,0,2.13.28,2.75.05,2.66,1.41Z" style="fill:#f79537; stroke-width:0px;"/><path d="M182.99,41.55c-.66.35-2.08,0-2.52-1.33-.44-1.33-1.68-.71-4.07-.8-2.39-.09-1.04-.89-1.68-1.2-3.09-1.52-3.19-.98-3.24.56,1.48,4.53,4.43,8.4,8.28,11.05.22-.75.39-1.56.53-2.36.62-3.71,3.01.53,3.97-3.01.96-3.54-.61-3.27-1.27-2.92Z" style="fill:#f79537; stroke-width:0px;"/><path d="M190.14,38.63s2.36,1.32,3.69-.4c1.33-1.72,0-3.58,1.95-2.78,1.95.8,1.95,1.06,3.89.27,1.95-.8,4.79-.42,3.01,1.47-1.77,1.89-3.36-.42-4.33,1.93s.08,4.74-2.48,3.94c-2.56-.8-4.72-2.74-5.36-1.59-.65,1.15-4.04-2.43-.36-2.83Z" style="fill:#f79537; stroke-width:0px;"/><path d="M204.97,31.47s-.97-2.65,0-2.74,1.66-1.92,2.06-.33c.4,1.59-.63,1.35.63,2.17,1.26.82,1.49.95.6,2.08-.9,1.13-3.45.77-3.28-1.17Z" style="fill:#f79537; stroke-width:0px;"/><path d="M195.32,10.87c6.71,3.64,11.27,10.74,11.27,18.91,0,11.87-9.62,21.5-21.5,21.5-1.16,0-2.29-.09-3.4-.27,3.04,1.65,6.53,2.58,10.23,2.58,11.87,0,21.5-9.62,21.5-21.5,0-10.72-7.84-19.6-18.1-21.23Z" style="fill:#e6e7e8; mix-blend-mode:multiply; stroke-width:0px;"/><ellipse cx="188.51" cy="30.83" rx="16.59" ry="13.16" transform="translate(97.24 198.63) rotate(-70.75)" style="fill:#231f20; mix-blend-mode:screen; stroke-width:0px;"/><g style="mask:url(#mask);"><circle cx="191.92" cy="32.1" r="31.24" style="fill:#feee2f; stroke-width:0px;"/></g><rect width="250" height="140.12" style="fill:none; stroke-width:0px;"/></g></g></g></g></svg>